<svg xmlns="http://www.w3.org/2000/svg" xmlns:xlink="http://www.w3.org/1999/xlink" viewBox="0 0 36 36" width="36" height="36"><defs><path id="a" d="M18 7.75C12.34 7.75 7.75 12.34 7.75 18S12.34 28.25 18 28.25 28.25 23.66 28.25 18 23.66 7.75 18 7.75ZM6.25 18c0-6.49 5.26-11.75 11.75-11.75S29.75 11.51 29.75 18 24.49 29.75 18 29.75 6.25 24.49 6.25 18Z"/></defs><path fill="#EFEFEF" d="M13.238 7.228c-1.712 4.279-3.138 5.687-7.06 8.629-9.414 7.06 4.707 14.905 8.629 16.474C18.729 33.9 25.79 33.9 29.712 29.193c4.049-4.859 4.707-19.612 0-24.319-4.707-4.707-14.16-3.43-16.474 2.354Z"/><path fill="#A4AFC1" fill-rule="evenodd" d="M4.5 13.023a.5.5 0 1 0 0-1 .5.5 0 0 0 0 1Zm0 1a1.5 1.5 0 1 0 0-3 1.5 1.5 0 0 0 0 3Z"/><path fill="#2EDF84" d="M29 18c0 6.075-4.925 11-11 11S7 24.075 7 18 11.925 7 18 7s11 4.925 11 11Z"/><path fill="#00B872" fill-rule="evenodd" d="M18.75 7.025C13.025 7.411 8.5 12.177 8.5 18c0 5.823 4.525 10.59 10.25 10.975-.248.016-.498.025-.75.025-6.075 0-11-4.925-11-11S11.925 7 18 7c.252 0 .502.008.75.025Z"/><g fill="#2EDF84" fill-rule="evenodd"><path d="M18 6.25a.75.75 0 0 1 .75.75v2a.75.75 0 0 1-1.5 0V7a.75.75 0 0 1 .75-.75zm4.76 6.99a.75.75 0 0 1-.001 1.061l-3.141 3.13a.75.75 0 1 1-1.06-1.062l3.142-3.13a.75.75 0 0 1 1.06.002zm-4.164 5.345a.75.75 0 0 1 1.06.001l4.375 4.384a.75.75 0 0 1-1.062 1.06l-4.374-4.385a.75.75 0 0 1 .001-1.06zM18 26.25a.75.75 0 0 1 .75.75v2a.75.75 0 0 1-1.5 0v-2a.75.75 0 0 1 .75-.75zM26.25 18a.75.75 0 0 1 .75-.75h2a.75.75 0 0 1 0 1.5h-2a.75.75 0 0 1-.75-.75zm-20 0a.75.75 0 0 1 .75-.75h2a.75.75 0 0 1 0 1.5H7a.75.75 0 0 1-.75-.75z"/><use xlink:href="#a"/><path fill="#F3F3F1" d="M18 15.75a2.25 2.25 0 1 0 0 4.5 2.25 2.25 0 0 0 0-4.5Z"/><path fill="#D6DBE1" d="M15.75 18a2.25 2.25 0 0 1 3.5-1.871 2.248 2.248 0 0 0 0 3.742A2.25 2.25 0 0 1 15.75 18Z"/><use fill="#000" xlink:href="#a"/><path fill="#000" d="M18 17.25a.75.75 0 1 0 0 1.5.75.75 0 0 0 0-1.5Zm-2.25.75a2.25 2.25 0 1 1 4.5 0 2.25 2.25 0 0 1-4.5 0Z"/><path fill="#000" d="m23.29 13.772-4.204 4.189-1.059-1.063 4.204-4.189 1.06 1.063zm-4.163 4.283L24.56 23.5l-1.062 1.06-5.434-5.447 1.062-1.06zm-.377 8.195V29h-1.5v-2.75h1.5zM17.25 7h1.5v2.75h-1.5V7zm9 10.25H29v1.5h-2.75v-1.5zM7 18.75v-1.5h2.75v1.5H7z"/></g></svg>