<svg xmlns="http://www.w3.org/2000/svg" viewBox="0 0 283.46 283.46" width="283.4599914550781" height="283.4599914550781"><defs><linearGradient id="a" x1="179.04" x2="51.4" y1="259.79" y2="29.56" gradientTransform="rotate(-1.87 132.549 -723.508)" gradientUnits="userSpaceOnUse"><stop offset=".14" stop-color="#fcc410"/><stop offset=".22" stop-color="#fcca22"/><stop offset=".35" stop-color="#fdd33a"/><stop offset=".49" stop-color="#feda4c"/><stop offset=".64" stop-color="#fedd56"/><stop offset=".82" stop-color="#ffdf5a"/></linearGradient><linearGradient id="b" x1="143.17" x2="140.79" y1="173.43" y2="96.49" gradientUnits="userSpaceOnUse"><stop offset="0" stop-color="#fde581"/><stop offset=".24" stop-color="#fde99d"/><stop offset=".72" stop-color="#fff6e1"/></linearGradient></defs><path fill="url(#a)" d="M53.88,209.21l.55-26.42c.1-4.54-1.62-8.93-4.76-12.2l-18.29-19.07c-6.54-6.82-6.31-17.65,.51-24.19l19.07-18.29c3.28-3.14,5.17-7.45,5.26-11.99l.55-26.42c.2-9.45,8.02-16.94,17.46-16.75l26.42,.55c4.54,.1,8.93-1.62,12.2-4.76l19.07-18.29c6.82-6.54,17.65-6.31,24.19,.51l18.29,19.07c3.14,3.28,7.45,5.17,11.99,5.26l26.42,.55c9.45,.2,16.94,8.02,16.75,17.46l-.55,26.42c-.1,4.54,1.62,8.93,4.76,12.2l18.29,19.07c6.54,6.82,6.31,17.65-.51,24.19l-19.07,18.29c-3.28,3.14-5.17,7.45-5.26,11.99l-.55,26.42c-.2,9.45-8.02,16.94-17.46,16.75l-26.42-.55c-4.54-.1-8.93,1.62-12.2,4.76l-19.07,18.29c-6.82,6.54-17.65,6.31-24.19-.51l-18.29-19.07c-3.14-3.28-7.45-5.17-11.99-5.26l-26.42-.55c-9.45-.2-16.94-8.02-16.75-17.46Z"/><path fill="url(#b)" d="M131.52,175.33c-2.22,0-4.44-.85-6.14-2.54l-29.41-29.41c-3.39-3.39-3.39-8.89,0-12.27,3.39-3.39,8.89-3.39,12.27,0l23.27,23.27,43.7-43.69c3.39-3.39,8.89-3.39,12.27,0,3.39,3.39,3.39,8.89,0,12.27l-49.83,49.83c-1.69,1.7-3.92,2.54-6.14,2.54Z"/></svg>