<svg xmlns="http://www.w3.org/2000/svg" xmlns:xlink="http://www.w3.org/1999/xlink" viewBox="0 0 36 36" width="36" height="36"><defs><path id="a" d="M7.25 18.5a.75.75 0 0 1 .75-.75h20a.75.75 0 0 1 0 1.5H8a.75.75 0 0 1-.75-.75Z"/></defs><path fill="#EFEFEF" d="M17.043 26.943c2.837 4.19 8.966 4.482 11.208 3.735 10.203-3.4 1.583-21.912-3.736-25.403-5.32-3.491-14.31-.076-19.039 4.58-4.728 4.654-1.881 11.11 1.854 11.858 2.898.58 6.876 1.04 9.713 5.23Z"/><path fill="#A4AFC1" fill-rule="evenodd" d="M4.5 25.793a.5.5 0 1 0 0-1 .5.5 0 0 0 0 1Zm0 1a1.5 1.5 0 1 0 0-3 1.5 1.5 0 0 0 0 3Z"/><g fill="#2EDF84" fill-rule="evenodd"><path d="M15.25 9.5a2.75 2.75 0 1 1 5.5 0 2.75 2.75 0 0 1-5.5 0ZM18 12.25A3.75 3.75 0 0 1 21.75 16a.75.75 0 0 1-.75.75h-6a.75.75 0 0 1-.75-.75A3.75 3.75 0 0 1 18 12.25ZM7.25 22.5a2.75 2.75 0 1 1 5.5 0 2.75 2.75 0 0 1-5.5 0ZM10 25.25c.956 0 1.855.257 2.537.712.677.451 1.213 1.157 1.213 2.038a.75.75 0 0 1-.75.75H7a.75.75 0 0 1-.75-.75c0-.881.536-1.587 1.213-2.038.682-.455 1.581-.712 2.537-.712Zm8-4.5a2.75 2.75 0 1 0 0 5.5c-.956 0-1.855.257-2.537.712-.677.451-1.213 1.157-1.213 2.038 0 .414.336.75.75.75h6a.75.75 0 0 0 .75-.75c0-.881-.536-1.587-1.213-2.038-.682-.455-1.581-.712-2.537-.712a2.75 2.75 0 1 0 0-5.5Zm5.25 1.75a2.75 2.75 0 1 1 5.5 0 2.75 2.75 0 0 1-5.5 0ZM26 25.25c.956 0 1.855.257 2.537.712.677.451 1.213 1.157 1.213 2.038a.75.75 0 0 1-.75.75h-6a.75.75 0 0 1-.75-.75c0-.881.536-1.587 1.213-2.038.682-.455 1.581-.712 2.537-.712Z"/><path fill="#00B872" d="M18 6.75a2.75 2.75 0 1 0 0 5.5A3.75 3.75 0 0 0 14.25 16c0 .414.336.75.75.75h2.5a.75.75 0 0 1-.75-.75 3.752 3.752 0 0 1 2.5-3.537A3.744 3.744 0 0 0 18 12.25c.45 0 .875-.108 1.25-.3a2.75 2.75 0 0 1 0-4.9c-.375-.192-.8-.3-1.25-.3Zm-8 13a2.75 2.75 0 1 0 0 5.5c-.956 0-1.855.257-2.537.712-.677.451-1.213 1.157-1.213 2.038 0 .414.336.75.75.75h2.5a.75.75 0 0 1-.75-.75c0-.881.536-1.587 1.213-2.038.373-.249.81-.438 1.287-.56A5.101 5.101 0 0 0 10 25.25c.45 0 .875-.108 1.25-.3a2.75 2.75 0 0 1 0-4.9c-.375-.192-.8-.3-1.25-.3Zm4.265 9H15.5a.75.75 0 0 0 .75-.75c0-.475-.156-.9-.406-1.26.62-.316 1.37-.49 2.156-.49.433 0 .855.053 1.25.153-.476.12-.914.31-1.287.559-.677.451-1.213 1.157-1.213 2.038 0 .414.336.75.75.75H15a.75.75 0 0 1-.75-.75c0-.085.005-.168.015-.25Zm9.97 0H25.5a.75.75 0 0 1-.75-.75c0-.881.536-1.587 1.213-2.038.373-.249.81-.438 1.287-.56A5.101 5.101 0 0 0 26 25.25c.45 0 .875-.108 1.25-.3a2.75 2.75 0 0 1 0-4.9 2.75 2.75 0 1 0-1.25 5.2c-.956 0-1.855.257-2.537.712-.312.208-.594.47-.807.777.133.068.26.142.381.223.612.408 1.108 1.023 1.198 1.788Zm-4.985-7.7a2.75 2.75 0 1 0 0 4.9 2.75 2.75 0 0 1 0-4.9Z"/><use xlink:href="#a"/><path fill="#000" d="M18 8.25a1.25 1.25 0 1 0 0 2.5 1.25 1.25 0 0 0 0-2.5zM15.25 9.5a2.75 2.75 0 1 1 5.5 0 2.75 2.75 0 0 1-5.5 0zM10 21.25a1.25 1.25 0 1 0 0 2.5 1.25 1.25 0 0 0 0-2.5zM7.25 22.5a2.75 2.75 0 1 1 5.5 0 2.75 2.75 0 0 1-5.5 0zM18 22.25a1.25 1.25 0 1 0 0 2.5 1.25 1.25 0 0 0 0-2.5zm-2.75 1.25a2.75 2.75 0 1 1 5.5 0 2.75 2.75 0 0 1-5.5 0zM26 21.25a1.25 1.25 0 1 0 0 2.5 1.25 1.25 0 0 0 0-2.5zm-2.75 1.25a2.75 2.75 0 1 1 5.5 0 2.75 2.75 0 0 1-5.5 0zm-9-6.5a3.75 3.75 0 1 1 7.5 0 .75.75 0 0 1-.75.75h-6a.75.75 0 0 1-.75-.75zm1.628-.75h4.244a2.251 2.251 0 0 0-4.244 0zM7.463 25.962c.682-.455 1.581-.712 2.537-.712s1.855.257 2.537.712c.677.451 1.213 1.157 1.213 2.038a.75.75 0 0 1-1.5 0c0-.224-.136-.518-.545-.79-.403-.27-1.004-.46-1.705-.46-.701 0-1.302.19-1.705.46-.41.272-.545.567-.545.79a.75.75 0 0 1-1.5 0c0-.881.536-1.587 1.213-2.038zm8 1c.682-.455 1.581-.712 2.537-.712s1.855.257 2.537.712c.677.451 1.213 1.157 1.213 2.038a.75.75 0 0 1-1.5 0c0-.224-.136-.518-.545-.79-.403-.27-1.004-.46-1.705-.46-.701 0-1.302.19-1.705.46-.41.272-.545.567-.545.79a.75.75 0 0 1-1.5 0c0-.881.536-1.587 1.213-2.038zm8-1c.682-.455 1.581-.712 2.537-.712s1.855.257 2.537.712c.677.451 1.213 1.157 1.213 2.038a.75.75 0 0 1-1.5 0c0-.224-.136-.518-.545-.79-.403-.27-1.004-.46-1.705-.46-.701 0-1.302.19-1.705.46-.41.272-.545.567-.545.79a.75.75 0 0 1-1.5 0c0-.881.536-1.587 1.213-2.038z"/><use fill="#000" xlink:href="#a"/></g></svg>