<svg xmlns="http://www.w3.org/2000/svg" viewBox="0 0 36 36" width="36" height="36"><path fill="#EFEFEF" d="M23.056 5.594c-5.733-1.945-13.005 1.35-15.924 3.241-7.963 4.862-2.39 17.017 0 20.259 2.388 3.241 5.573.81 9.554-.81 3.982-1.621 3.982 2.43 10.351 2.43 6.37 0 7.963-10.534 3.185-15.396-4.777-4.862 0-7.293-7.166-9.724Z"/><path fill="#A4AFC1" fill-rule="evenodd" d="M19.5 32.714a.5.5 0 1 0 0-1 .5.5 0 0 0 0 1Zm0 1a1.5 1.5 0 1 0 0-3 1.5 1.5 0 0 0 0 3Z"/><g fill="#F3F3F1" fill-rule="evenodd"><path d="M23.392 8.162a.75.75 0 0 0 0 1.06l3.385 3.385a.75.75 0 0 0 1.06 0l.986-.985a1.75 1.75 0 0 0 0-2.475l-1.97-1.97a1.75 1.75 0 0 0-2.475 0l-.986.985ZM7.177 24.378a1.75 1.75 0 0 0 0 2.475l1.97 1.97a1.75 1.75 0 0 0 2.475 0l.985-.985a.75.75 0 0 0 0-1.06l-3.384-3.385a.75.75 0 0 0-1.06 0l-.986.985Zm12.83-11.14a.75.75 0 0 1 1.061 0l1.693 1.693a.75.75 0 0 1 0 1.06l-6.77 6.77a.75.75 0 0 1-1.06 0l-1.693-1.692a.75.75 0 0 1 0-1.061l6.77-6.77Z"/><path fill="#D6DBE1" d="M23.392 9.223a.75.75 0 0 1 0-1.06l.986-.986a1.75 1.75 0 0 1 2.475 0l.012.012-.973.973a.75.75 0 0 0 0 1.06l2.665 2.666-.72.72a.75.75 0 0 1-1.06 0l-3.385-3.385ZM7.177 26.853a1.75 1.75 0 0 1 0-2.475l.985-.985a.75.75 0 0 1 1.06 0l.72.72-.265.265a1.75 1.75 0 0 0 0 2.475l1.958 1.958-.013.012a1.75 1.75 0 0 1-2.475 0l-1.97-1.97Zm13.891-13.614a.75.75 0 0 0-1.06 0l-6.77 6.769a.75.75 0 0 0 0 1.06l1.693 1.693a.75.75 0 0 0 1.06 0l.72-.72-.973-.972a.75.75 0 0 1 0-1.061l6.05-6.05-.72-.72Z"/><path fill="#2EDF84" d="M7.177 20.994a1.75 1.75 0 0 0 0 2.475l5.355 5.355a1.75 1.75 0 0 0 2.475 0l2.816-2.817a1.75 1.75 0 0 0 0-2.475l-5.355-5.355a1.75 1.75 0 0 0-2.475 0l-2.816 2.817Z"/><path fill="#00B872" d="M7.177 23.468a1.75 1.75 0 0 1 0-2.474l2.816-2.817a1.75 1.75 0 0 1 2.475 0l.013.013-2.804 2.804a1.75 1.75 0 0 0 0 2.474l5.342 5.343-.012.013a1.75 1.75 0 0 1-2.475 0l-5.355-5.356Z"/><path fill="#2EDF84" d="M18.177 9.994a1.75 1.75 0 0 0 0 2.474l5.355 5.356a1.75 1.75 0 0 0 2.475 0l2.816-2.817a1.75 1.75 0 0 0 0-2.475l-5.355-5.355a1.75 1.75 0 0 0-2.475 0l-2.816 2.817Z"/><path fill="#00B872" d="M18.177 12.469a1.75 1.75 0 0 1 0-2.475l2.816-2.817a1.75 1.75 0 0 1 2.475 0l.013.013-2.804 2.804a1.75 1.75 0 0 0 0 2.475l5.342 5.342-.012.013a1.75 1.75 0 0 1-2.475 0l-5.355-5.355Z"/><path fill="#000" d="M7.177 23.468a1.75 1.75 0 0 1 0-2.475l2.816-2.816a1.75 1.75 0 0 1 2.475 0l5.355 5.355a1.75 1.75 0 0 1 0 2.475l-2.816 2.816a1.75 1.75 0 0 1-2.475 0l-5.355-5.355Zm1.06-1.414a.25.25 0 0 0 0 .354l5.356 5.355a.25.25 0 0 0 .353 0l2.817-2.817a.25.25 0 0 0 0-.353l-5.355-5.355a.25.25 0 0 0-.354 0l-2.816 2.816Z"/><path fill="#000" d="M7.177 26.853a1.75 1.75 0 0 1 0-2.475l.985-.985a.75.75 0 0 1 1.06 0l3.385 3.385a.75.75 0 0 1 0 1.06l-.985.985a1.75 1.75 0 0 1-2.475 0l-1.97-1.97zm1.06-1.414a.25.25 0 0 0 0 .353l1.971 1.97a.25.25 0 0 0 .353 0l.455-.454-2.324-2.324-.454.455zM23.394 9.223a.75.75 0 0 1 0-1.061l.985-.985a1.75 1.75 0 0 1 2.475 0l1.97 1.97a1.75 1.75 0 0 1 0 2.475l-.985.985a.75.75 0 0 1-1.06 0l-3.385-3.384zm1.59-.53 2.325 2.323.455-.454a.25.25 0 0 0 0-.354l-1.971-1.97a.25.25 0 0 0-.354 0l-.454.454zm-4.975 4.546a.75.75 0 0 1 1.06 0l1.693 1.692a.75.75 0 0 1 0 1.06l-6.77 6.77a.75.75 0 0 1-1.06 0l-1.692-1.692a.75.75 0 0 1 0-1.06l6.769-6.77zm.53 1.59-5.708 5.71.631.631 5.709-5.709-.632-.631z"/><path fill="#000" d="M18.177 12.468a1.75 1.75 0 0 1 0-2.474l2.816-2.817a1.75 1.75 0 0 1 2.475 0l5.355 5.355a1.75 1.75 0 0 1 0 2.475l-2.816 2.816a1.75 1.75 0 0 1-2.475 0l-5.355-5.355Zm1.06-1.414a.25.25 0 0 0 0 .354l5.356 5.355a.25.25 0 0 0 .353 0l2.817-2.817a.25.25 0 0 0 0-.353l-5.355-5.355a.25.25 0 0 0-.354 0l-2.816 2.816Z"/></g></svg>