<svg xmlns="http://www.w3.org/2000/svg" viewBox="0 0 36 36" width="36" height="36"><path fill="#EFEFEF" d="M23.056 5.594c-5.733-1.945-13.005 1.35-15.924 3.241-7.963 4.862-2.39 17.017 0 20.259 2.388 3.241 5.573.81 9.554-.81 3.982-1.621 3.982 2.43 10.351 2.43 6.37 0 7.963-10.534 3.185-15.396-4.777-4.862 0-7.293-7.166-9.724Z"/><path fill="#A4AFC1" fill-rule="evenodd" d="M19.5 32.714a.5.5 0 1 0 0-1 .5.5 0 0 0 0 1Zm0 1a1.5 1.5 0 1 0 0-3 1.5 1.5 0 0 0 0 3Z"/><g fill="#2EDF84" fill-rule="evenodd"><path d="M14.58 16.837a.75.75 0 0 0-1.48 0l-1.604 9.626a2.377 2.377 0 1 0 4.688 0l-1.604-9.626Z"/><path fill="#00B872" d="M13.84 16.21a.75.75 0 0 1 .74.627l.51 3.06-1.094 6.566a2.376 2.376 0 0 0 1.094 2.413 2.377 2.377 0 0 1-3.594-2.413l1.604-9.626a.75.75 0 0 1 .74-.627Z"/><path d="M10 7.25a.75.75 0 0 1 .75.75v5.21a3 3 0 1 0 6 0V8a.75.75 0 0 1 1.5 0v5.21a4.5 4.5 0 1 1-9 0V8a.75.75 0 0 1 .75-.75Z"/><path d="M13.75 7.25a.75.75 0 0 1 .75.75v6.72a.75.75 0 0 1-1.5 0V8a.75.75 0 0 1 .75-.75zm8.593 10.852a.75.75 0 0 1 1.474 0l1.566 8.353a2.343 2.343 0 1 1-4.606 0l1.566-8.353z"/><path fill="#00B872" d="M23.08 17.49a.75.75 0 0 0-.737.612l-1.566 8.353a2.343 2.343 0 0 0 3.553 2.415 2.343 2.343 0 0 1-1.053-2.415l1.053-5.618-.513-2.735a.75.75 0 0 0-.737-.612Z"/><path fill="#F3F3F1" d="M25 7.25a.75.75 0 0 1 .75.75v10.24a.75.75 0 0 1-.75.75h-3.84a.75.75 0 0 1-.75-.75v-5.12c0-1.483.262-2.931.982-4.031.752-1.15 1.954-1.839 3.608-1.839Z"/><path fill="#000" d="M10.75 7.25v5.96a3 3 0 1 0 6 0V7.25h1.5v5.96a4.5 4.5 0 1 1-9 0V7.25h1.5Z"/><path fill="#000" d="M14.5 7.25v8.22H13V7.25h1.5zm-.66 8.96a.75.75 0 0 1 .74.627l1.604 9.626a2.376 2.376 0 1 1-4.688 0l1.604-9.626a.75.75 0 0 1 .74-.627zm0 5.312-.865 5.187a.877.877 0 1 0 1.73 0l-.865-5.187zm9.24-4.032a.75.75 0 0 0-.737.612l-1.566 8.353a2.343 2.343 0 1 0 4.606 0l-1.566-8.353a.75.75 0 0 0-.737-.612zm0 4.82.829 4.421a.843.843 0 1 1-1.658 0l.829-4.421z"/><path fill="#000" d="M25.75 8a.75.75 0 0 0-.75-.75c-1.654 0-2.856.69-3.608 1.839-.72 1.1-.982 2.548-.982 4.031v5.12c0 .414.336.75.75.75H25a.75.75 0 0 0 .75-.75V8Zm-1.5.822v8.668h-2.34v-4.37c0-1.345.244-2.457.737-3.21a2.42 2.42 0 0 1 1.603-1.088Z"/></g></svg>