<svg xmlns="http://www.w3.org/2000/svg" xmlns:xlink="http://www.w3.org/1999/xlink" viewBox="0 0 36 36" width="36" height="36"><defs><path id="b" d="M19.75 18a1.75 1.75 0 1 1 3.5 0 1.75 1.75 0 0 1-3.5 0Zm1.75-.25a.25.25 0 1 0 0 .5.25.25 0 0 0 0-.5Z"/><path id="a" d="M15.75 18a1.75 1.75 0 1 1 3.5 0 1.75 1.75 0 0 1-3.5 0Zm1.75-.25a.25.25 0 1 0 0 .5.25.25 0 0 0 0-.5Z"/></defs><path fill="#EFEFEF" d="M18.957 8.057C16.12 3.867 9.99 3.574 7.749 4.322c-10.203 3.4-1.583 21.912 3.736 25.403 5.32 3.491 14.31.076 19.039-4.58 4.728-4.654 1.881-11.11-1.854-11.857-2.898-.58-6.876-1.041-9.713-5.23Z"/><path fill="#A4AFC1" fill-rule="evenodd" d="M29.591 9.46a.5.5 0 1 0 0-1 .5.5 0 0 0 0 1Zm0 1a1.5 1.5 0 1 0 0-3 1.5 1.5 0 0 0 0 3Z"/><g fill="#2EDF84" fill-rule="evenodd"><path d="M7 7.75a.75.75 0 0 1 .75.75v8.75H10a.75.75 0 0 1 0 1.5H7.75v8.75a.75.75 0 0 1-1.5 0v-19A.75.75 0 0 1 7 7.75Z"/><path d="M10.95 12.75c-.392 0-.78.106-1.092.317-.308.208-.608.575-.608 1.076v7.714c0 .501.3.868.608 1.076.312.21.7.317 1.092.317h17.1c.392 0 .78-.106 1.092-.317.307-.208.608-.575.608-1.076v-7.714c0-.501-.3-.868-.608-1.076-.312-.21-.7-.317-1.092-.317h-17.1Z"/><path fill="#00B872" d="M9.858 13.067c.312-.21.7-.317 1.092-.317h2.5c-.392 0-.78.106-1.092.317-.308.208-.608.575-.608 1.076v7.714c0 .501.3.868.608 1.076.312.21.7.317 1.092.317h-2.5c-.392 0-.78-.106-1.092-.317-.308-.208-.608-.575-.608-1.076v-7.714c0-.501.3-.868.608-1.076Z"/><path fill="#F3F3F1" d="M11.75 17a.75.75 0 0 1 .75-.75h1.25c.664 0 1.5.457 1.5 1.35 0 .325-.11.592-.284.8l.081.087a.75.75 0 0 1-1.094 1.026l-.528-.563h-.175V19a.75.75 0 0 1-1.5 0v-2Z"/><use fill="#F3F3F1" xlink:href="#a"/><use fill="#F3F3F1" xlink:href="#b"/><path fill="#F3F3F1" d="M24.22 16.305a.75.75 0 0 1 .82.174l.46.478.46-.478a.75.75 0 0 1 1.29.521v2a.75.75 0 0 1-1.5 0v-.256a.75.75 0 0 1-.5 0V19a.75.75 0 0 1-1.5 0v-2a.75.75 0 0 1 .47-.696Z"/><path fill="#000" d="M9.858 13.067c.312-.21.7-.317 1.092-.317h17.1c.392 0 .78.106 1.092.317.307.208.608.575.608 1.076v7.714c0 .501-.3.868-.608 1.076-.312.21-.7.317-1.092.317h-17.1c-.392 0-.78-.106-1.092-.317-.308-.208-.608-.575-.608-1.076v-7.714c0-.501.3-.868.608-1.076Zm.892 1.217v7.432a.559.559 0 0 0 .2.034h17.1a.559.559 0 0 0 .2-.034v-7.432a.559.559 0 0 0-.2-.034h-17.1a.559.559 0 0 0-.2.034Z"/><path fill="#000" d="M7.75 7.75v9.5h3v1.5h-3v9.5h-1.5V7.75h1.5zm4 9.25a.75.75 0 0 1 .75-.75h1.25c.664 0 1.5.457 1.5 1.35 0 .325-.11.592-.284.8l.594.634-1.094 1.026-1.04-1.11h-.176v.8h-1.5V17z"/><use fill="#000" xlink:href="#a"/><use fill="#000" xlink:href="#b"/><path fill="#000" d="M24.22 16.305a.75.75 0 0 1 .82.174l.46.478.46-.478a.75.75 0 0 1 1.29.521v2.75h-1.5v-1.006a.75.75 0 0 1-.5 0v1.006h-1.5V17a.75.75 0 0 1 .47-.696Z"/></g></svg>