<svg xmlns="http://www.w3.org/2000/svg" xmlns:xlink="http://www.w3.org/1999/xlink" viewBox="0 0 36 36" width="36" height="36"><defs><path id="a" d="M14.75 8.5a.75.75 0 0 1 .75-.75h5a.75.75 0 0 1 .75.75v9.256a5.75 5.75 0 1 1-6.5 0V8.5Zm1.5.75v8.919a.75.75 0 0 1-.374.65 4.25 4.25 0 1 0 4.249 0 .75.75 0 0 1-.375-.65V9.25h-3.5Z"/></defs><path fill="#EFEFEF" d="M17.059 26.996c-3.05-3.05-9.15.762-12.2-3.813-6.1-12.963 4.575-19.826 6.862-18.3 2.288 1.524 5.592 0 12.2-1.526 9.913-2.287 6.1 6.863 8.388 14.488 2.288 7.626-1.525 9.15-5.337 12.963-3.813 3.813-6.1 0-9.913-3.812Z"/><path fill="#90A4AD" fill-rule="evenodd" d="M7.164 29.212v2h-1v-2h1zm-2-1h-2v-1h2v1z"/><path fill="#F3F3F1" d="M20.5 8.5h-5v9.669a5 5 0 1 0 5 0V8.5Z"/><g fill="#D6DBE1" fill-rule="evenodd"><path d="M15.5 8.5H17v9.669a5.001 5.001 0 0 0 1.75 9.275 5 5 0 0 1-3.25-9.275V8.5Z"/><path fill="#2EDF84" d="M22.944 23.25H18.29a.347.347 0 0 1-.328-.237 1.847 1.847 0 0 0-1.753-1.263h-3.153a5 5 0 0 0 9.888 1.5Z"/><path fill="#00B872" d="M18.75 27.444a5.001 5.001 0 0 1-4.194-5.694h-1.5a5 5 0 0 0 5.694 5.694Z"/><path fill="#2EDF84" d="M25 14.25a1.75 1.75 0 1 0 0 3.5 1.75 1.75 0 0 0 0-3.5zm-14-5.5a1.75 1.75 0 1 0 0 3.5 1.75 1.75 0 0 0 0-3.5z"/><use fill="#2EDF84" xlink:href="#a"/><use fill="#000" xlink:href="#a"/><path fill="#000" d="M16.21 23.25H13v-1.5h3.21c.794 0 1.5.509 1.751 1.263.048.141.18.237.33.237H22.5v1.5h-4.21c-.794 0-1.5-.509-1.752-1.263a.347.347 0 0 0-.329-.237zm8.79-7.5a.25.25 0 1 0 0 .5.25.25 0 0 0 0-.5zm-1.75.25a1.75 1.75 0 1 1 3.5 0 1.75 1.75 0 0 1-3.5 0zM11 10.25a.25.25 0 1 0 0 .5.25.25 0 0 0 0-.5zm-1.75.25a1.75 1.75 0 1 1 3.5 0 1.75 1.75 0 0 1-3.5 0z"/></g></svg>