<svg xmlns="http://www.w3.org/2000/svg" viewBox="0 0 36 36" width="36" height="36"><path fill="#EFEFEF" d="M32.118 14.23c1.226-3.067-1.022-6.9-2.3-8.433-3.833-4.6-19.932-3.833-23.765 4.6-3.833 8.432-2.3 16.098 4.6 20.698 6.9 4.6 16.099 0 15.332-4.6-.767-4.6 4.6-8.432 6.133-12.265Z"/><path fill="#A4AFC1" fill-rule="evenodd" d="M28.855 31.396a.5.5 0 1 0 0-1 .5.5 0 0 0 0 1Zm0 1a1.5 1.5 0 1 0 0-3 1.5 1.5 0 0 0 0 3Z"/><g fill="#2EDF84" fill-rule="evenodd"><path d="M8.5 7.686a.75.75 0 0 0-.75.75v20c0 .414.336.75.75.75h6a.75.75 0 0 0 .75-.75v-20a.75.75 0 0 0-.75-.75h-6Z"/><path fill="#00B872" d="M7.75 8.436a.75.75 0 0 1 .75-.75H11a.75.75 0 0 0-.75.75v20c0 .414.336.75.75.75H8.5a.75.75 0 0 1-.75-.75v-20Z"/><path d="M17.32 8.829a.75.75 0 0 0-.53.918l5.176 19.319a.75.75 0 0 0 .918.53l5.796-1.553a.75.75 0 0 0 .53-.918L24.034 7.806a.75.75 0 0 0-.919-.53L17.32 8.829Z"/><path fill="#00B872" d="M16.79 9.747a.75.75 0 0 1 .53-.918l5.795-1.553a.75.75 0 0 1 .885.432l-4.18 1.12a.75.75 0 0 0-.53.92l5.176 19.318c.009.034.02.066.033.097l-1.615.433a.75.75 0 0 1-.918-.53L16.789 9.747Z"/><path fill="#F3F3F1" d="M15.25 11.686h-7.5v3.5h7.5v-3.5Z"/><path fill="#D6DBE1" d="M7.75 11.686h2.5v3.5h-2.5v-3.5Z"/><path fill="#F3F3F1" d="M11.5 22.686a.75.75 0 0 1 .75.75v2a.75.75 0 0 1-1.5 0v-2a.75.75 0 0 1 .75-.75zm16.61.333-2.976-11.108-7.245 1.941 2.977 11.109 7.244-1.942z"/><path fill="#D6DBE1" d="M23.198 24.336 20.39 13.852l4.912-1.316-.167-.625-7.245 1.941 2.977 11.109 2.332-.625Z"/><path fill="#F3F3F1" d="M11.5 16.686a.75.75 0 0 1 .75.75v2a.75.75 0 0 1-1.5 0v-2a.75.75 0 0 1 .75-.75Z"/><path fill="#000" d="M7.75 8.436a.75.75 0 0 1 .75-.75h6a.75.75 0 0 1 .75.75v20a.75.75 0 0 1-.75.75h-6a.75.75 0 0 1-.75-.75v-20zm1.5.75v18.5h4.5v-18.5h-4.5zm7.54.561a.75.75 0 0 1 .53-.918l5.795-1.553a.75.75 0 0 1 .919.53l5.176 19.319a.75.75 0 0 1-.53.918l-5.796 1.553a.75.75 0 0 1-.918-.53L16.79 9.747zm1.643.336 4.788 17.87 4.346-1.165-4.788-17.87-4.346 1.165z"/><path fill="#000" d="M7.75 12.436a.75.75 0 0 1 .75-.75h6a.75.75 0 0 1 .75.75v2a.75.75 0 0 1-.75.75h-6a.75.75 0 0 1-.75-.75v-2zm1.5.75v.5h4.5v-.5h-4.5zm3 9.5v3.5h-1.5v-3.5h1.5zm5.64-8.834 7.244-1.94.388 1.448-7.244 1.941-.388-1.449zm2.588 9.66 7.244-1.941.388 1.449-7.244 1.94-.388-1.448zm-8.228-6.826v3.5h-1.5v-3.5h1.5z"/></g></svg>