<?xml version="1.0" encoding="UTF-8"?>
<svg id="Layer_1" data-name="Layer 1" xmlns="http://www.w3.org/2000/svg" viewBox="0 0 755.03 753.86">
  <defs>
    <style>
      .cls-1 {
        opacity: .76;
      }

      .cls-1, .cls-2 {
        fill: #55b5bf;
      }

      .cls-3 {
        fill: #8dc63f;
      }

      .cls-4 {
        fill: #375556;
      }
    </style>
  </defs>
  <g>
    <g>
      <path class="cls-3" d="M102.16,268.23c-.66,18.45-3.55,31.39-6.89,41.96-1.64,5.12-3.41,9.65-5.06,14.05-3.48,9.13-6.63,17.33-8.14,29.68v.07c-6.89,1.97-13.72,4.4-20.55,7.16.39-10.7,1.31-21.21,2.76-31.58.39-2.89.79-5.65,1.31-8.47.07-.72.2-1.44.33-2.17.06-.46.13-.85.26-1.31,5.71-32.11,16.28-62.58,30.93-90.61.46-.98,1.05-1.97,1.58-2.95,2.63,12.41,4.2,26.53,3.48,44.19Z"/>
      <path class="cls-3" d="M171.11,268.23c-.59,16.61-2.95,28.76-5.91,38.74v.07c-1.9,6.43-4.01,11.88-6.04,17.2-2.56,6.83-4.99,13.2-6.7,21.21-3.41-.2-6.96-.33-10.77-.33h-.79c-9.59.07-19.17.79-28.76,2.23,2.17-16.22,6.3-27.18,10.18-37.16.46-1.31.99-2.56,1.44-3.81,3.94-10.64,7.29-20.95,7.94-39.66,1.05-25.35-3.68-40.91-9.19-58.9-1.51-4.86-3.02-9.91-4.46-15.3.98-1.64,2.17-3.22,3.35-4.79,8.27-11.56,17.33-22.46,27.12-32.7.72-.72,1.38-1.38,2.17-2.1,1.51,17.2,5.32,30.01,9.52,43.4,5.97,19.63,12.15,39.92,10.9,71.9Z"/>
      <path class="cls-3" d="M240.12,268.23c-.98,26-6.24,40.97-11.16,53.91-.26.72-.53,1.38-.79,2.1-4.07,10.57-7.62,19.96-8.8,36.11-6.37-1.58-12.34-3.35-18.32-5.12-6.63-2.04-13.26-4.01-20.22-5.65,2.04-16.68,6.11-27.97,9.98-38.08.13-.46.26-.85.46-1.31,4.66-12.15,8.73-22.59,9.45-43.47,1.05-25.35-3.74-40.91-9.19-58.9-5.52-17.73-11.56-37.82-12.02-67.83-.07-4.53,0-9.06.26-13.59,1.44-1.18,2.89-2.36,4.4-3.48,11.36-8.8,23.38-16.88,35.98-24.16,1.05-.59,1.97-1.12,3.09-1.64-3.09,14.18-4.47,28.37-4.33,42.42.26,24.36,5.12,40.12,10.24,56.8,5.97,19.63,12.21,39.92,10.96,71.9Z"/>
      <path class="cls-3" d="M309.06,268.23c-.98,27.38-6.83,42.55-11.95,56.01-4.47,11.62-8.34,21.8-9.06,41.17-4.01.39-8.34.66-12.94.85-9.85.39-18.58.07-26.53-.72.53-16.81,2.95-29.02,5.98-39.07,1.84-6.04,3.81-11.29,5.78-16.28,4.53-12.15,8.6-22.59,9.32-43.47,1.05-25.35-3.68-40.91-9.19-58.9-5.52-17.73-11.56-37.82-11.95-67.83-.2-19.5,2.1-39,6.76-58.5,1.44-.66,2.95-1.31,4.46-1.9,12.35-4.92,24.95-9.13,37.89-12.48,1.18-.26,2.23-.59,3.28-.79-8.86,24.43-13.26,48.98-13,73.21.33,24.36,5.06,40.12,10.24,56.8,5.91,19.63,12.15,39.92,10.9,71.9Z"/>
      <path class="cls-3" d="M378.01,268.23c-.59,16.09-2.82,27.91-5.58,37.69-1.97,6.89-4.27,12.74-6.3,18.32-2.76,7.16-5.32,13.79-6.96,22.39-9.32,1.58-16.55,4.33-24.82,7.35-5.06,1.84-10.38,3.81-16.42,5.58,1.18-20.55,5.45-33.75,9.72-45.04.53-1.51,1.12-2.95,1.64-4.33,4.6-12.15,8.67-22.59,9.39-43.47,1.05-25.35-3.74-40.91-9.26-58.9-5.45-17.73-11.56-37.82-11.95-67.83-.33-26.46,4.01-53.12,12.8-79.52,1.38-.2,2.82-.39,4.2-.59,11.82-1.64,23.77-2.63,36.05-2.82.92-.07,2.04-.07,2.95-.07-11.23,27.51-16.94,55.22-16.61,82.54.33,24.36,5.12,40.12,10.24,56.8,5.97,19.63,12.15,39.92,10.9,71.9Z"/>
      <path class="cls-3" d="M447.02,268.23c-.79,22.13-4.79,36.24-8.99,48-.99,2.76-1.97,5.38-2.96,8.01-3.55,9.13-6.63,17.33-8.21,29.81-11.03-4.2-20.82-7.81-38.61-8.67,2.36-15.1,6.3-25.61,10.05-35.19.46-1.18.85-2.3,1.25-3.48,4.01-10.77,7.42-21.14,8.08-39.99,1.05-25.35-3.74-40.91-9.19-58.9-5.52-17.73-11.56-37.82-11.95-67.83-.33-27.38,4.27-54.96,13.72-82.21,1.31.07,2.49.13,3.81.26,11.29.92,22.39,2.43,33.22,4.53.99.2,1.9.33,2.89.59-9.85,25.48-14.58,51.15-14.25,76.36.33,24.36,5.06,40.12,10.24,56.8,5.91,19.63,12.08,39.92,10.9,71.9Z"/>
      <path class="cls-3" d="M515.96,268.23c-.98,27.38-6.76,42.55-11.95,56.01-.26.79-.59,1.51-.85,2.3-4.07,10.9-7.55,21.08-8.21,39.79-1.18.07-2.36.07-3.61.07-2.56,0-5.25-.07-8.01-.13-10.96-.39-20.03-1.58-27.71-3.22.72-16.74,3.41-28.83,6.63-38.87v-.07c1.58-5.06,3.35-9.59,4.99-13.92,4.6-12.15,8.6-22.59,9.39-43.47.99-25.35-3.81-40.91-9.26-58.9-5.45-17.73-11.56-37.82-11.95-67.83-.26-23.51,3.09-47.15,9.98-70.65,1.25.39,2.5.72,3.74,1.12,10.5,3.15,20.81,6.89,30.99,11.16.85.33,1.71.72,2.49,1.05-5.38,19.04-8.01,38.02-7.81,56.86.33,24.36,5.19,40.12,10.24,56.8,5.91,19.63,12.21,39.92,10.9,71.9Z"/>
      <path class="cls-3" d="M584.97,268.23c-.66,17.66-3.28,30.2-6.43,40.51-1.77,5.71-3.74,10.7-5.58,15.5-3.28,8.67-6.3,16.55-7.88,28.1-3.28.92-6.57,1.97-9.85,2.95-9.59,2.95-19.37,5.91-30.66,8.01.85-18.71,4.01-31.58,7.62-42.29,1.38-3.87,2.76-7.42,4.07-10.83,4.53-12.15,8.6-22.59,9.32-43.47,1.05-25.35-3.68-40.91-9.19-58.9-5.52-17.73-11.56-37.82-12.02-67.83-.2-14.9,1.12-29.88,3.94-44.85,1.25.66,2.43,1.31,3.74,2.04,10.51,5.91,20.75,12.41,30.47,19.5.72.59,1.58,1.12,2.23,1.71-.66,7.09-1.05,14.12-.99,21.14.39,24.36,5.19,40.12,10.31,56.8,5.91,19.63,12.15,39.92,10.9,71.9Z"/>
      <path class="cls-3" d="M653.92,268.23c-.59,17.33-3.22,29.81-6.3,39.99-1.77,5.91-3.81,11.03-5.71,16.02-2.63,7.03-5.12,13.53-6.83,21.87-7.68-.79-15.37-1.18-23.05-.99-6.11.07-11.69.39-16.88.99,2.23-15.5,6.24-26.13,10.05-35.92.53-1.44,1.12-2.89,1.64-4.33,3.81-10.44,7.03-20.75,7.68-39.13,1.05-25.35-3.68-40.91-9.19-58.9-5.32-17.27-11.23-36.84-11.89-65.6,1.51,1.38,2.95,2.76,4.4,4.14,16.42,15.96,31.06,33.68,43.86,52.86,1.44,2.17,2.89,4.4,4.07,6.63,4.99,16.94,9.26,35.52,8.14,62.38Z"/>
      <path class="cls-3" d="M693.51,361.27c-9.98-4.07-20.03-7.42-30.07-9.98,1.84-16.68,5.78-28.04,9.59-38.08.33-1.05.72-2.04,1.12-3.02,2.89-7.68,5.65-14.64,7.42-24.03.79,2.56,1.51,5.19,2.1,7.81,2.04,7.81,3.74,15.69,5.19,23.7.33,1.77.59,3.48.92,5.25.99,6.24,1.77,12.48,2.43,18.78.07.13.07.26.07.39.2,2.36.39,4.73.59,7.09.07.53.07,1.12.07,1.64.26,3.02.39,6.04.53,9.06,0,.46.07.92.07,1.38Z"/>
    </g>
    <g>
      <path class="cls-2" d="M693.45,388.26c0,.33,0,.59-.07.92-.13,2.63-.26,5.25-.53,7.88-.13,1.64-.26,3.28-.39,4.86-.13,2.23-.39,4.4-.66,6.57v.13c-.33,2.95-.66,5.91-1.12,8.86-.53,3.68-1.05,7.35-1.71,10.97-6.11-2.36-12.28-4.4-18.39-6.24-9.78-2.89-19.63-4.99-29.42-6.37-9.72-1.38-19.44-1.97-29.15-1.77-4.53.07-8.8.26-12.8.59h-.07c-9.65.85-17.93,2.43-25.74,4.4-6.24,1.58-12.15,3.35-18.19,5.19-6.43,1.97-12.94,3.94-19.89,5.65-7.81,2.04-16.22,3.68-25.74,4.6-5.65.59-11.62.92-18.19.92-2.63,0-5.32-.07-8.08-.2-5.65-.2-10.77-.66-15.43-1.18-12.15-1.51-21.47-4.01-29.55-6.76-3.94-1.31-7.55-2.69-11.03-4.01-10.31-3.94-19.5-7.42-35.06-8.67v-.07c-3.02-.2-6.3-.33-9.85-.39-6.76-.13-12.48.07-17.53.66-12.28,1.31-20.62,4.46-30.53,8.14-2.43.85-4.86,1.77-7.42,2.69-7.09,2.5-15.04,4.99-24.82,6.76-7.68,1.44-16.55,2.5-26.99,2.82-4.79.2-9.32.2-13.66.07-10.64-.26-19.89-1.38-28.37-2.89-11.82-2.17-22-5.19-32.04-8.21-4.66-1.38-9.19-2.76-13.92-4.01-8.86-2.36-18.19-4.33-29.15-5.38-4.99-.46-10.37-.72-16.28-.72h-.79c-8.08.07-16.09.59-24.16,1.64-8.54.99-17.14,2.56-25.61,4.73-8.4,2.1-16.74,4.73-25.02,7.88h-.07c-.13-.59-.2-1.12-.26-1.71-.13-.53-.2-1.12-.26-1.64-.2-1.12-.39-2.23-.53-3.35-.33-1.9-.66-3.94-.85-5.84-.2-1.05-.33-2.04-.39-3.09-.2-1.58-.39-3.09-.53-4.66-.13-.46-.2-.99-.2-1.51-.26-1.97-.39-3.94-.59-5.91-.07-.79-.13-1.58-.2-2.36-.26-3.35-.53-6.76-.66-10.18,6.57-2.23,13.2-4.14,19.83-5.84,9.65-2.43,19.44-4.27,29.22-5.52,9.98-1.31,20.03-1.97,30.14-2.04h.92c2.89,0,5.65.07,8.34.13,11.16.46,20.88,1.64,29.68,3.28,12.34,2.3,22.78,5.45,32.57,8.34,2.63.79,5.12,1.51,7.68,2.23v.07c9.65,2.76,19.04,5.12,30.14,6.37,7.09.79,14.77,1.12,23.64.79,6.11-.2,11.43-.72,16.15-1.38,11.62-1.71,19.96-4.53,28.3-7.62.85-.33,1.71-.59,2.56-.92,10.05-3.68,20.88-7.68,36.25-9.78,7.49-.99,16.02-1.58,26.07-1.44,1.18,0,2.36.07,3.48.07,17.2.53,29.48,3.15,39.66,6.24,5.52,1.71,10.44,3.61,15.17,5.38,5.06,1.97,9.85,3.74,15.23,5.25,7.49,2.17,16.09,3.74,28.23,4.2,4.33.2,8.4.2,12.28,0,10.83-.39,19.89-1.97,28.5-4.14,6.04-1.44,11.95-3.28,18.12-5.19,6.37-1.9,13-3.94,20.36-5.78,8.67-2.17,18.25-4.07,29.35-5.12,5.65-.53,11.62-.92,18.12-.99,7.03-.07,14.12.26,21.27.85,9.91.79,19.83,2.23,29.74,4.27,10.31,2.17,20.55,4.92,30.79,8.47h.07Z"/>
      <path class="cls-2" d="M683.33,453.98c-.07.2-.13.39-.2.59-.39,1.64-.85,3.22-1.31,4.86-3.02,10.83-6.7,21.47-10.83,31.85-5.65-1.64-11.36-3.09-17.01-4.2v-.07c-13.13-2.69-26.33-4.07-39.4-4.01-.85,0-1.71.07-2.56.07-10.24.13-18.98.99-26.92,2.43-10.9,1.9-20.22,4.79-29.88,7.75-3.28.99-6.5,1.97-9.91,2.95-9.13,2.63-18.84,5.12-30.07,6.57-7.22.99-15.1,1.58-23.9,1.58-2.56,0-5.25-.07-8.01-.13-2.69-.13-5.25-.26-7.75-.46-11.75-.92-21.01-2.76-28.96-4.92-7.29-2.04-13.53-4.4-19.3-6.63-6.37-2.43-12.28-4.73-19.57-6.37-6.83-1.58-14.77-2.63-25.35-2.76-1.51,0-2.95-.07-4.27-.07-17.99.13-28.23,3.22-39.46,7.35-1.38.46-2.82,1.05-4.33,1.58-7.55,2.76-15.56,5.71-25.74,8.01v.07c-9.06,2.1-19.89,3.68-33.49,4.2-2.23.13-4.4.13-6.57.13-10.96.13-20.49-.66-29.15-1.97-14.51-2.17-26.53-5.71-38.35-9.26-.13-.07-.26-.07-.39-.13-9.52-2.82-18.78-5.52-29.42-7.42-8.67-1.58-18.19-2.5-29.55-2.5h-.79c-3.02,0-6.04.07-9.06.26-9.85.46-19.7,1.64-29.48,3.61-6.11,1.12-12.21,2.63-18.25,4.33-4.92-12.15-9.06-24.62-12.41-37.43,9.06-2.63,18.12-4.79,27.25-6.43,9.13-1.58,18.32-2.69,27.51-3.22,4.73-.33,9.52-.53,14.31-.53h.92c9.52,0,18.06.59,25.81,1.58,11.23,1.31,20.95,3.48,29.81,5.84,5.25,1.38,10.18,2.82,14.97,4.27,9.06,2.69,17.53,5.25,26.86,7.03,8.73,1.64,18.19,2.69,29.61,2.5,1.64,0,3.28,0,4.99-.07,14.84-.53,25.08-2.63,34.01-5.32v-.07c4.53-1.31,8.73-2.89,13-4.46,4.47-1.64,9.13-3.35,14.31-4.92,10.24-3.15,22.46-5.71,39-6.24,2.89-.13,5.84-.2,8.99-.13,7.35.13,13.79.59,19.63,1.38,17.01,2.1,28.37,6.43,38.68,10.37,1.38.53,2.76,1.05,4.07,1.58,8.67,3.15,17.14,5.91,30.14,7.16,2.82.33,5.91.53,9.26.66,11.75.46,21.41-.26,30.21-1.84,9.91-1.71,18.78-4.4,28.17-7.22v-.07c.2,0,.33-.07.52-.13,11.03-3.41,22.98-7.03,37.76-9.46,8.21-1.25,17.34-2.17,27.58-2.36.79-.07,1.64-.07,2.5-.07,12.94-.13,25.94.79,39,2.89,9.98,1.51,20.03,3.74,30.01,6.63.92.26,1.77.53,2.69.79h.07Z"/>
      <path class="cls-2" d="M659.24,517.08c-4.14,8.01-8.6,15.82-13.4,23.38v.07c0,.07-.07.07-.07.13-.39.59-.79,1.25-1.18,1.84-.46.72-.85,1.38-1.31,2.04-.85,1.31-1.71,2.63-2.63,3.94-1.05,1.64-2.17,3.22-3.28,4.86-8.47-1.05-16.94-1.44-25.34-1.31-3.74.07-7.29.2-10.7.46-11.29.79-20.68,2.63-29.48,4.92-5.71,1.44-11.1,3.09-16.61,4.79-8.54,2.63-17.2,5.32-26.99,7.35-8.73,1.84-18.32,3.22-29.48,3.68-2.36.07-4.86.13-7.35.13-2.63,0-5.32-.07-8.08-.2-9.39-.33-17.33-1.25-24.23-2.56-10.83-1.9-19.17-4.66-26.72-7.49-1.71-.66-3.41-1.25-5.06-1.9-9.85-3.74-18.65-7.16-32.96-8.47-3.61-.33-7.55-.59-11.95-.66-6.11-.13-11.29.07-15.96.46v.07c-13.13,1.18-21.8,4.46-32.11,8.27-3.81,1.38-7.75,2.82-12.02,4.27-8.27,2.69-17.86,5.19-30.14,6.7-5.19.59-10.83,1.12-17.07,1.31-8.54.33-16.22.13-23.31-.39-10.31-.85-19.37-2.36-27.77-4.33-8.08-1.9-15.56-4.07-22.98-6.3-4.99-1.51-9.91-2.95-14.97-4.33-8.21-2.1-16.74-3.87-26.72-4.92-5.38-.53-11.23-.85-17.66-.85h-.79c-7.55.07-15.04.53-22.59,1.38-.2,0-.39.07-.59.07-7.03-10.05-13.4-20.49-19.11-31.32-.33-.59-.66-1.18-.99-1.77-.66-1.12-1.25-2.23-1.84-3.35h.13c1.25-.26,2.5-.53,3.74-.66,9.85-1.77,19.7-2.89,29.55-3.41,3.87-.2,7.68-.33,11.56-.33h.92c10.11,0,19.11.66,27.25,1.77,10.37,1.31,19.44,3.28,27.71,5.52,5.52,1.44,10.64,2.95,15.63,4.47,7.55,2.3,14.77,4.4,22.33,6.11,8.27,1.77,16.94,3.09,27.25,3.35,3.74.2,7.68.13,11.89,0,12.74-.46,22.13-2.1,30.14-4.33,6.11-1.58,11.36-3.55,16.87-5.58,4.47-1.64,9.06-3.35,14.12-4.92,10.64-3.22,23.44-5.91,41.24-6.24,2.23-.07,4.53-.07,6.96-.07,8.21.13,15.37.66,21.73,1.58,15.82,2.23,26.66,6.37,36.57,10.11.46.2.98.39,1.44.53v.07c8.14,3.09,15.69,5.78,26.4,7.42,4.53.66,9.65,1.18,15.63,1.44,9.52.39,17.73-.07,25.15-1.05,10.96-1.51,20.29-4.14,30.14-7.16v-.07c1.18-.33,2.43-.66,3.61-1.05,11.36-3.41,23.64-7.22,38.94-9.52,8.6-1.38,18.12-2.3,28.89-2.36h.53c13.07-.07,26.26.92,39.46,3.09,2.56.39,5.12.85,7.68,1.38Z"/>
      <path class="cls-2" d="M615.38,581.56c-3.15,3.55-6.37,7.09-9.59,10.51-2.36,2.43-4.73,4.79-7.16,7.16l-1.25,1.25c-1.38,1.18-2.63,2.43-3.94,3.61v-.07c-9.13,8.54-18.71,16.68-28.76,24.03-.2.13-.46.33-.66.46,0,0-.07,0-.07.07-2.95.85-5.84,1.71-8.73,2.63-9.13,2.76-18.45,5.65-29.02,7.75-8.54,1.71-17.93,2.89-28.69,3.22-2.04.13-4.07.13-6.17.13-2.56,0-5.25-.07-8.01-.13-10.24-.39-18.78-1.44-26.07-2.89-12.41-2.43-21.47-5.91-29.94-9.13-.13-.07-.33-.13-.46-.2-11.29-4.33-21.34-8.08-40.12-8.8-1.38-.07-2.82-.13-4.33-.13-10.31-.2-18.25.53-25.08,1.84-8.47,1.64-15.3,4.14-22.98,7.03-4.79,1.77-9.85,3.61-15.5,5.32-7.88,2.43-17.01,4.53-28.43,5.84-4.73.53-9.78.92-15.3,1.12-9,.33-17.07.07-24.49-.53-11.23-.99-20.88-2.82-29.81-5.06-6.89-1.71-13.4-3.61-19.76-5.52-3.68-1.12-7.29-2.23-11.03-3.28h-.07c-3.48-2.56-6.83-5.12-10.18-7.88-10.57-8.34-20.49-17.4-29.81-27.12l-.39-.39c-3.35-3.55-6.63-7.16-9.85-10.83h1.97c3.68,0,7.22.07,10.57.26,10.77.53,20.16,1.77,28.69,3.41,11.82,2.23,21.87,5.25,31.32,8.08,2.43.72,4.86,1.44,7.22,2.17,9.39,2.69,18.52,5.06,29.15,6.3,7.42.92,15.63,1.31,25.08.99,5.32-.2,10.11-.59,14.38-1.18,12.41-1.58,21.14-4.46,29.88-7.68.92-.39,1.84-.72,2.76-1.05,10.38-3.81,21.87-7.95,38.22-9.98,7.03-.85,14.97-1.38,24.1-1.25,1.77,0,3.55.07,5.25.13,16.81.72,28.89,3.35,38.87,6.5,5.12,1.64,9.72,3.41,14.18,5.12,4.79,1.84,9.32,3.55,14.31,4.99,7.68,2.3,16.55,3.94,29.15,4.4,3.55.13,6.96.13,10.11.07,11.43-.26,20.81-1.77,29.68-3.87,6.43-1.58,12.61-3.48,19.11-5.45,6.7-2.1,13.72-4.2,21.47-6.17,8.8-2.1,18.58-3.94,29.94-4.92,5.12-.46,10.57-.79,16.42-.85h3.81Z"/>
      <path class="cls-2" d="M482.41,671.59c-5.78,2.04-11.62,3.94-17.53,5.58-8.34,2.43-16.87,4.53-25.48,6.17-5.19,1.05-10.44,1.97-15.69,2.76-1.84.26-3.68.53-5.52.72-2.17.33-4.4.59-6.63.79-4.07.46-8.14.79-12.21,1.05-7.22.53-14.51.79-21.87.79-1.58,0-3.22,0-4.79-.07-.72,0-1.51,0-2.23-.07-2.89-.07-5.78-.13-8.67-.26-2.04-.07-4.07-.2-6.11-.39-1.77-.07-3.55-.2-5.32-.39-2.36-.2-4.73-.39-7.03-.66-2.96-.33-5.91-.72-8.86-1.12-1.38-.2-2.76-.39-4.07-.53-.26-.07-.53-.07-.79-.13-9.98-1.51-19.83-3.55-29.48-5.98-4.99-1.25-9.91-2.63-14.77-4.14-4.14-1.25-8.14-2.63-12.21-4.01h.59c9.19-.33,16.61-1.25,22.98-2.56,9.32-1.9,16.55-4.53,24.03-7.29.79-.26,1.51-.59,2.3-.79,10.31-3.87,21.8-7.75,38.21-9.52,6.43-.72,13.66-1.05,21.8-.99,2.36,0,4.66.13,6.83.2,18.65.98,31.39,4.33,41.96,8.01,3.35,1.18,6.43,2.36,9.52,3.55,6.96,2.63,13.33,5.06,21.41,6.76,5.51,1.25,11.82,2.1,19.63,2.5Z"/>
      <path class="cls-1" d="M482.41,671.59c-5.78,2.04-11.62,3.94-17.53,5.58-8.34,2.43-16.87,4.53-25.48,6.17-5.19,1.05-10.44,1.97-15.69,2.76-1.84.26-3.68.53-5.52.72-2.17.33-4.4.59-6.63.79-4.07.46-8.14.79-12.21,1.05-7.22.53-14.51.79-21.87.79-1.58,0-3.22,0-4.79-.07-.72,0-1.51,0-2.23-.07-2.89-.07-5.78-.13-8.67-.26-2.04-.07-4.07-.2-6.11-.39-1.77-.07-3.55-.2-5.32-.39-2.36-.2-4.73-.39-7.03-.66-2.96-.33-5.91-.72-8.86-1.12-1.38-.2-2.76-.39-4.07-.53-.26-.07-.53-.07-.79-.13-9.98-1.51-19.83-3.55-29.48-5.98-4.99-1.25-9.91-2.63-14.77-4.14-4.14-1.25-8.14-2.63-12.21-4.01h.59c9.19-.33,16.61-1.25,22.98-2.56,9.32-1.9,16.55-4.53,24.03-7.29.79-.26,1.51-.59,2.3-.79,10.31-3.87,21.8-7.75,38.21-9.52,6.43-.72,13.66-1.05,21.8-.99,2.36,0,4.66.13,6.83.2,18.65.98,31.39,4.33,41.96,8.01,3.35,1.18,6.43,2.36,9.52,3.55,6.96,2.63,13.33,5.06,21.41,6.76,5.51,1.25,11.82,2.1,19.63,2.5Z"/>
      <path class="cls-1" d="M615.38,581.56c-3.15,3.55-6.37,7.09-9.59,10.51-2.36,2.43-4.73,4.79-7.16,7.16l-1.25,1.25c-1.38,1.18-2.63,2.43-3.94,3.61v-.07c-9.13,8.54-18.71,16.68-28.76,24.03-.2.13-.46.33-.66.46,0,0-.07,0-.07.07-2.95.85-5.84,1.71-8.73,2.63-9.13,2.76-18.45,5.65-29.02,7.75-8.54,1.71-17.93,2.89-28.69,3.22-2.04.13-4.07.13-6.17.13-2.56,0-5.25-.07-8.01-.13-10.24-.39-18.78-1.44-26.07-2.89-12.41-2.43-21.47-5.91-29.94-9.13-.13-.07-.33-.13-.46-.2-11.29-4.33-21.34-8.08-40.12-8.8-1.38-.07-2.82-.13-4.33-.13-10.31-.2-18.25.53-25.08,1.84-8.47,1.64-15.3,4.14-22.98,7.03-4.79,1.77-9.85,3.61-15.5,5.32-7.88,2.43-17.01,4.53-28.43,5.84-4.73.53-9.78.92-15.3,1.12-9,.33-17.07.07-24.49-.53-11.23-.99-20.88-2.82-29.81-5.06-6.89-1.71-13.4-3.61-19.76-5.52-3.68-1.12-7.29-2.23-11.03-3.28h-.07c-3.48-2.56-6.83-5.12-10.18-7.88-10.57-8.34-20.49-17.4-29.81-27.12l-.39-.39c-3.35-3.55-6.63-7.16-9.85-10.83h1.97c3.68,0,7.22.07,10.57.26,10.77.53,20.16,1.77,28.69,3.41,11.82,2.23,21.87,5.25,31.32,8.08,2.43.72,4.86,1.44,7.22,2.17,9.39,2.69,18.52,5.06,29.15,6.3,7.42.92,15.63,1.31,25.08.99,5.32-.2,10.11-.59,14.38-1.18,12.41-1.58,21.14-4.46,29.88-7.68.92-.39,1.84-.72,2.76-1.05,10.38-3.81,21.87-7.95,38.22-9.98,7.03-.85,14.97-1.38,24.1-1.25,1.77,0,3.55.07,5.25.13,16.81.72,28.89,3.35,38.87,6.5,5.12,1.64,9.72,3.41,14.18,5.12,4.79,1.84,9.32,3.55,14.31,4.99,7.68,2.3,16.55,3.94,29.15,4.4,3.55.13,6.96.13,10.11.07,11.43-.26,20.81-1.77,29.68-3.87,6.43-1.58,12.61-3.48,19.11-5.45,6.7-2.1,13.72-4.2,21.47-6.17,8.8-2.1,18.58-3.94,29.94-4.92,5.12-.46,10.57-.79,16.42-.85h3.81Z"/>
      <path class="cls-1" d="M659.24,517.08c-4.14,8.01-8.6,15.82-13.4,23.38v.07c0,.07-.07.07-.07.13-.39.59-.79,1.25-1.18,1.84-.46.72-.85,1.38-1.31,2.04-.85,1.31-1.71,2.63-2.63,3.94-1.05,1.64-2.17,3.22-3.28,4.86-8.47-1.05-16.94-1.44-25.34-1.31-3.74.07-7.29.2-10.7.46-11.29.79-20.68,2.63-29.48,4.92-5.71,1.44-11.1,3.09-16.61,4.79-8.54,2.63-17.2,5.32-26.99,7.35-8.73,1.84-18.32,3.22-29.48,3.68-2.36.07-4.86.13-7.35.13-2.63,0-5.32-.07-8.08-.2-9.39-.33-17.33-1.25-24.23-2.56-10.83-1.9-19.17-4.66-26.72-7.49-1.71-.66-3.41-1.25-5.06-1.9-9.85-3.74-18.65-7.16-32.96-8.47-3.61-.33-7.55-.59-11.95-.66-6.11-.13-11.29.07-15.96.46v.07c-13.13,1.18-21.8,4.46-32.11,8.27-3.81,1.38-7.75,2.82-12.02,4.27-8.27,2.69-17.86,5.19-30.14,6.7-5.19.59-10.83,1.12-17.07,1.31-8.54.33-16.22.13-23.31-.39-10.31-.85-19.37-2.36-27.77-4.33-8.08-1.9-15.56-4.07-22.98-6.3-4.99-1.51-9.91-2.95-14.97-4.33-8.21-2.1-16.74-3.87-26.72-4.92-5.38-.53-11.23-.85-17.66-.85h-.79c-7.55.07-15.04.53-22.59,1.38-.2,0-.39.07-.59.07-7.03-10.05-13.4-20.49-19.11-31.32-.33-.59-.66-1.18-.99-1.77-.66-1.12-1.25-2.23-1.84-3.35h.13c1.25-.26,2.5-.53,3.74-.66,9.85-1.77,19.7-2.89,29.55-3.41,3.87-.2,7.68-.33,11.56-.33h.92c10.11,0,19.11.66,27.25,1.77,10.37,1.31,19.44,3.28,27.71,5.52,5.52,1.44,10.64,2.95,15.63,4.47,7.55,2.3,14.77,4.4,22.33,6.11,8.27,1.77,16.94,3.09,27.25,3.35,3.74.2,7.68.13,11.89,0,12.74-.46,22.13-2.1,30.14-4.33,6.11-1.58,11.36-3.55,16.87-5.58,4.47-1.64,9.06-3.35,14.12-4.92,10.64-3.22,23.44-5.91,41.24-6.24,2.23-.07,4.53-.07,6.96-.07,8.21.13,15.37.66,21.73,1.58,15.82,2.23,26.66,6.37,36.57,10.11.46.2.98.39,1.44.53v.07c8.14,3.09,15.69,5.78,26.4,7.42,4.53.66,9.65,1.18,15.63,1.44,9.52.39,17.73-.07,25.15-1.05,10.96-1.51,20.29-4.14,30.14-7.16v-.07c1.18-.33,2.43-.66,3.61-1.05,11.36-3.41,23.64-7.22,38.94-9.52,8.6-1.38,18.12-2.3,28.89-2.36h.53c13.07-.07,26.26.92,39.46,3.09,2.56.39,5.12.85,7.68,1.38Z"/>
      <path class="cls-1" d="M683.33,453.98c-.07.2-.13.39-.2.59-.39,1.64-.85,3.22-1.31,4.86-3.02,10.83-6.7,21.47-10.83,31.85-5.65-1.64-11.36-3.09-17.01-4.2v-.07c-13.13-2.69-26.33-4.07-39.4-4.01-.85,0-1.71.07-2.56.07-10.24.13-18.98.99-26.92,2.43-10.9,1.9-20.22,4.79-29.88,7.75-3.28.99-6.5,1.97-9.91,2.95-9.13,2.63-18.84,5.12-30.07,6.57-7.22.99-15.1,1.58-23.9,1.58-2.56,0-5.25-.07-8.01-.13-2.69-.13-5.25-.26-7.75-.46-11.75-.92-21.01-2.76-28.96-4.92-7.29-2.04-13.53-4.4-19.3-6.63-6.37-2.43-12.28-4.73-19.57-6.37-6.83-1.58-14.77-2.63-25.35-2.76-1.51,0-2.95-.07-4.27-.07-17.99.13-28.23,3.22-39.46,7.35-1.38.46-2.82,1.05-4.33,1.58-7.55,2.76-15.56,5.71-25.74,8.01v.07c-9.06,2.1-19.89,3.68-33.49,4.2-2.23.13-4.4.13-6.57.13-10.96.13-20.49-.66-29.15-1.97-14.51-2.17-26.53-5.71-38.35-9.26-.13-.07-.26-.07-.39-.13-9.52-2.82-18.78-5.52-29.42-7.42-8.67-1.58-18.19-2.5-29.55-2.5h-.79c-3.02,0-6.04.07-9.06.26-9.85.46-19.7,1.64-29.48,3.61-6.11,1.12-12.21,2.63-18.25,4.33-4.92-12.15-9.06-24.62-12.41-37.43,9.06-2.63,18.12-4.79,27.25-6.43,9.13-1.58,18.32-2.69,27.51-3.22,4.73-.33,9.52-.53,14.31-.53h.92c9.52,0,18.06.59,25.81,1.58,11.23,1.31,20.95,3.48,29.81,5.84,5.25,1.38,10.18,2.82,14.97,4.27,9.06,2.69,17.53,5.25,26.86,7.03,8.73,1.64,18.19,2.69,29.61,2.5,1.64,0,3.28,0,4.99-.07,14.84-.53,25.08-2.63,34.01-5.32v-.07c4.53-1.31,8.73-2.89,13-4.46,4.47-1.64,9.13-3.35,14.31-4.92,10.24-3.15,22.46-5.71,39-6.24,2.89-.13,5.84-.2,8.99-.13,7.35.13,13.79.59,19.63,1.38,17.01,2.1,28.37,6.43,38.68,10.37,1.38.53,2.76,1.05,4.07,1.58,8.67,3.15,17.14,5.91,30.14,7.16,2.82.33,5.91.53,9.26.66,11.75.46,21.41-.26,30.21-1.84,9.91-1.71,18.78-4.4,28.17-7.22v-.07c.2,0,.33-.07.52-.13,11.03-3.41,22.98-7.03,37.76-9.46,8.21-1.25,17.34-2.17,27.58-2.36.79-.07,1.64-.07,2.5-.07,12.94-.13,25.94.79,39,2.89,9.98,1.51,20.03,3.74,30.01,6.63.92.26,1.77.53,2.69.79h.07Z"/>
      <path class="cls-1" d="M693.45,388.26c0,.33,0,.59-.07.92-.13,2.63-.26,5.25-.53,7.88-.13,1.64-.26,3.28-.39,4.86-.13,2.23-.39,4.4-.66,6.57v.13c-.33,2.95-.66,5.91-1.12,8.86-.53,3.68-1.05,7.35-1.71,10.97-6.11-2.36-12.28-4.4-18.39-6.24-9.78-2.89-19.63-4.99-29.42-6.37-9.72-1.38-19.44-1.97-29.15-1.77-4.53.07-8.8.26-12.8.59h-.07c-9.65.85-17.93,2.43-25.74,4.4-6.24,1.58-12.15,3.35-18.19,5.19-6.43,1.97-12.94,3.94-19.89,5.65-7.81,2.04-16.22,3.68-25.74,4.6-5.65.59-11.62.92-18.19.92-2.63,0-5.32-.07-8.08-.2-5.65-.2-10.77-.66-15.43-1.18-12.15-1.51-21.47-4.01-29.55-6.76-3.94-1.31-7.55-2.69-11.03-4.01-10.31-3.94-19.5-7.42-35.06-8.67v-.07c-3.02-.2-6.3-.33-9.85-.39-6.76-.13-12.48.07-17.53.66-12.28,1.31-20.62,4.46-30.53,8.14-2.43.85-4.86,1.77-7.42,2.69-7.09,2.5-15.04,4.99-24.82,6.76-7.68,1.44-16.55,2.5-26.99,2.82-4.79.2-9.32.2-13.66.07-10.64-.26-19.89-1.38-28.37-2.89-11.82-2.17-22-5.19-32.04-8.21-4.66-1.38-9.19-2.76-13.92-4.01-8.86-2.36-18.19-4.33-29.15-5.38-4.99-.46-10.37-.72-16.28-.72h-.79c-8.08.07-16.09.59-24.16,1.64-8.54.99-17.14,2.56-25.61,4.73-8.4,2.1-16.74,4.73-25.02,7.88h-.07c-.13-.59-.2-1.12-.26-1.71-.13-.53-.2-1.12-.26-1.64-.2-1.12-.39-2.23-.53-3.35-.33-1.9-.66-3.94-.85-5.84-.2-1.05-.33-2.04-.39-3.09-.2-1.58-.39-3.09-.53-4.66-.13-.46-.2-.99-.2-1.51-.26-1.97-.39-3.94-.59-5.91-.07-.79-.13-1.58-.2-2.36-.26-3.35-.53-6.76-.66-10.18,6.57-2.23,13.2-4.14,19.83-5.84,9.65-2.43,19.44-4.27,29.22-5.52,9.98-1.31,20.03-1.97,30.14-2.04h.92c2.89,0,5.65.07,8.34.13,11.16.46,20.88,1.64,29.68,3.28,12.34,2.3,22.78,5.45,32.57,8.34,2.63.79,5.12,1.51,7.68,2.23v.07c9.65,2.76,19.04,5.12,30.14,6.37,7.09.79,14.77,1.12,23.64.79,6.11-.2,11.43-.72,16.15-1.38,11.62-1.71,19.96-4.53,28.3-7.62.85-.33,1.71-.59,2.56-.92,10.05-3.68,20.88-7.68,36.25-9.78,7.49-.99,16.02-1.58,26.07-1.44,1.18,0,2.36.07,3.48.07,17.2.53,29.48,3.15,39.66,6.24,5.52,1.71,10.44,3.61,15.17,5.38,5.06,1.97,9.85,3.74,15.23,5.25,7.49,2.17,16.09,3.74,28.23,4.2,4.33.2,8.4.2,12.28,0,10.83-.39,19.89-1.97,28.5-4.14,6.04-1.44,11.95-3.28,18.12-5.19,6.37-1.9,13-3.94,20.36-5.78,8.67-2.17,18.25-4.07,29.35-5.12,5.65-.53,11.62-.92,18.12-.99,7.03-.07,14.12.26,21.27.85,9.91.79,19.83,2.23,29.74,4.27,10.31,2.17,20.55,4.92,30.79,8.47h.07Z"/>
    </g>
  </g>
  <g>
    <g>
      <path class="cls-4" d="M.36,441.35c-.31-1.73-.43-3.45-.33-5.18.09-1.73.46-3.34,1.1-4.83.64-1.49,1.59-2.77,2.84-3.84,1.26-1.07,2.87-1.78,4.85-2.14l1.38,7.55c-.18.03-.42.12-.73.27-.31.15-.63.4-.97.76-.35.36-.65.83-.92,1.39s-.44,1.3-.52,2.19c-.08.89,0,1.94.22,3.17.09.5.22,1.03.37,1.58.15.55.36,1.04.6,1.48.25.44.56.77.94,1,.37.23.83.29,1.37.19.76-.14,1.29-.6,1.59-1.38.31-.78.49-1.76.55-2.94.06-1.18.11-2.47.16-3.88s.16-2.81.35-4.22c.19-1.41.55-2.73,1.09-3.96.54-1.23,1.34-2.25,2.4-3.06,1.06-.81,2.48-1.32,4.26-1.53,1.79-.18,3.41.16,4.87,1.01,1.46.85,2.71,2.2,3.75,4.06,1.04,1.85,1.82,4.17,2.33,6.94.4,2.23.39,4.4-.04,6.5-.43,2.1-1.35,3.92-2.74,5.46-1.39,1.54-3.33,2.53-5.82,2.98l-1.33-7.28c.83-.15,1.46-.49,1.91-1.02.44-.53.74-1.16.88-1.89.15-.73.19-1.48.15-2.26-.05-.77-.13-1.46-.24-2.07-.24-1.33-.61-2.41-1.09-3.23-.49-.82-1.2-1.15-2.13-.98-.83.15-1.4.63-1.72,1.43-.32.8-.51,1.8-.57,3-.06,1.2-.1,2.52-.12,3.95-.02,1.43-.1,2.87-.25,4.31-.15,1.44-.47,2.77-.97,4-.5,1.22-1.27,2.26-2.31,3.1-1.04.84-2.47,1.35-4.29,1.54-1.78.21-3.4-.15-4.85-1.1-1.45-.94-2.7-2.35-3.73-4.23-1.03-1.88-1.79-4.16-2.28-6.86Z"/>
      <path class="cls-4" d="M14.99,498.07c-1.51-4.36-1.49-8.05.03-11.07,1.53-3.02,4.38-5.26,8.56-6.7l16.75-5.79,2.69,7.78-16.69,5.77c-1.45.5-2.53,1.09-3.25,1.76s-1.18,1.37-1.4,2.08c-.22.71-.28,1.4-.18,2.07.09.66.23,1.24.39,1.72.27.79.68,1.57,1.21,2.34.54.76,1.35,1.28,2.46,1.56,1.1.28,2.62.08,4.56-.59l16.69-5.77,2.69,7.78-16.75,5.79c-4.25,1.47-7.89,1.5-10.91.09-3.02-1.41-5.3-4.35-6.84-8.81Z"/>
      <path class="cls-4" d="M32.64,539.35l27.31-14.42,3.56,6.74-27.31,14.42-3.56-6.74ZM42.27,557.58l9.08-16.4,7.39,2.36-11.77,21.41-.63.33-4.07-7.71ZM44.35,541.66l7.42-3.92,16.92,3.72,4.66,8.83-.63.33-28.37-8.96Z"/>
      <path class="cls-4" d="M69.15,600.67c-3.05-4.11-4.22-8.12-3.5-12.02.72-3.91,3.06-7.33,7.03-10.27,2.61-1.94,5.23-3.15,7.85-3.64,2.62-.49,5.16-.19,7.63.89,2.47,1.08,4.75,3.03,6.84,5.85,3.05,4.11,4.21,8.1,3.46,11.98-.74,3.87-3.08,7.27-7.01,10.2-2.56,1.9-5.16,3.09-7.82,3.59-2.66.5-5.23.21-7.7-.84-2.47-1.06-4.73-2.97-6.78-5.73ZM75.03,596.17c1.11,1.5,2.35,2.5,3.71,3.02,1.36.51,2.76.62,4.19.3,1.43-.31,2.78-.93,4.04-1.87,1.29-.96,2.3-2.08,3.03-3.37.73-1.29,1.05-2.67.96-4.13-.09-1.46-.68-2.94-1.79-4.44-1.59-2.14-3.48-3.28-5.68-3.41-2.19-.13-4.31.57-6.36,2.1-1.24.91-2.21,2.01-2.92,3.29-.71,1.28-1.03,2.65-.96,4.09.07,1.45.67,2.92,1.78,4.42Z"/>
      <path class="cls-4" d="M107.75,645.2c-3.65-3.6-5.41-7.38-5.29-11.35.11-3.97,1.91-7.71,5.37-11.23,2.29-2.32,4.69-3.92,7.2-4.8,2.52-.88,5.08-.98,7.68-.28,2.6.69,5.15,2.27,7.65,4.74,3.64,3.6,5.39,7.37,5.25,11.31-.14,3.94-1.93,7.66-5.37,11.15-2.24,2.27-4.63,3.84-7.19,4.74-2.55.9-5.13,1.01-7.74.34-2.6-.67-5.13-2.21-7.57-4.62ZM112.87,639.85c1.33,1.31,2.7,2.12,4.13,2.42,1.42.3,2.82.19,4.18-.34,1.37-.53,2.6-1.35,3.71-2.47,1.13-1.14,1.96-2.41,2.48-3.8.52-1.39.63-2.8.32-4.23s-1.12-2.8-2.45-4.11c-1.9-1.88-3.94-2.71-6.12-2.5-2.19.21-4.17,1.22-5.97,3.05-1.08,1.09-1.87,2.33-2.38,3.7-.51,1.37-.62,2.77-.32,4.19.29,1.42,1.1,2.79,2.43,4.1Z"/>
      <path class="cls-4" d="M176.93,661.73l6.5,4.68-18.04,25.07-11.93-8.58,11.41-25.72-.09-.06-16.08,22.35-6.46-4.65,18.04-25.07,11.04,7.95-10.56,26.32.09.06,16.08-22.35Z"/>
      <path class="cls-4" d="M223.82,723.14l11.58-28.63,19.17,7.76-1.17,2.9-15.96-6.46-3.99,9.87,12.66,5.12-1.11,2.75-12.66-5.12-4.2,10.37,16.48,6.67-1.11,2.75-19.68-7.96Z"/>
      <path class="cls-4" d="M297.4,740.55c-2.03,1.81-4.5,2.81-7.41,3-2.91.18-6.17-.17-9.79-1.07-.57-.14-1.46-.36-2.69-.66-1.22-.3-2.97-.74-5.25-1.3l7.41-29.98c2.41.6,4.21,1.04,5.41,1.34,1.19.29,2.03.5,2.53.63,3.62.89,6.64,2.23,9.06,4.02,2.42,1.79,4.11,3.96,5.05,6.53.95,2.57,1.01,5.52.18,8.86-.98,3.94-2.48,6.82-4.51,8.63ZM279.88,739.29c.8.2,1.4.35,1.79.44,2.06.51,3.97.81,5.74.91,1.77.1,3.35-.15,4.76-.74,1.41-.59,2.63-1.6,3.66-3.02,1.03-1.42,1.85-3.37,2.46-5.86.67-2.73.67-5.12-.01-7.15-.68-2.03-1.94-3.73-3.77-5.09-1.83-1.36-4.13-2.38-6.9-3.06l-5.27-1.3-5.94,24.02c1.53.38,2.69.66,3.49.86Z"/>
      <path class="cls-4" d="M340.32,753.79c-4.12-.35-7.18-1.82-9.18-4.43-2-2.61-2.82-6.12-2.45-10.53l1.48-17.66,3.61.3-1.48,17.66c-.15,1.82-.05,3.42.31,4.79.36,1.37.92,2.53,1.66,3.47s1.66,1.66,2.74,2.16c1.08.49,2.27.8,3.58.91,1.89.16,3.56-.06,4.98-.66,1.42-.6,2.59-1.64,3.48-3.15.9-1.5,1.45-3.49,1.66-5.97l1.48-17.66,3.61.3-1.48,17.66c-.38,4.48-1.75,7.83-4.12,10.03-2.37,2.21-5.67,3.13-9.9,2.77Z"/>
      <path class="cls-4" d="M424.63,751.79l-3.48.49-4.34-30.57,21.13-3,.44,3.1-17.65,2.51,1.39,9.78,13.9-1.98.42,2.93-13.91,1.98,2.1,14.77Z"/>
      <path class="cls-4" d="M483.34,740.34c-4.71,1.38-8.69,1.03-11.97-1.04-3.27-2.07-5.61-5.48-6.99-10.21-.91-3.12-1.17-5.99-.78-8.6.4-2.61,1.47-4.87,3.22-6.77,1.75-1.9,4.23-3.33,7.46-4.27,4.7-1.38,8.67-1.02,11.91,1.06,3.24,2.08,5.54,5.47,6.92,10.18.9,3.05,1.15,5.9.76,8.55-.38,2.65-1.45,4.93-3.19,6.85-1.75,1.92-4.2,3.34-7.35,4.27ZM482.33,737.09c2.46-.72,4.35-1.83,5.69-3.32,1.33-1.5,2.14-3.28,2.43-5.37.28-2.08.07-4.34-.64-6.76-.71-2.42-1.72-4.44-3.06-6.05-1.33-1.61-2.97-2.69-4.92-3.25-1.95-.55-4.18-.46-6.67.27-3.61,1.06-6.04,2.95-7.28,5.68-1.24,2.73-1.3,6-.18,9.83.7,2.39,1.72,4.38,3.07,5.99,1.34,1.61,2.99,2.69,4.92,3.25,1.93.56,4.15.47,6.64-.26Z"/>
      <path class="cls-4" d="M537.41,720c-3.75,1.75-7.14,1.98-10.17.71-3.03-1.27-5.48-3.91-7.35-7.92l-7.48-16.06,3.28-1.53,7.48,16.06c.77,1.66,1.66,2.99,2.65,4,.99,1.01,2.05,1.74,3.17,2.19,1.12.45,2.27.62,3.45.51,1.18-.11,2.37-.44,3.56-.99,1.72-.8,3.06-1.82,4-3.04.94-1.23,1.43-2.71,1.46-4.46.03-1.75-.48-3.75-1.53-6.01l-7.48-16.06,3.28-1.53,7.48,16.06c1.9,4.08,2.37,7.66,1.41,10.75-.96,3.09-3.36,5.53-7.21,7.32Z"/>
      <path class="cls-4" d="M577.16,660.83l2.98-1.97,17.02,25.77-5.54,3.66-28.96-15.97-.09.06,16.15,24.44-2.98,1.97-17.02-25.77,5.17-3.42,29.33,15.73.09-.06-16.15-24.44Z"/>
      <path class="cls-4" d="M636.38,644.43c.36,2.7-.2,5.3-1.68,7.81-1.48,2.51-3.61,5.01-6.38,7.51-.44.39-1.12,1.01-2.06,1.85-.94.84-2.28,2.05-4.02,3.61l-20.64-22.97c1.85-1.66,3.23-2.9,4.14-3.72.91-.82,1.56-1.4,1.94-1.74,2.77-2.49,5.58-4.24,8.42-5.24,2.84-1,5.58-1.17,8.24-.51,2.66.66,5.14,2.27,7.44,4.82,2.71,3.02,4.25,5.88,4.61,8.58ZM625.51,658.22c.61-.55,1.07-.96,1.37-1.23,1.58-1.42,2.9-2.83,3.97-4.24s1.76-2.86,2.06-4.36c.3-1.5.15-3.07-.45-4.72-.6-1.65-1.75-3.43-3.46-5.33-1.88-2.09-3.86-3.43-5.92-4-2.07-.58-4.18-.49-6.32.27-2.15.75-4.29,2.08-6.41,3.99l-4.04,3.63,16.54,18.4c1.17-1.05,2.06-1.85,2.67-2.4Z"/>
      <path class="cls-4" d="M661.28,627.38l-16.81-28.09,3.72-4.47,30.8,11.25-2.38,2.87-29.02-10.99,16.09,26.56-2.38,2.87ZM657.67,616.61l-2.1-2.1,9.64-11.6,2.49,1.64-10.03,12.07Z"/>
      <path class="cls-4" d="M669.16,572.16l-2.6-1.64,12.47-19.7,2.59,1.64-12.47,19.7ZM674.59,559.69l25.26,15.99-1.88,2.97-25.26-15.99,1.88-2.97Z"/>
      <path class="cls-4" d="M693.35,530.56l-2.77-1.32,5.13-10.8,2.77,1.32-5.13,10.8ZM719.39,538.25l-26.11-12.4,1.51-3.17,26.11,12.4-1.5,3.17ZM718.47,542.49l-2.77-1.32,5.13-10.8,2.77,1.32-5.13,10.8Z"/>
      <path class="cls-4" d="M740.28,490.61c-1.5,4.67-4.02,7.78-7.57,9.33-3.55,1.55-7.67,1.57-12.38.07-3.1-.99-5.62-2.39-7.56-4.18-1.94-1.79-3.21-3.95-3.81-6.46-.6-2.51-.38-5.37.65-8.58,1.49-4.67,4.01-7.76,7.55-9.27,3.54-1.52,7.64-1.53,12.31-.03,3.03.97,5.53,2.36,7.51,4.16,1.97,1.8,3.27,3.97,3.88,6.49.61,2.52.42,5.35-.58,8.48ZM737.03,489.63c.78-2.44.93-4.63.44-6.57-.49-1.94-1.52-3.62-3.09-5.02-1.56-1.4-3.55-2.49-5.95-3.26-2.4-.77-4.64-1.06-6.72-.86-2.08.2-3.89.95-5.45,2.26-1.55,1.31-2.72,3.2-3.52,5.67-1.15,3.59-.94,6.66.62,9.21,1.56,2.55,4.24,4.44,8.04,5.66,2.37.76,4.59,1.03,6.68.82,2.09-.22,3.9-.97,5.45-2.26,1.55-1.29,2.71-3.17,3.51-5.64Z"/>
      <path class="cls-4" d="M723.98,420.28l.57-3.52,30.49,4.91-1.06,6.55-31.36,10.5-.02.11,28.92,4.66-.57,3.52-30.49-4.91.99-6.12,31.43-10.94.02-.11-28.92-4.66Z"/>
    </g>
    <path class="cls-4" d="M376.39,0C170.61,0,3.18,167.43,3.18,373.23c0,4.24.06,8.46.21,12.66h2.1c-.17-4.2-.23-8.42-.23-12.66C5.26,168.57,171.75,2.08,376.39,2.08s371.15,166.49,371.15,371.15c0,4.24-.06,8.46-.23,12.66h2.1c.15-4.2.21-8.42.21-12.66C749.62,167.43,582.19,0,376.39,0Z"/>
  </g>
</svg>