<svg xmlns="http://www.w3.org/2000/svg" viewBox="0 0 36 36" width="36" height="36"><path fill="#EFEFEF" d="M19.1647,31.8238c3.5668,0.9138 8.7327,-1.9406 10.9159,-3.6387c7.2772,-6.5495 -0.7278,-19.6485 -5.8218,-22.5594c-5.0941,-2.9109 -11.6436,-1.45545 -17.4654,1.45545c-5.82179,2.91089 -4.42076,15.9417 0.6733,17.3972c9.89562,2.8273 2.91092,5.094 11.698,7.3455Z"/><path fill="#90A4AD" fill-rule="evenodd" d="M6.99957 28.2166v2h-1v-2h1zM5 27.2169h-2v-1h2v1z"/><path fill="#F3F3F1" d="M17.6477,7.13261l-8.1477,3.06739v9.2624c0,1.8533 0.8564,3.6025 2.3202,4.7391l5.5665,4.3223c0.3609,0.2802 0.8657,0.2802 1.2266,0l5.5665,-4.3223c1.4638,-1.1366 2.3202,-2.8858 2.3202,-4.7391v-9.2624l-8.1477,-3.06739c-0.2271,-0.0855 -0.4775,-0.0855 -0.7046,0Z"/><g fill="#D6DBE1" fill-rule="evenodd"><path d="M9.5,10.2l8.1477,-3.06739c0.2271,-0.0855 0.4775,-0.0855 0.7046,0l0.3977,0.14971l-7.75,2.91768v9.2624c0,1.8533 0.8564,3.6025 2.3202,4.7391l5.4298,4.2161l-0.1367,0.1062c-0.3609,0.2802 -0.8657,0.2802 -1.2266,0l-5.5665,-4.3223c-1.4638,-1.1366 -2.3202,-2.8858 -2.3202,-4.7391v-9.2624Z"/><path fill="#000" d="M18.0881,7.83451c-0.0568,-0.02137 -0.1194,-0.02137 -0.1762,0l-7.6619,2.88449v8.7434c0,1.6216 0.7494,3.1522 2.0302,4.1468l5.5665,4.3222c0.0902,0.07 0.2164,0.07 0.3066,0l5.5665,-4.3222c1.2808,-0.9946 2.0302,-2.5252 2.0302,-4.1468v-8.7434l-7.6619,-2.88449Zm-0.7047,-1.40381c0.3975,-0.14962 0.8357,-0.14962 1.2332,0l8.1476,3.06736c0.2923,0.11002 0.4858,0.38962 0.4858,0.70194v9.2624c0,2.0849 -0.9635,4.0529 -2.6102,5.3315l-5.5665,4.3222c-0.6315,0.4904 -1.5151,0.4904 -2.1466,0l-5.5665,-4.3222c-1.64673,-1.2786 -2.6102,-3.2465 -2.6102,-5.3315v-9.2624c0,-0.31232 0.1935,-0.59192 0.48575,-0.70194l8.14765,-3.06736Z"/></g><path fill="#2EDF84" d="M20.25,14c0,-0.5523 -0.4477,-1 -1,-1h-2.5c-0.5523,0 -1,0.4477 -1,1v1.25h-1.25c-0.5523,0 -1,0.4477 -1,1v2.5c0,0.5523 0.4477,1 1,1h1.25v1.25c0,0.5523 0.4477,1 1,1h2.5c0.5523,0 1,-0.4477 1,-1v-1.25h1.25c0.5523,0 1,-0.4477 1,-1v-2.5c0,-0.5523 -0.4477,-1 -1,-1h-1.25v-1.25Z"/><g fill="#00B872" fill-rule="evenodd"><path d="M18.25,13h-1.5c-0.5523,0 -1,0.4477 -1,1v1.25h-1.25c-0.5523,0 -1,0.4477 -1,1v2.5c0,0.5523 0.4477,1 1,1h1.25v1.25c0,0.5523 0.4477,1 1,1h1.5c-0.5523,0 -1,-0.4477 -1,-1v-1.25h-1.25c-0.5523,0 -1,-0.4477 -1,-1v-2.5c0,-0.5523 0.4477,-1 1,-1h1.25v-1.25c0,-0.5523 0.4477,-1 1,-1Z"/><path fill="#000" d="M15,14c0,-0.9665 0.7835,-1.75 1.75,-1.75h2.5c0.9665,0 1.75,0.7835 1.75,1.75v0.5h0.5c0.9665,0 1.75,0.7835 1.75,1.75v2.5c0,0.9665 -0.7835,1.75 -1.75,1.75h-0.5v0.5c0,0.9665 -0.7835,1.75 -1.75,1.75h-2.5c-0.9665,0 -1.75,-0.7835 -1.75,-1.75v-0.5h-0.5c-0.9665,0 -1.75,-0.7835 -1.75,-1.75v-2.5c0,-0.9665 0.7835,-1.75 1.75,-1.75h0.5v-0.5Zm1.75,-0.25c-0.1381,0 -0.25,0.1119 -0.25,0.25v1.25c0,0.1989 -0.079,0.3897 -0.2197,0.5303c-0.1406,0.1407 -0.3314,0.2197 -0.5303,0.2197h-1.25c-0.1381,0 -0.25,0.1119 -0.25,0.25v2.5c0,0.1381 0.1119,0.25 0.25,0.25h1.25c0.4142,0 0.75,0.3358 0.75,0.75v1.25c0,0.1381 0.1119,0.25 0.25,0.25h2.5c0.1381,0 0.25,-0.1119 0.25,-0.25v-1.25c0,-0.4142 0.3358,-0.75 0.75,-0.75h1.25c0.1381,0 0.25,-0.1119 0.25,-0.25v-2.5c0,-0.1381 -0.1119,-0.25 -0.25,-0.25h-1.25c-0.4142,0 -0.75,-0.3358 -0.75,-0.75v-1.25c0,-0.1381 -0.1119,-0.25 -0.25,-0.25h-2.5Z"/></g></svg>