<svg xmlns="http://www.w3.org/2000/svg" viewBox="0 0 36 36" width="36" height="36"><path fill="#EFEFEF" d="M27.623 31.833c-6.917 0-11.667 3.583-15 3.583S2.29 33.5 2.29 18.167 11.707.583 15.373.583c17.167 0 24.5 31.25 12.25 31.25z"/><path fill="#A4AFC1" d="M7.5 12c-.827 0-1.5-.673-1.5-1.5S6.673 9 7.5 9 9 9.673 9 10.5 8.327 12 7.5 12zm0-2a.5.5 0 1 0 0 1 .5.5 0 0 0 0-1z"/><path fill="#2FDF84" d="M24.25 12.25h-1.5v-.5a3 3 0 0 1 3-3h1.5v.5a3 3 0 0 1-3 3zm-5.75-.5H17v.5a4 4 0 0 0 4 4h1.5v-.5a4 4 0 0 0-4-4z"/><path fill="#00B871" d="M25 11.75c0-1.396.958-2.559 2.25-2.894V8.75h-1.5a3 3 0 0 0-3 3v.5h1.5c.261 0 .509-.044.75-.106v-.394zm-5.75.5v-.424a4.024 4.024 0 0 0-.75-.076H17v.5a4 4 0 0 0 4 4h1.5v-.076a3.996 3.996 0 0 1-3.25-3.924z"/><path d="M22 12.25h1.5v7H22z"/><path d="M24.25 13h-1.5a.75.75 0 0 1-.75-.75v-.5A3.754 3.754 0 0 1 25.75 8h1.5a.75.75 0 0 1 .75.75v.5A3.754 3.754 0 0 1 24.25 13zm-.736-1.5h.736a2.253 2.253 0 0 0 2.236-2h-.736a2.253 2.253 0 0 0-2.236 2z"/><path d="M22.5 17H21a4.756 4.756 0 0 1-4.75-4.75v-.5A.75.75 0 0 1 17 11h1.5a4.756 4.756 0 0 1 4.75 4.75v.5a.75.75 0 0 1-.75.75zm-4.741-4.5a3.255 3.255 0 0 0 3.241 3h.741a3.255 3.255 0 0 0-3.241-3h-.741zM25.75 27h-2.03v-1.5h2.03c.736 0 1.424-.286 1.936-.806.528-.52.814-1.208.814-1.944A2.752 2.752 0 0 0 25.75 20h-8.5c-.915 0-1.766.455-2.277 1.217a.797.797 0 0 1-.072.127c-.263.41-.401.896-.401 1.405v.75H13v-.75a4.1 4.1 0 0 1 .61-2.17 1.74 1.74 0 0 1 .082-.143c.825-1.234 2.142-1.938 3.558-1.938h8.5a4.255 4.255 0 0 1 4.25 4.25 4.184 4.184 0 0 1-1.253 3.004A4.172 4.172 0 0 1 25.75 27z"/><path d="M18.75 27h-8.5A4.255 4.255 0 0 1 6 22.75c0-1.141.445-2.208 1.253-3.004A4.18 4.18 0 0 1 10.25 18.5h2.03V20h-2.03c-.736 0-1.424.286-1.936.806A2.702 2.702 0 0 0 7.5 22.75a2.752 2.752 0 0 0 2.75 2.75h8.5a2.752 2.752 0 0 0 2.75-2.75V22H23v.75A4.255 4.255 0 0 1 18.75 27z"/></svg>