<svg xmlns="http://www.w3.org/2000/svg" xmlns:xlink="http://www.w3.org/1999/xlink" viewBox="0 0 350 350" width="350" height="350" preserveAspectRatio="xMidYMid meet" style="width: 100%; height: 100%; transform: translate3d(0px, 0px, 0px); content-visibility: visible;"><defs><clipPath id="__lottie_element_1163"><rect width="350" height="350" x="0" y="0"/></clipPath><clipPath id="__lottie_element_1165"><path d="M0,0 L350,0 L350,350 L0,350z"/></clipPath><g id="__lottie_element_1168"><g transform="matrix(0.7722832560539246,0,0,0.7722832560539246,76.3907241821289,41.92033004760742)" opacity="1" style="display: block;"><g opacity="1" transform="matrix(1,0,0,1,61,76.5)"><path fill="rgb(7,113,235)" fill-opacity="1" d=" M0,-43.5 C24.00765037536621,-43.5 43.5,-24.00765037536621 43.5,0 C43.5,24.00765037536621 24.00765037536621,43.5 0,43.5 C-24.00765037536621,43.5 -43.5,24.00765037536621 -43.5,0 C-43.5,-24.00765037536621 -24.00765037536621,-43.5 0,-43.5z"/></g></g></g><filter id="__lottie_element_1177" filterUnits="objectBoundingBox" x="0%" y="0%" width="100%" height="100%"><feComponentTransfer in="SourceGraphic"><feFuncA type="table" tableValues="1.0 0.0"/></feComponentTransfer></filter><mask id="__lottie_element_1168_2" mask-type="alpha"><g filter="url(#__lottie_element_1177)"><rect width="350" height="350" x="0" y="0" fill="#ffffff" opacity="0"/><use xmlns:ns1="http://www.w3.org/1999/xlink" ns1:href="#__lottie_element_1168"/></g></mask><linearGradient id="__lottie_element_1181" spreadMethod="pad" gradientUnits="userSpaceOnUse" x1="-59.43000030517578" y1="-79.0530014038086" x2="60.61399841308594" y2="80.11399841308594"><stop offset="0%" stop-color="rgb(249,252,255)"/><stop offset="50%" stop-color="rgb(234,245,255)"/><stop offset="100%" stop-color="rgb(218,238,255)"/></linearGradient><linearGradient id="__lottie_element_1182" spreadMethod="pad" gradientUnits="userSpaceOnUse" x1="0" y1="-76" x2="0.25" y2="79.375"><stop offset="0%" stop-color="rgb(122,194,255)"/><stop offset="50%" stop-color="rgb(122,194,255)"/><stop offset="100%" stop-color="rgb(122,194,255)"/></linearGradient><mask id="__lottie_element_1184"><path stroke="url(#__lottie_element_1183)" stroke-linecap="butt" stroke-linejoin="miter" stroke-miterlimit="4" stroke-width="2" d=" M39.095001220703125,-41.70500183105469 C29.743000030517578,-41.70500183105469 22.135000228881836,-49.308998107910156 22.135000228881836,-58.654998779296875 C22.135000228881836,-58.654998779296875 22.135000228881836,-78.46499633789062 22.135000228881836,-78.46499633789062 C22.135000228881836,-78.46499633789062 -44.935001373291016,-78.46499633789062 -44.935001373291016,-78.46499633789062 C-52.64500045776367,-78.46499633789062 -58.89500045776367,-72.21499633789062 -58.89500045776367,-64.51499938964844 C-58.89500045776367,-64.51499938964844 -58.89500045776367,64.50499725341797 -58.89500045776367,64.50499725341797 C-58.89500045776367,72.21499633789062 -52.64500045776367,78.46499633789062 -44.935001373291016,78.46499633789062 C-44.935001373291016,78.46499633789062 44.935001373291016,78.46499633789062 44.935001373291016,78.46499633789062 C52.64500045776367,78.46499633789062 58.89500045776367,72.21499633789062 58.89500045776367,64.50499725341797 C58.89500045776367,64.50499725341797 58.89500045776367,-41.70500183105469 58.89500045776367,-41.70500183105469 C58.89500045776367,-41.70500183105469 39.095001220703125,-41.70500183105469 39.095001220703125,-41.70500183105469z"/></mask><linearGradient id="__lottie_element_1183" spreadMethod="pad" gradientUnits="userSpaceOnUse" x1="0" y1="-76" x2="0.25" y2="79.375"><stop stop-color="rgb(255,255,255)" offset="0%" stop-opacity="1"/><stop stop-color="rgb(255,255,255)" offset="50%" stop-opacity="0.5"/><stop stop-color="rgb(255,255,255)" offset="100%" stop-opacity="0"/><stop stop-color="rgb(255,255,255)" offset="100%" stop-opacity="0.5"/><stop stop-color="rgb(255,255,255)" offset="100%" stop-opacity="1"/></linearGradient><linearGradient id="__lottie_element_1185" spreadMethod="pad" gradientUnits="userSpaceOnUse" x1="21.08300018310547" y1="-40.08300018310547" x2="61.33300018310547" y2="-78.66699981689453"><stop offset="0%" stop-color="rgb(7,88,235)"/><stop offset="50%" stop-color="rgb(7,109,235)"/><stop offset="100%" stop-color="rgb(7,131,235)"/></linearGradient><linearGradient id="__lottie_element_1189" spreadMethod="pad" gradientUnits="userSpaceOnUse" x1="0.25" y1="33.25" x2="0.5" y2="-33.25"><stop offset="0%" stop-color="rgb(7,88,235)"/><stop offset="50%" stop-color="rgb(7,109,235)"/><stop offset="100%" stop-color="rgb(7,131,235)"/></linearGradient><g id="__lottie_element_1190"><g clip-path="url(#__lottie_element_1191)" transform="matrix(1.2000000476837158,0,0,1.2000000476837158,115,124.50039672851562)" opacity="1" style="display: block;"><g transform="matrix(0.7248499989509583,0,0,0.7248499989509583,49.87532424926758,32.53474044799805)" opacity="1" style="display: block;"><g opacity="1" transform="matrix(1,0,0,1,0,0)"><path fill="rgb(255,255,255)" fill-opacity="1" d=" M5.1620001792907715,-4.781000137329102 C4.691999912261963,1.3559999465942383 3.578000068664551,7.375999927520752 1.7829999923706055,13.26200008392334 C1.4249999523162842,14.4350004196167 1.4709999561309814,15.432000160217285 2.009000062942505,16.566999435424805 C4.367000102996826,21.538999557495117 6.798999786376953,26.457000732421875 10.041999816894531,30.937999725341797 C10.72700023651123,31.884000778198242 11.402000427246094,32.13800048828125 12.550999641418457,31.985000610351562 C19.2450008392334,31.094999313354492 25.937999725341797,30.941999435424805 32.58300018310547,32.433998107910156 C34.303001403808594,32.81999969482422 35.904998779296875,33.512001037597656 37.25600051879883,34.67100143432617 C39.40999984741211,36.52000045776367 40.58300018310547,38.84400177001953 40.00400161743164,41.69599914550781 C39.430999755859375,44.51900100708008 37.520999908447266,46.301998138427734 34.8390007019043,47.215999603271484 C31.273000717163086,48.43000030517578 27.72599983215332,47.82899856567383 24.2450008392334,46.8390007019043 C18.82699966430664,45.29800033569336 14.277000427246094,42.27000045776367 10.423999786376953,38.22200012207031 C9.498000144958496,37.249000549316406 8.680999755859375,37.007999420166016 7.4120001792907715,37.268001556396484 C1.406000018119812,38.499000549316406 -4.517000198364258,40.047000885009766 -10.423999786376953,41.67399978637695 C-11.465999603271484,41.96099853515625 -11.791000366210938,42.75899887084961 -12.26099967956543,43.48899841308594 C-15.869999885559082,49.090999603271484 -19.656999588012695,54.566001892089844 -24.09600067138672,59.54899978637695 C-26.263999938964844,61.983001708984375 -28.861000061035156,63.75 -32.31999969482422,63.70500183105469 C-38.39099884033203,63.62699890136719 -41.595001220703125,58.237998962402344 -38.76499938964844,52.83000183105469 C-37.189998626708984,49.82099914550781 -34.5260009765625,47.88399887084961 -31.812000274658203,46.03200149536133 C-26.92300033569336,42.69499969482422 -21.520000457763672,40.44599914550781 -15.897000312805176,38.702999114990234 C-14.715999603271484,38.33700180053711 -13.928000450134277,37.744998931884766 -13.29699993133545,36.64099884033203 C-9.616000175476074,30.20599937438965 -6.453000068664551,23.538999557495117 -3.9189999103546143,16.56999969482422 C-3.572999954223633,15.619000434875488 -3.5899999141693115,14.812000274658203 -3.9730000495910645,13.857000350952148 C-6.751999855041504,6.933000087738037 -8.70199966430664,-0.16200000047683716 -8.109000205993652,-7.736000061035156 C-7.939000129699707,-9.901000022888184 -7.289999961853027,-11.883999824523926 -5.75600004196167,-13.487000465393066 C-2.7699999809265137,-16.607999801635742 1.8619999885559082,-16.058000564575195 4.061999797821045,-12.335000038146973 C5.190999984741211,-10.425000190734863 5.440999984741211,-8.696999549865723 5.1620001792907715,-4.781000137329102z M14.711999893188477,36.17900085449219 C18.577999114990234,39.75699996948242 22.607999801635742,42.10200119018555 27.4060001373291,43.029998779296875 C29.445999145507812,43.42399978637695 31.488000869750977,43.685001373291016 33.49700164794922,42.946998596191406 C34.57400131225586,42.55099868774414 35.500999450683594,41.8849983215332 35.638999938964844,40.637001037597656 C35.768001556396484,39.47200012207031 35.08300018310547,38.63399887084961 34.21500015258789,37.96799850463867 C33.49800109863281,37.417999267578125 32.67499923706055,37.05699920654297 31.791000366210938,36.84299850463867 C26.28499984741211,35.507999420166016 20.725000381469727,35.66600036621094 14.711999893188477,36.17900085449219z M-18.416000366210938,44.470001220703125 C-23.94300079345703,46.358001708984375 -29.047000885009766,48.91699981689453 -33.31800079345703,52.92599868774414 C-34.13600158691406,53.69300079345703 -34.79399871826172,54.58000183105469 -35.11800003051758,55.68299865722656 C-35.70600128173828,57.680999755859375 -34.78099822998047,59.03499984741211 -32.73099899291992,59.22800064086914 C-30.73699951171875,59.41600036621094 -29.23200035095215,58.435001373291016 -27.972000122070312,57.1150016784668 C-24.312999725341797,53.28200149536133 -21.322999954223633,48.926998138427734 -18.416000366210938,44.470001220703125z M-7.989999771118164,36.297000885009766 C-3.1549999713897705,35.12900161743164 1.3200000524520874,34.047000885009766 5.953000068664551,32.928001403808594 C3.3519999980926514,29.21299934387207 1.2660000324249268,25.323999404907227 -0.8119999766349792,21.10300064086914 C-2.9519999027252197,26.349000930786133 -5.2129998207092285,31.25 -7.989999771118164,36.297000885009766z M-1.371000051498413,7.7870001792907715 C-0.4749999940395355,4.330999851226807 0.029999999329447746,1.159000039100647 0.42500001192092896,-2.0260000228881836 C0.6520000100135803,-3.8580000400543213 0.7459999918937683,-5.714000225067139 0.7919999957084656,-7.560999870300293 C0.8389999866485596,-9.4399995803833 -0.026000000536441803,-10.937000274658203 -1.0789999961853027,-11.062000274658203 C-2.174999952316284,-11.192000389099121 -3.3580000400543213,-9.751999855041504 -3.6110000610351562,-7.857999801635742 C-3.878000020980835,-5.859000205993652 -3.813999891281128,-3.8489999771118164 -3.5880000591278076,-1.847000002861023 C-3.2279999256134033,1.340000033378601 -2.611999988555908,4.466000080108643 -1.371000051498413,7.7870001792907715z"/></g></g></g></g><clipPath id="__lottie_element_1191"><path d="M0,0 L100,0 L100,100 L0,100z"/></clipPath><mask id="__lottie_element_1190_1" mask-type="alpha"><use xmlns:ns2="http://www.w3.org/1999/xlink" ns2:href="#__lottie_element_1190"/></mask></defs><g clip-path="url(#__lottie_element_1163)"><g mask="url(#__lottie_element_1168_2)" style="display: block;"><g clip-path="url(#__lottie_element_1165)" transform="matrix(1,0,0,1,0,-4.089752197265625)" opacity="1"><g transform="matrix(1.2000000476837158,0,0,1.2000000476837158,175,175)" opacity="1" style="display: block;"><g opacity="1" transform="matrix(1,0,0,1,0,0)"><path fill="url(#__lottie_element_1181)" fill-opacity="1" d=" M39.095001220703125,-41.70500183105469 C29.743000030517578,-41.70500183105469 22.135000228881836,-49.308998107910156 22.135000228881836,-58.654998779296875 C22.135000228881836,-58.654998779296875 22.135000228881836,-78.46499633789062 22.135000228881836,-78.46499633789062 C22.135000228881836,-78.46499633789062 -44.935001373291016,-78.46499633789062 -44.935001373291016,-78.46499633789062 C-52.64500045776367,-78.46499633789062 -58.89500045776367,-72.21499633789062 -58.89500045776367,-64.51499938964844 C-58.89500045776367,-64.51499938964844 -58.89500045776367,64.50499725341797 -58.89500045776367,64.50499725341797 C-58.89500045776367,72.21499633789062 -52.64500045776367,78.46499633789062 -44.935001373291016,78.46499633789062 C-44.935001373291016,78.46499633789062 44.935001373291016,78.46499633789062 44.935001373291016,78.46499633789062 C52.64500045776367,78.46499633789062 58.89500045776367,72.21499633789062 58.89500045776367,64.50499725341797 C58.89500045776367,64.50499725341797 58.89500045776367,-41.70500183105469 58.89500045776367,-41.70500183105469 C58.89500045776367,-41.70500183105469 39.095001220703125,-41.70500183105469 39.095001220703125,-41.70500183105469z"/><path stroke="url(#__lottie_element_1182)" mask="url(#__lottie_element_1184)" stroke-linecap="butt" stroke-linejoin="miter" fill-opacity="0" stroke-miterlimit="4" stroke-opacity="1" stroke-width="2" d="M0 0 M39.095001220703125,-41.70500183105469 C29.743000030517578,-41.70500183105469 22.135000228881836,-49.308998107910156 22.135000228881836,-58.654998779296875 C22.135000228881836,-58.654998779296875 22.135000228881836,-78.46499633789062 22.135000228881836,-78.46499633789062 C22.135000228881836,-78.46499633789062 -44.935001373291016,-78.46499633789062 -44.935001373291016,-78.46499633789062 C-52.64500045776367,-78.46499633789062 -58.89500045776367,-72.21499633789062 -58.89500045776367,-64.51499938964844 C-58.89500045776367,-64.51499938964844 -58.89500045776367,64.50499725341797 -58.89500045776367,64.50499725341797 C-58.89500045776367,72.21499633789062 -52.64500045776367,78.46499633789062 -44.935001373291016,78.46499633789062 C-44.935001373291016,78.46499633789062 44.935001373291016,78.46499633789062 44.935001373291016,78.46499633789062 C52.64500045776367,78.46499633789062 58.89500045776367,72.21499633789062 58.89500045776367,64.50499725341797 C58.89500045776367,64.50499725341797 58.89500045776367,-41.70500183105469 58.89500045776367,-41.70500183105469 C58.89500045776367,-41.70500183105469 39.095001220703125,-41.70500183105469 39.095001220703125,-41.70500183105469z"/></g><g opacity="1" transform="matrix(1,0,0,1,0,0)"><path fill="url(#__lottie_element_1185)" fill-opacity="1" d=" M22.18000030517578,-57.012001037597656 C22.18000030517578,-48.691001892089844 28.93400001525879,-41.9379997253418 37.26599884033203,-41.9379997253418 C37.26599884033203,-41.9379997253418 58.6619987487793,-41.9379997253418 58.6619987487793,-41.9379997253418 C58.6619987487793,-41.9379997253418 22.18000030517578,-78.41999816894531 22.18000030517578,-78.41999816894531 C22.18000030517578,-78.41999816894531 22.18000030517578,-57.012001037597656 22.18000030517578,-57.012001037597656z"/></g></g><g mask="url(#__lottie_element_1190_1)" style="display: block;"><g transform="matrix(1.3716720342636108,0,0,1.5390840768814087,175,175)" opacity="1"><g opacity="1" transform="matrix(1.0421600341796875,0,0,1.2879400253295898,-0.25,8.25)"><path fill="url(#__lottie_element_1189)" fill-opacity="1" d=" M47.75,-33.25 C47.75,-33.25 47.75,33.25 47.75,33.25 C47.75,33.25 -47.75,33.25 -47.75,33.25 C-47.75,33.25 -47.75,-33.25 -47.75,-33.25 C-47.75,-33.25 47.75,-33.25 47.75,-33.25z"/></g></g></g></g></g><g transform="matrix(0.7020756602287292,0,0,0.7020756602287292,80.67338562011719,47.29121017456055)" opacity="1" style="display: block;"><g opacity="1" transform="matrix(1,0,0,1,61,76.5)"><path fill="rgb(7,113,235)" fill-opacity="1" d=" M0,-43.5 C24.00765037536621,-43.5 43.5,-24.00765037536621 43.5,0 C43.5,24.00765037536621 24.00765037536621,43.5 0,43.5 C-24.00765037536621,43.5 -43.5,24.00765037536621 -43.5,0 C-43.5,-24.00765037536621 -24.00765037536621,-43.5 0,-43.5z"/></g></g><g transform="matrix(0.08775945752859116,0,0,0.08775945752859116,123.5,101)" opacity="1" style="display: block;"><g opacity="1" transform="matrix(1,0,0,1,0,0)"><path stroke-linecap="round" stroke-linejoin="round" fill-opacity="0" stroke="rgb(255,255,255)" stroke-opacity="1" stroke-width="40" d=" M32.616703033447266,-61.53029251098633 C32.616703033447266,-61.53029251098633 -74.70899963378906,37.29899978637695 -74.70899963378906,37.29899978637695 C-90.33000183105469,52.91999816894531 -90.33000183105469,78.24700164794922 -74.70899963378906,93.86799621582031 C-59.0880012512207,109.48899841308594 -33.76100158691406,109.48899841308594 -18.139999389648438,93.86799621582031 C-18.139999389648438,93.86799621582031 147.5229949951172,-63.10300064086914 147.5229949951172,-63.10300064086914 C178.76499938964844,-94.34500122070312 178.76499938964844,-144.9980010986328 147.5229949951172,-176.24000549316406 C116.28099822998047,-207.48199462890625 65.62799835205078,-207.48199462890625 34.38600158691406,-176.24000549316406 C34.38600158691406,-176.24000549316406 -145.41900634765625,-5.127999782562256 -145.41900634765625,-5.127999782562256 C-192.2100067138672,41.66299819946289 -192.2100067138672,117.78700256347656 -145.41900634765625,164.5780029296875 C-98.62799835205078,211.36900329589844 -22.503999710083008,211.36900329589844 24.28700065612793,164.5780029296875 C24.28700065612793,164.5780029296875 117.11212158203125,80.29487609863281 117.11212158203125,80.29487609863281"/></g></g><g transform="matrix(1.1274412870407104,2.3819589614868164,-2.3819589614868164,1.1274412870407104,138.375,60.25)" opacity="1" style="display: block;"><g opacity="1" transform="matrix(1,0,0,1,0,0)"><path fill="rgb(7,113,235)" fill-opacity="1" d=" M-0.5260000228881836,-2.4760000705718994 C-0.5260000228881836,-2.4760000705718994 -1.100000023841858,-0.7149999737739563 -1.100000023841858,-0.7149999737739563 C-1.100000023841858,-0.7149999737739563 -2.4760000705718994,0.5260000228881836 -2.4760000705718994,0.5260000228881836 C-2.4760000705718994,0.5260000228881836 -0.7149999737739563,1.100000023841858 -0.7149999737739563,1.100000023841858 C-0.7149999737739563,1.100000023841858 0.5249999761581421,2.4760000705718994 0.5249999761581421,2.4760000705718994 C0.5249999761581421,2.4760000705718994 1.100000023841858,0.7139999866485596 1.100000023841858,0.7139999866485596 C1.100000023841858,0.7139999866485596 2.4760000705718994,-0.5249999761581421 2.4760000705718994,-0.5249999761581421 C2.4760000705718994,-0.5249999761581421 0.7149999737739563,-1.100000023841858 0.7149999737739563,-1.100000023841858 C0.7149999737739563,-1.100000023841858 -0.5260000228881836,-2.4760000705718994 -0.5260000228881836,-2.4760000705718994z"/></g></g><g transform="matrix(1.6213449239730835,-0.9711477756500244,0.9711477756500244,1.6213449239730835,89.125,123.25)" opacity="1" style="display: block;"><g opacity="1" transform="matrix(1,0,0,1,0,0)"><path fill="rgb(7,113,235)" fill-opacity="1" d=" M-0.5260000228881836,-2.4760000705718994 C-0.5260000228881836,-2.4760000705718994 -1.100000023841858,-0.7149999737739563 -1.100000023841858,-0.7149999737739563 C-1.100000023841858,-0.7149999737739563 -2.4760000705718994,0.5260000228881836 -2.4760000705718994,0.5260000228881836 C-2.4760000705718994,0.5260000228881836 -0.7149999737739563,1.100000023841858 -0.7149999737739563,1.100000023841858 C-0.7149999737739563,1.100000023841858 0.5249999761581421,2.4760000705718994 0.5249999761581421,2.4760000705718994 C0.5249999761581421,2.4760000705718994 1.100000023841858,0.7139999866485596 1.100000023841858,0.7139999866485596 C1.100000023841858,0.7139999866485596 2.4760000705718994,-0.5249999761581421 2.4760000705718994,-0.5249999761581421 C2.4760000705718994,-0.5249999761581421 0.7149999737739563,-1.100000023841858 0.7149999737739563,-1.100000023841858 C0.7149999737739563,-1.100000023841858 -0.5260000228881836,-2.4760000705718994 -0.5260000228881836,-2.4760000705718994z"/></g></g></g></svg>