<svg xmlns="http://www.w3.org/2000/svg" viewBox="0 0 36 36" width="36" height="36"><path fill="#EFEFEF" d="M18.957 8.057C16.12 3.867 9.99 3.574 7.749 4.322c-10.203 3.4-1.583 21.912 3.736 25.403 5.32 3.491 14.31.076 19.039-4.58 4.728-4.654 1.881-11.11-1.854-11.857-2.898-.58-6.876-1.041-9.713-5.23Z"/><path fill="#90A4AD" fill-rule="evenodd" d="m24.275 8.918-.517-1.931.966-.26.517 1.933-.966.258Z"/><g fill="#90A4AD" fill-rule="evenodd"><path d="m26.466 9.366 1.931-.517.26.966-1.933.517-.258-.966Z"/><path fill="#2EDF84" d="M22.5 11.25a3.25 3.25 0 1 0 0 6.5 3.25 3.25 0 0 0 0-6.5Z"/><path fill="#00B872" d="M19.25 14.5a3.25 3.25 0 0 1 4.5-3 3.25 3.25 0 0 0 0 6 3.25 3.25 0 0 1-4.5-3Z"/><path fill="#2EDF84" d="M22.46 7.59c-.504-.871-1.623-1.234-2.525-.713l-.006.003-6.477 3.817c-.9.522-1.143 1.67-.641 2.54l1.13 1.957c.12.208.035.415-.093.491l-4.145 2.316a.664.664 0 0 0-.022.013l-.285.172a.75.75 0 0 0 .607 1.36l2.499-.763 4.782 1.435a.75.75 0 0 0 .398.01l2-.5a.75.75 0 0 0 .467-1.104l-.644-1.11-2.396-4.15c-.12-.21-.034-.418.096-.493l.008-.005 4.606-2.736c.899-.523 1.142-1.67.64-2.54Z"/><path fill="#00B872" d="m18.846 19.937-3.844-1.154-1.24.378 3.522 1.057a.75.75 0 0 0 .398.01l1.164-.291Zm-7.272-.87-1.57.478a.75.75 0 0 1-.608-1.359l.285-.172A.664.664 0 0 1 9.703 18l4.145-2.316c.128-.076.212-.283.092-.491l-1.13-1.956c-.501-.87-.257-2.019.642-2.54L19.93 6.88l.006-.003c.708-.409 1.548-.274 2.12.223l-6.103 3.597c-.9.522-1.143 1.67-.641 2.54l1.13 1.957c.12.208.035.415-.093.491l-4.145 2.316a.718.718 0 0 0-.022.013l-.285.172a.75.75 0 0 0-.323.88Z"/><path fill="#2EDF84" d="M6.295 28.256a.75.75 0 0 0 .961.449l2.691-.979c1.65-.6 3.457-.6 5.105 0a8.97 8.97 0 0 0 5.902.08l.208-.07a8.099 8.099 0 0 1 5.569.164l1.99.796a.75.75 0 1 0 .558-1.392l-1.99-.797a9.599 9.599 0 0 0-6.601-.193l-.208.069a7.47 7.47 0 0 1-4.915-.066 8.969 8.969 0 0 0-6.13 0l-2.691.978a.75.75 0 0 0-.449.961zm0-4a.75.75 0 0 0 .961.449l2.691-.979c1.65-.6 3.457-.6 5.105 0a8.97 8.97 0 0 0 5.902.08l.208-.07a8.099 8.099 0 0 1 5.569.164l1.99.796a.75.75 0 1 0 .558-1.392l-1.99-.797a9.599 9.599 0 0 0-6.601-.193l-.208.069a7.47 7.47 0 0 1-4.915-.066 8.969 8.969 0 0 0-6.13 0l-2.691.978a.75.75 0 0 0-.449.961zm0-4a.75.75 0 0 0 .961.449l2.691-.979c1.65-.6 3.457-.6 5.105 0a8.97 8.97 0 0 0 5.902.08l.208-.07a8.099 8.099 0 0 1 5.569.164l1.99.796a.75.75 0 1 0 .558-1.392l-1.99-.797a9.599 9.599 0 0 0-6.601-.193l-.208.069a7.47 7.47 0 0 1-4.915-.066 8.969 8.969 0 0 0-6.13 0l-2.691.978a.75.75 0 0 0-.449.961z"/><path fill="#000" d="M22.5 12.75a1.75 1.75 0 1 0 0 3.5 1.75 1.75 0 0 0 0-3.5Zm-3.25 1.75a3.25 3.25 0 1 1 6.5 0 3.25 3.25 0 0 1-6.5 0Z"/><path fill="#000" d="M19.935 6.877c.902-.52 2.021-.158 2.524.713.502.87.259 2.018-.64 2.54l-4.614 2.741c-.13.075-.217.284-.096.493l2.396 4.15 1.02 1.759-1.298.752-1.02-1.76-2.397-4.15c-.502-.87-.258-2.018.64-2.54l4.615-2.742c.13-.075.216-.284.095-.493-.12-.208-.342-.239-.473-.165l-6.481 3.82c-.13.075-.217.283-.096.493l1.13 1.956c.502.871.257 2.021-.645 2.542l-.01.006-4.139 2.312-.915.554-.776-1.284.926-.56a.895.895 0 0 1 .022-.013l4.145-2.315c.128-.077.212-.284.092-.492l-1.13-1.956c-.501-.87-.257-2.019.642-2.54l6.483-3.82zm10.04 20.705-2.687-1.074a9.6 9.6 0 0 0-6.6-.194l-.208.07a7.47 7.47 0 0 1-4.915-.067 8.969 8.969 0 0 0-6.13 0l-3.396 1.235.512 1.41 3.396-1.236c1.65-.6 3.457-.6 5.105 0a8.969 8.969 0 0 0 5.902.08l.208-.07a8.1 8.1 0 0 1 5.569.164l2.687 1.075.557-1.393zm0-4-2.687-1.074a9.6 9.6 0 0 0-6.6-.194l-.208.07a7.47 7.47 0 0 1-4.915-.067 8.969 8.969 0 0 0-6.13 0l-3.396 1.235.512 1.41 3.396-1.236c1.65-.6 3.457-.6 5.105 0a8.969 8.969 0 0 0 5.902.08l.208-.07a8.1 8.1 0 0 1 5.569.164l2.687 1.075.557-1.393z"/><path fill="#000" d="m29.975 19.582-2.687-1.074a9.6 9.6 0 0 0-6.6-.194l-.208.07a7.47 7.47 0 0 1-4.915-.067 8.969 8.969 0 0 0-6.13 0l-3.396 1.235.512 1.41 3.396-1.236c1.65-.6 3.457-.6 5.105 0a8.969 8.969 0 0 0 5.902.08l.208-.07a8.1 8.1 0 0 1 5.569.164l2.687 1.075.557-1.393Z"/></g></svg>