<svg xmlns="http://www.w3.org/2000/svg" enable-background="new 0 0 36 36" viewBox="0 0 36 36" width="36" height="36"><path fill="#efefef" d="m1.063 15.31c3.655 5.872 3.123 11.798 4.885 14.628s7.088 7.76 20.105-.343 9.951-17.286 8.014-20.399c-9.072-14.574-39.477-4.285-33.004 6.114z"/><path fill="#a4afc1" d="M32.647 17.76c-.827 0-1.5-.673-1.5-1.5s.673-1.5 1.5-1.5 1.5.673 1.5 1.5-.672 1.5-1.5 1.5zm0-2c-.275 0-.5.225-.5.5s.225.5.5.5.5-.225.5-.5-.224-.5-.5-.5zM4.228.452h1v2h-1zM4.228 6.202h1v2h-1zM.728 3.702h2v1h-2zM6.478 3.702h2v1h-2z"/><circle cx="18.03" cy="19" r="10.28" fill="#f3f3f1"/><path fill="#d5dbe1" d="m10 19c0-5.297 4.008-9.655 9.155-10.216-.37-.04-.744-.064-1.125-.064-5.677 0-10.28 4.602-10.28 10.28s4.603 10.28 10.28 10.28c.381 0 .755-.024 1.125-.064-5.147-.561-9.155-4.919-9.155-10.216z"/><circle cx="18" cy="19" r="3.25" fill="#2fdf84"/><path fill="#2fdf84" d="m28.151 15.625c-.162.152-.337.28-.512.397-.003.002-.006.004-.009.006-.497.327-1.174.282-1.658-.063l-3.496-2.495c-.493-.352-.708-.964-.495-1.509.109-.279.26-.549.451-.803-1.348-.583-2.847-.91-4.433-.91s-3.084.327-4.433.91c.191.254.342.523.451.803.213.545-.002 1.157-.495 1.509l-3.496 2.495c-.483.345-1.16.39-1.658.063-.003-.002-.006-.004-.009-.006-.175-.117-.35-.245-.512-.397-.858-.802-1.254-1.967-1.044-3.084.375-1.996 2.794-3.405 4.568-4.274 2.041-.999 4.329-1.517 6.63-1.517 3.029 0 6.162.891 8.594 2.596 1.075.754 2.23 1.717 2.555 2.986.3 1.175-.085 2.439-.999 3.293z"/><path fill="#00b871" d="M17 19c0-1.398.887-2.579 2.125-3.038-.352-.13-.728-.212-1.125-.212-1.795 0-3.25 1.455-3.25 3.25s1.455 3.25 3.25 3.25c.397 0 .773-.082 1.125-.212-1.238-.459-2.125-1.64-2.125-3.038zM10.099 15.626c-.858-.802-1.254-1.967-1.044-3.084.375-1.996 2.794-3.405 4.568-4.274 1.747-.856 3.679-1.335 5.643-1.462-.422-.034-.845-.055-1.266-.055-2.301 0-4.589.518-6.627 1.517-1.774.869-4.193 2.279-4.568 4.274-.21 1.117.185 2.283 1.044 3.084.162.152.337.28.512.396l.009.006c.497.327 1.174.282 1.658-.063l.265-.189c-.065-.052-.133-.093-.194-.15zM24.727 13.47c-.493-.352-.708-.964-.495-1.509.109-.279.26-.549.451-.803-1.348-.583-2.847-.91-4.432-.91-.38 0-.755.021-1.124.058 1.17.116 2.282.409 3.306.852-.191.254-.342.523-.451.803-.213.545.002 1.157.495 1.509l3.496 2.495c.483.345 1.16.39 1.658.063.003-.002.006-.004.009-.006.109-.073.213-.162.318-.246z"/><path d="M9.136 17.002c-.415 0-.826-.115-1.178-.347-.221-.148-.427-.301-.619-.479-1.055-.986-1.529-2.396-1.271-3.773.44-2.343 3.05-3.866 4.975-4.81 2.13-1.042 4.535-1.593 6.958-1.593 3.26 0 6.549.996 9.024 2.731 1.121.786 2.458 1.885 2.851 3.414.369 1.44-.096 2.983-1.213 4.027-.192.18-.398.333-.605.472-.76.498-1.767.468-2.521-.07l-3.496-2.494c-.779-.557-1.091-1.541-.757-2.393.019-.049.039-.097.06-.146-2.136-.721-4.553-.721-6.687 0 .021.049.041.097.06.146.334.854.021 1.837-.758 2.393l-3.496 2.495c-.398.283-.865.427-1.327.427zm8.865-9.502c-2.195 0-4.373.498-6.298 1.44-.942.461-3.808 1.865-4.16 3.739-.164.87.143 1.767.818 2.398.131.122.274.226.418.321.225.148.566.13.812-.045l3.496-2.495c.223-.159.316-.41.232-.626-.085-.216-.203-.427-.353-.626-.138-.185-.184-.421-.124-.643.059-.222.216-.404.427-.495 2.979-1.289 6.481-1.289 9.46 0 .211.092.368.274.427.496.06.222.014.459-.125.643-.149.199-.268.409-.351.624-.085.217.009.468.231.627l3.495 2.494c.246.174.586.195.811.047.146-.098.289-.2.421-.323.716-.67 1.016-1.65.783-2.56-.27-1.053-1.349-1.92-2.259-2.558-2.227-1.562-5.203-2.458-8.161-2.458zM25 21.25c-.689 0-1.25-.561-1.25-1.25s.561-1.25 1.25-1.25 1.25.561 1.25 1.25-.561 1.25-1.25 1.25zm0-1.5c-.138 0-.25.112-.25.25 0 .275.5.275.5 0 0-.138-.112-.25-.25-.25zM11 21.25c-.689 0-1.25-.561-1.25-1.25s.561-1.25 1.25-1.25 1.25.561 1.25 1.25-.561 1.25-1.25 1.25zm0-1.5c-.138 0-.25.112-.25.25 0 .275.5.275.5 0 0-.138-.112-.25-.25-.25zM13 25.249c-.32 0-.641-.121-.884-.365-.487-.487-.487-1.28 0-1.768.486-.488 1.281-.488 1.768 0 .487.487.487 1.28 0 1.768-.243.244-.564.365-.884.365zm0-1.499c-.064 0-.128.024-.177.073-.098.098-.098.256 0 .354s.256.098.354 0 .098-.256 0-.354c-.049-.049-.113-.073-.177-.073zM23 25.249c-.32 0-.641-.121-.884-.365-.487-.487-.487-1.28 0-1.768.486-.488 1.281-.488 1.768 0 .487.487.487 1.28 0 1.768-.243.244-.564.365-.884.365zm0-1.499c-.064 0-.128.024-.177.073-.098.098-.098.256 0 .354s.256.098.354 0 .098-.256 0-.354c-.049-.049-.113-.073-.177-.073zM18 27.25c-.689 0-1.25-.561-1.25-1.25s.561-1.25 1.25-1.25 1.25.561 1.25 1.25-.561 1.25-1.25 1.25zm0-1.5c-.138 0-.25.112-.25.25 0 .275.5.275.5 0 0-.138-.112-.25-.25-.25z"/><path d="m18 23c-2.206 0-4-1.794-4-4s1.794-4 4-4 4 1.794 4 4-1.794 4-4 4zm0-6.5c-1.379 0-2.5 1.121-2.5 2.5s1.121 2.5 2.5 2.5 2.5-1.121 2.5-2.5-1.121-2.5-2.5-2.5z"/><path d="m23.875 23.327h1.5v4.596h-1.5z" transform="rotate(-45.001 24.625 25.625)"/><path d="m18 30c-6.065 0-11-4.836-11-10.78 0-.261.011-.512.033-.773l1.494.127c-.018.218-.027.428-.027.646 0 5.117 4.262 9.28 9.5 9.28s9.5-4.163 9.5-9.28c0-.218-.009-.437-.027-.656l1.494-.127c.022.26.033.522.033.783 0 5.944-4.935 10.78-11 10.78z"/></svg>