<svg xmlns="http://www.w3.org/2000/svg" viewBox="0 0 36 36" width="36" height="36"><path fill="#EFEFEF" d="M15.41 5.634c6.556-2.384 14.528.745 16.39 4.47 2.98 5.96 0 14.156-4.47 17.88-4.47 3.726-10.43 3.726-11.175 1.49-.745-2.234-3.725-2.234-9.685-3.724-5.96-1.49-2.886-10.533-.745-11.176 7.45-2.235 1.49-5.96 9.685-8.94Z"/><path fill="#90A4AD" fill-rule="evenodd" d="m8.803 29.093.398 1.96-.98.2-.398-1.96.98-.2Z"/><g fill="#90A4AD" fill-rule="evenodd"><path d="m6.645 28.511-1.96.398-.2-.98 1.96-.398.2.98Z"/><path fill="#F3F3F1" d="M28.584 12.624A.75.75 0 0 0 29.75 12V7a.75.75 0 0 0-1.166-.624l-1.5 1A.75.75 0 0 0 26.75 8v3c0 .25.125.485.334.624l1.5 1zM7.335 6.329A.75.75 0 0 0 6.25 7v5a.75.75 0 0 0 1.029.696l2.5-1a.75.75 0 0 0 .41-.991l-1.5-3.5a.75.75 0 0 0-.354-.376l-1-.5z"/><path fill="#2EDF84" d="M13.666 11.75a1.75 1.75 0 0 0 1.68-2.24l-.373-1.28a2.75 2.75 0 0 0-2.64-1.98h-3a1.75 1.75 0 0 0-1.68 2.24l.373 1.28a2.75 2.75 0 0 0 2.64 1.98h3Z"/><path fill="#00B872" d="M9.333 6.25h2.5a1.75 1.75 0 0 0-1.68 2.24l.373 1.28a2.75 2.75 0 0 0 2.64 1.98h-2.5a2.75 2.75 0 0 1-2.64-1.98l-.373-1.28a1.75 1.75 0 0 1 1.68-2.24Z"/><path fill="#F3F3F1" d="M20.613 11.75a1.75 1.75 0 0 0 1.66-2.303l-.439-1.317a2.75 2.75 0 0 0-2.609-1.88h-3.837a1.75 1.75 0 0 0-1.66 2.303l.438 1.317a2.75 2.75 0 0 0 2.609 1.88h3.838Z"/><path fill="#D6DBE1" d="M15.388 6.25h2.5a1.75 1.75 0 0 0-1.66 2.303l.438 1.317a2.75 2.75 0 0 0 2.609 1.88h-2.5a2.75 2.75 0 0 1-2.609-1.88l-.439-1.317a1.75 1.75 0 0 1 1.66-2.303Z"/><path fill="#2EDF84" d="M26.666 11.75a1.75 1.75 0 0 0 1.68-2.24l-.373-1.28a2.75 2.75 0 0 0-2.64-1.98h-3a1.75 1.75 0 0 0-1.68 2.24l.373 1.28a2.75 2.75 0 0 0 2.64 1.98h3Z"/><path fill="#00B872" d="M22.333 6.25h2.5a1.75 1.75 0 0 0-1.68 2.24l.374 1.28a2.75 2.75 0 0 0 2.64 1.98h-2.5a2.75 2.75 0 0 1-2.64-1.98l-.374-1.28a1.75 1.75 0 0 1 1.68-2.24Z"/><path fill="#2EDF84" d="m18 18 .517-.543a.75.75 0 0 0-1.034 0L18 18Zm0 0-.517-.543-.002.001-.003.003-.01.01-.036.035c-.032.03-.077.075-.134.132a24.41 24.41 0 0 0-1.888 2.124c-.515.656-1.045 1.412-1.45 2.185-.397.76-.71 1.604-.71 2.421 0 2.866 2.027 5.382 4.75 5.382s4.75-2.516 4.75-5.382c0-.817-.313-1.662-.71-2.421-.404-.773-.934-1.53-1.45-2.186a24.41 24.41 0 0 0-2.022-2.255l-.036-.035-.01-.01-.003-.003h-.001L18 18Z"/><path fill="#00B872" d="M18.517 17.457 18 18l-.517-.543a.75.75 0 0 1 1.034 0Zm.733.748a23.287 23.287 0 0 0-.682-.7l-.036-.034-.01-.01-.003-.003h-.001L18 18l-.517-.543-.002.001-.003.003-.01.01-.036.035c-.032.03-.077.075-.134.132a24.41 24.41 0 0 0-1.888 2.124c-.515.656-1.045 1.412-1.45 2.185-.397.76-.71 1.604-.71 2.421 0 2.866 2.027 5.382 4.75 5.382.436 0 .855-.065 1.25-.185-2.07-.63-3.5-2.79-3.5-5.197 0-.817.313-1.662.71-2.421.404-.773.934-1.53 1.45-2.186a24.29 24.29 0 0 1 1.34-1.556Z"/><path fill="#F3F3F1" d="m11 14 .491-.567a.75.75 0 0 0-.982 0L11 14Zm0 0-.491-.567-.001.001-.002.002-.006.005-.02.017a8.753 8.753 0 0 0-.313.29c-.198.192-.465.462-.734.773-.267.308-.55.674-.77 1.057-.212.368-.413.831-.413 1.317 0 1.54 1.195 2.855 2.75 2.855s2.75-1.315 2.75-2.855c0-.486-.2-.95-.412-1.317a7.029 7.029 0 0 0-.77-1.057 11.9 11.9 0 0 0-1.048-1.063l-.02-.017-.006-.005-.002-.002L11 14Z"/><path fill="#D6DBE1" d="M11.491 13.433 11 14l-.491-.567a.75.75 0 0 1 .982 0Zm.759.737a12.5 12.5 0 0 0-.73-.712l-.02-.017-.006-.005-.002-.002L11 14l-.491-.567-.001.001-.002.002-.006.005-.02.017a8.753 8.753 0 0 0-.313.29c-.198.192-.465.462-.734.773-.267.308-.55.674-.77 1.057-.212.368-.413.831-.413 1.317 0 1.54 1.195 2.855 2.75 2.855.454 0 .878-.112 1.25-.31-.901-.478-1.5-1.455-1.5-2.545 0-.486.2-.95.412-1.317.22-.383.504-.749.77-1.057.108-.125.215-.242.318-.351Z"/><path fill="#F3F3F1" d="m25 14 .491-.567a.75.75 0 0 0-.982 0L25 14Zm0 0-.491-.567-.001.001-.002.002-.006.005-.02.017a8.753 8.753 0 0 0-.313.29 11.9 11.9 0 0 0-.734.773c-.267.308-.55.674-.77 1.057-.212.368-.413.831-.413 1.317 0 1.54 1.195 2.855 2.75 2.855s2.75-1.315 2.75-2.855c0-.486-.2-.95-.412-1.317a7.029 7.029 0 0 0-.77-1.057 11.9 11.9 0 0 0-1.048-1.063l-.02-.017-.006-.005-.002-.002L25 14Z"/><path fill="#D6DBE1" d="M25.491 13.433 25 14l-.491-.567a.75.75 0 0 1 .982 0Zm.759.737a12.5 12.5 0 0 0-.73-.712l-.02-.017-.006-.005-.002-.002L25 14l-.491-.567-.001.001-.002.002-.006.005-.02.017a8.753 8.753 0 0 0-.313.29 11.9 11.9 0 0 0-.734.773c-.267.308-.55.674-.77 1.057-.212.368-.413.831-.413 1.317 0 1.54 1.195 2.855 2.75 2.855.454 0 .878-.112 1.25-.31-.901-.478-1.5-1.455-1.5-2.545 0-.486.2-.95.412-1.317.22-.383.504-.749.77-1.057.108-.125.215-.242.318-.351Z"/><path fill="#000" d="M13.667 10.25a.25.25 0 0 0 .24-.32l-.374-1.28a1.25 1.25 0 0 0-1.2-.9h-3a.25.25 0 0 0-.24.32l.374 1.28c.155.533.644.9 1.2.9h3Zm1.68-.74a1.75 1.75 0 0 1-1.68 2.24h-3a2.75 2.75 0 0 1-2.64-1.98l-.374-1.28a1.75 1.75 0 0 1 1.68-2.24h3a2.75 2.75 0 0 1 2.64 1.98l.374 1.28Z"/><path fill="#000" d="M20.613 10.25a.25.25 0 0 0 .237-.33l-.439-1.315a1.25 1.25 0 0 0-1.186-.855h-3.838a.25.25 0 0 0-.237.33l.44 1.315c.17.51.647.855 1.185.855h3.838Zm1.66-.803a1.75 1.75 0 0 1-1.66 2.303h-3.838a2.75 2.75 0 0 1-2.609-1.88l-.439-1.317a1.75 1.75 0 0 1 1.66-2.303h3.838a2.75 2.75 0 0 1 2.61 1.88l.438 1.317Z"/><path fill="#000" d="M26.667 10.25a.25.25 0 0 0 .24-.32l-.374-1.28a1.25 1.25 0 0 0-1.2-.9h-3a.25.25 0 0 0-.24.32l.374 1.28c.155.533.644.9 1.2.9h3zm1.68-.74a1.75 1.75 0 0 1-1.68 2.24h-3a2.75 2.75 0 0 1-2.64-1.98l-.374-1.28a1.75 1.75 0 0 1 1.68-2.24h3a2.75 2.75 0 0 1 2.64 1.98l.374 1.28zM6.606 6.362a.75.75 0 0 1 .73-.033l1.67.836-.67 1.341-.586-.292v2.678l2.168-.867.557 1.393-3.196 1.278A.75.75 0 0 1 6.25 12V7a.75.75 0 0 1 .356-.638z"/><path fill="#000" d="M29.354 12.661a.75.75 0 0 1-.77-.037l-2.124-1.416.832-1.248.958.639V8.4l-.958.64-.832-1.249 2.124-1.416A.75.75 0 0 1 29.75 7v5a.75.75 0 0 1-.396.661zm-10.837 4.796L18 18l-.517-.543a.75.75 0 0 1 1.034 0zM18 19.067l-.08.083c-.364.386-.848.925-1.33 1.538-.484.616-.954 1.293-1.3 1.954-.353.674-.54 1.264-.54 1.726 0 2.251 1.554 3.882 3.25 3.882s3.25-1.63 3.25-3.882c0-.462-.187-1.052-.54-1.726-.346-.661-.816-1.338-1.3-1.954A22.861 22.861 0 0 0 18 19.066zm-.517-1.61L18 18l.517-.543.002.001.003.003.01.01.036.035c.032.03.077.075.134.132a24.41 24.41 0 0 1 1.888 2.124c.515.656 1.045 1.412 1.45 2.185.397.76.71 1.604.71 2.421 0 2.866-2.027 5.382-4.75 5.382s-4.75-2.516-4.75-5.382c0-.817.313-1.662.71-2.421.404-.773.934-1.53 1.45-2.186a24.41 24.41 0 0 1 2.022-2.255l.036-.035.01-.01.003-.003.002-.001zm-5.992-4.024L11 14l-.491-.567a.75.75 0 0 1 .982 0zM11 15.034a9.898 9.898 0 0 0-.433.468c-.233.27-.45.555-.604.824-.164.284-.213.473-.213.569 0 .785.595 1.355 1.25 1.355s1.25-.57 1.25-1.355c0-.096-.05-.285-.213-.57a5.55 5.55 0 0 0-.604-.823 9.898 9.898 0 0 0-.433-.468zm-.491-1.6L11 14l.491-.567.001.001.002.002.006.005.02.017a8.753 8.753 0 0 1 .313.29c.198.192.465.462.734.773.267.308.55.674.77 1.057.212.368.413.831.413 1.317 0 1.54-1.195 2.855-2.75 2.855s-2.75-1.315-2.75-2.855c0-.486.2-.95.412-1.317.22-.383.504-.749.77-1.057a11.886 11.886 0 0 1 1.048-1.063l.02-.017.006-.005.003-.003zm14.982 0L25 14l-.491-.567a.75.75 0 0 1 .982 0zm-.491 1.6a9.898 9.898 0 0 0-.433.468 5.55 5.55 0 0 0-.604.824c-.164.284-.213.473-.213.569 0 .785.595 1.355 1.25 1.355s1.25-.57 1.25-1.355c0-.096-.05-.285-.213-.57a5.55 5.55 0 0 0-.604-.823 9.898 9.898 0 0 0-.433-.468zm-.491-1.6L25 14l.491-.567.001.001.002.002.006.005.02.017a8.753 8.753 0 0 1 .313.29c.198.192.465.462.734.773.267.308.55.674.77 1.057.212.368.413.831.413 1.317 0 1.54-1.195 2.855-2.75 2.855s-2.75-1.315-2.75-2.855c0-.486.2-.95.412-1.317.22-.383.504-.749.77-1.057a11.9 11.9 0 0 1 1.048-1.063l.02-.017.006-.005.003-.003z"/></g></svg>