<?xml version="1.0" encoding="UTF-8"?>
<svg id="Layer_1" data-name="Layer 1" xmlns="http://www.w3.org/2000/svg" width="465.98" height="62.23" viewBox="0 0 465.98 62.23">
  <g>
    <path d="M73.78,25.17l-3.86-19.72v-.06c0-.17.09-.26.26-.26h2.29c.19,0,.3.09.32.26l2.35,13.6s.04.06.06.06.04-.02.06-.06l2.09-13.6c.02-.17.12-.26.29-.26h1.94c.17,0,.27.09.29.26l2.23,13.6s.04.06.06.06.04-.02.06-.06l2.15-13.6c.04-.17.13-.26.29-.26h2.26c.1,0,.17.03.22.09.05.06.06.14.04.23l-3.66,19.72c-.02.17-.13.26-.32.26h-2.06c-.15,0-.25-.09-.29-.26l-2.2-13.72s-.04-.06-.07-.06-.04.02-.04.06l-2.09,13.72c-.02.17-.12.26-.29.26h-2.06c-.17,0-.28-.09-.32-.26Z" style="fill: #0071bc; stroke-width: 0px;"/>
    <path d="M99.13,7.53h-6.53c-.08,0-.12.04-.12.12v6.29c0,.08.04.12.12.12h4c.19,0,.29.1.29.29v1.83c0,.19-.1.29-.29.29h-4c-.08,0-.12.04-.12.12v6.32c0,.08.04.12.12.12h6.53c.19,0,.29.1.29.29v1.83c0,.19-.1.29-.29.29h-9.14c-.19,0-.29-.1-.29-.29V5.41c0-.19.1-.29.29-.29h9.14c.19,0,.29.1.29.29v1.83c0,.19-.1.29-.29.29Z" style="fill: #0071bc; stroke-width: 0px;"/>
    <path d="M117.43,7.53h-6.5c-.08,0-.12.04-.12.12v6.29c0,.08.04.12.12.12h3.97c.19,0,.29.1.29.29v1.83c0,.19-.1.29-.29.29h-3.97c-.08,0-.12.04-.12.12v8.56c0,.19-.1.29-.29.29h-2.2c-.19,0-.29-.1-.29-.29V5.41c0-.19.1-.29.29-.29h9.11c.19,0,.29.1.29.29v1.83c0,.19-.1.29-.29.29Z" style="fill: #0071bc; stroke-width: 0px;"/>
    <path d="M120.97,24.21c-.97-.97-1.45-2.25-1.45-3.86v-10.12c0-1.6.48-2.9,1.45-3.87.97-.98,2.24-1.46,3.83-1.46s2.9.49,3.87,1.46c.98.98,1.47,2.27,1.47,3.87v10.12c0,1.61-.49,2.89-1.47,3.86-.98.97-2.27,1.45-3.87,1.45s-2.86-.48-3.83-1.45ZM126.66,22.48c.46-.51.7-1.18.7-2.02v-10.38c0-.83-.23-1.5-.7-2.02-.46-.51-1.08-.77-1.86-.77s-1.36.26-1.81.77c-.45.51-.68,1.19-.68,2.02v10.38c0,.83.23,1.5.68,2.02.45.51,1.06.77,1.81.77s1.39-.26,1.86-.77Z" style="fill: #0071bc; stroke-width: 0px;"/>
    <path d="M133.33,25.14V5.41c0-.19.1-.29.29-.29h2.2c.19,0,.29.1.29.29v17.49c0,.08.04.12.12.12h6.5c.19,0,.29.1.29.29v1.83c0,.19-.1.29-.29.29h-9.11c-.19,0-.29-.1-.29-.29Z" style="fill: #0071bc; stroke-width: 0px;"/>
    <path d="M145.14,25.14V5.41c0-.19.1-.29.29-.29h2.2c.19,0,.29.1.29.29v17.49c0,.08.04.12.12.12h6.5c.19,0,.29.1.29.29v1.83c0,.19-.1.29-.29.29h-9.11c-.19,0-.29-.1-.29-.29Z" style="fill: #0071bc; stroke-width: 0px;"/>
    <path d="M157.93,24.21c-.97-.97-1.45-2.25-1.45-3.86v-10.12c0-1.6.48-2.9,1.45-3.87.97-.98,2.24-1.46,3.83-1.46s2.9.49,3.87,1.46c.98.98,1.47,2.27,1.47,3.87v10.12c0,1.61-.49,2.89-1.47,3.86-.98.97-2.27,1.45-3.87,1.45s-2.86-.48-3.83-1.45ZM163.61,22.48c.46-.51.7-1.18.7-2.02v-10.38c0-.83-.23-1.5-.7-2.02-.46-.51-1.08-.77-1.86-.77s-1.36.26-1.81.77c-.45.51-.68,1.19-.68,2.02v10.38c0,.83.23,1.5.68,2.02.45.51,1.06.77,1.81.77s1.39-.26,1.86-.77Z" style="fill: #0071bc; stroke-width: 0px;"/>
    <path d="M173.04,25.17l-3.86-19.72v-.06c0-.17.09-.26.26-.26h2.29c.19,0,.3.09.32.26l2.35,13.6s.04.06.06.06.04-.02.06-.06l2.09-13.6c.02-.17.12-.26.29-.26h1.94c.17,0,.27.09.29.26l2.23,13.6s.04.06.06.06.04-.02.06-.06l2.15-13.6c.04-.17.13-.26.29-.26h2.26c.1,0,.17.03.22.09.05.06.06.14.04.23l-3.66,19.72c-.02.17-.13.26-.32.26h-2.06c-.15,0-.25-.09-.29-.26l-2.2-13.72s-.04-.06-.07-.06-.04.02-.04.06l-2.09,13.72c-.02.17-.12.26-.29.26h-2.06c-.17,0-.28-.09-.32-.26Z" style="fill: #0071bc; stroke-width: 0px;"/>
    <path d="M196.06,24.08c-.96-1.05-1.44-2.44-1.44-4.16V5.41c0-.19.1-.29.29-.29h2.2c.19,0,.29.1.29.29v14.79c0,.91.23,1.64.68,2.2.45.56,1.05.84,1.78.84s1.36-.28,1.81-.84c.45-.56.68-1.3.68-2.2V5.41c0-.19.1-.29.29-.29h2.2c.19,0,.29.1.29.29v14.5c0,1.72-.48,3.11-1.45,4.16s-2.24,1.58-3.83,1.58-2.86-.53-3.81-1.58Z" style="fill: #1a5e84; stroke-width: 0px;"/>
    <path d="M216.75,5.12h2.18c.19,0,.29.1.29.29v19.72c0,.19-.1.29-.29.29h-2.49c-.16,0-.26-.08-.32-.23l-4.93-13.26s-.05-.05-.09-.04c-.04,0-.06.03-.06.07l.03,13.17c0,.19-.1.29-.29.29h-2.2c-.19,0-.29-.1-.29-.29V5.41c0-.19.1-.29.29-.29h2.47c.15,0,.26.08.32.23l4.96,13.26c.02.06.05.08.09.07.04,0,.06-.04.06-.1V5.41c0-.19.1-.29.29-.29Z" style="fill: #1a5e84; stroke-width: 0px;"/>
    <path d="M222.82,25.14V5.41c0-.19.1-.29.29-.29h2.2c.19,0,.29.1.29.29v19.72c0,.19-.1.29-.29.29h-2.2c-.19,0-.29-.1-.29-.29Z" style="fill: #1a5e84; stroke-width: 0px;"/>
    <path d="M239.26,5.41v1.83c0,.19-.1.29-.29.29h-3.8c-.08,0-.12.04-.12.12v17.49c0,.19-.1.29-.29.29h-2.2c-.19,0-.29-.1-.29-.29V7.65c0-.08-.04-.12-.12-.12h-3.6c-.19,0-.29-.1-.29-.29v-1.83c0-.19.1-.29.29-.29h10.41c.19,0,.29.1.29.29Z" style="fill: #1a5e84; stroke-width: 0px;"/>
    <path d="M251.36,7.53h-6.53c-.08,0-.12.04-.12.12v6.29c0,.08.04.12.12.12h4c.19,0,.29.1.29.29v1.83c0,.19-.1.29-.29.29h-4c-.08,0-.12.04-.12.12v6.32c0,.08.04.12.12.12h6.53c.19,0,.29.1.29.29v1.83c0,.19-.1.29-.29.29h-9.14c-.19,0-.29-.1-.29-.29V5.41c0-.19.1-.29.29-.29h9.14c.19,0,.29.1.29.29v1.83c0,.19-.1.29-.29.29Z" style="fill: #1a5e84; stroke-width: 0px;"/>
    <path d="M254.46,25.14V5.41c0-.19.1-.29.29-.29h4.76c1.6,0,2.88.49,3.83,1.48.95.99,1.42,2.32,1.42,4v9.34c0,1.68-.47,3.02-1.42,4-.95.99-2.22,1.48-3.83,1.48h-4.76c-.19,0-.29-.1-.29-.29ZM257.36,23.02l2.12-.03c.74,0,1.32-.29,1.77-.86.44-.57.68-1.35.7-2.34v-9.05c0-.99-.22-1.77-.67-2.35-.44-.58-1.04-.87-1.8-.87h-2.12c-.08,0-.12.04-.12.12v15.26c0,.08.04.12.12.12Z" style="fill: #1a5e84; stroke-width: 0px;"/>
    <path d="M282.34,5.12h2.18c.19,0,.29.1.29.29v19.72c0,.19-.1.29-.29.29h-2.49c-.15,0-.26-.08-.32-.23l-4.93-13.26s-.05-.05-.09-.04-.06.03-.06.07l.03,13.17c0,.19-.1.29-.29.29h-2.2c-.19,0-.29-.1-.29-.29V5.41c0-.19.1-.29.29-.29h2.47c.15,0,.26.08.32.23l4.96,13.26c.02.06.05.08.09.07.04,0,.06-.04.06-.1V5.41c0-.19.1-.29.29-.29Z" style="fill: #1a5e84; stroke-width: 0px;"/>
    <path d="M296.03,25.17l-.64-3.34s-.02-.07-.04-.09c-.03-.02-.06-.03-.1-.03h-4.73s-.07.01-.1.03c-.03.02-.04.05-.04.09l-.61,3.34c-.02.17-.13.26-.32.26h-2.2c-.1,0-.17-.03-.22-.09-.05-.06-.06-.13-.04-.23l4.32-19.72c.04-.17.15-.26.32-.26h2.58c.19,0,.3.09.32.26l4.35,19.72v.06c0,.17-.09.26-.26.26h-2.26c-.17,0-.28-.09-.32-.26ZM290.95,19.51h3.86c.06,0,.09-.04.09-.12l-1.97-10.3s-.04-.06-.06-.06-.04.02-.06.06l-1.94,10.3c0,.08.03.12.09.12Z" style="fill: #1a5e84; stroke-width: 0px;"/>
    <path d="M309.37,5.41v1.83c0,.19-.1.29-.29.29h-3.8c-.08,0-.12.04-.12.12v17.49c0,.19-.1.29-.29.29h-2.2c-.19,0-.29-.1-.29-.29V7.65c0-.08-.04-.12-.12-.12h-3.6c-.19,0-.29-.1-.29-.29v-1.83c0-.19.1-.29.29-.29h10.41c.19,0,.29.1.29.29Z" style="fill: #1a5e84; stroke-width: 0px;"/>
    <path d="M312.04,25.14V5.41c0-.19.1-.29.29-.29h2.2c.19,0,.29.1.29.29v19.72c0,.19-.1.29-.29.29h-2.2c-.19,0-.29-.1-.29-.29Z" style="fill: #1a5e84; stroke-width: 0px;"/>
    <path d="M319.47,24.21c-.97-.97-1.45-2.25-1.45-3.86v-10.12c0-1.6.48-2.9,1.45-3.87.97-.98,2.24-1.46,3.83-1.46s2.9.49,3.87,1.46c.98.98,1.46,2.27,1.46,3.87v10.12c0,1.61-.49,2.89-1.46,3.86-.98.97-2.27,1.45-3.87,1.45s-2.86-.48-3.83-1.45ZM325.15,22.48c.46-.51.7-1.18.7-2.02v-10.38c0-.83-.23-1.5-.7-2.02-.46-.51-1.08-.77-1.86-.77s-1.36.26-1.81.77c-.45.51-.68,1.19-.68,2.02v10.38c0,.83.23,1.5.68,2.02.45.51,1.06.77,1.81.77s1.39-.26,1.86-.77Z" style="fill: #1a5e84; stroke-width: 0px;"/>
    <path d="M340.3,5.12h2.18c.19,0,.29.1.29.29v19.72c0,.19-.1.29-.29.29h-2.49c-.15,0-.26-.08-.32-.23l-4.93-13.26s-.05-.05-.09-.04-.06.03-.06.07l.03,13.17c0,.19-.1.29-.29.29h-2.2c-.19,0-.29-.1-.29-.29V5.41c0-.19.1-.29.29-.29h2.47c.15,0,.26.08.32.23l4.96,13.26c.02.06.05.08.09.07.04,0,.06-.04.06-.1V5.41c0-.19.1-.29.29-.29Z" style="fill: #1a5e84; stroke-width: 0px;"/>
    <path d="M347.07,24.22c-.94-.96-1.41-2.21-1.41-3.76v-.75c0-.19.1-.29.29-.29h2.15c.19,0,.29.1.29.29v.61c0,.89.22,1.6.67,2.13.44.53,1.02.8,1.71.8s1.27-.26,1.73-.77c.45-.51.68-1.18.68-2.02,0-.56-.12-1.05-.36-1.48-.24-.43-.56-.81-.96-1.15s-1.04-.84-1.93-1.49c-.99-.73-1.76-1.36-2.32-1.89s-1.04-1.15-1.42-1.89c-.39-.73-.58-1.6-.58-2.58,0-1.57.46-2.81,1.39-3.73.93-.92,2.14-1.38,3.63-1.38s2.79.49,3.73,1.48c.94.99,1.41,2.28,1.41,3.89v.73c0,.19-.1.29-.29.29h-2.15c-.19,0-.29-.1-.29-.29v-.78c0-.87-.22-1.57-.67-2.1-.44-.53-1.03-.8-1.74-.8-.68,0-1.23.24-1.65.71-.43.47-.64,1.14-.64,1.99,0,.77.21,1.43.64,1.96.42.53,1.25,1.24,2.47,2.13,1.16.87,2.03,1.58,2.62,2.12s1.04,1.14,1.36,1.78c.32.65.48,1.42.48,2.31,0,1.62-.47,2.93-1.42,3.9-.95.98-2.19,1.47-3.71,1.47s-2.76-.48-3.7-1.44Z" style="fill: #1a5e84; stroke-width: 0px;"/>
    <path d="M365.55,24.27c-.96-.93-1.44-2.16-1.44-3.68v-10.62c0-1.53.48-2.76,1.44-3.68.96-.93,2.22-1.39,3.79-1.39s2.83.46,3.8,1.39c.97.93,1.45,2.17,1.45,3.71v1.22c0,.19-.1.29-.29.29h-2.2c-.19,0-.29-.1-.29-.29v-1.28c0-.79-.23-1.43-.68-1.91-.45-.48-1.05-.72-1.78-.72s-1.33.24-1.78.72c-.45.48-.68,1.12-.68,1.91v10.67c0,.79.23,1.43.68,1.91.45.48,1.05.73,1.78.73s1.33-.24,1.78-.73c.45-.48.68-1.12.68-1.91v-3.19c0-.08-.04-.12-.12-.12h-2.2c-.19,0-.29-.1-.29-.29v-1.8c0-.19.1-.29.29-.29h4.82c.19,0,.29.1.29.29v5.37c0,1.53-.48,2.76-1.45,3.68-.97.93-2.23,1.39-3.8,1.39s-2.83-.46-3.79-1.39Z" style="fill: #0071bc; stroke-width: 0px;"/>
    <path d="M377.77,25.14V5.41c0-.19.1-.29.29-.29h2.2c.19,0,.29.1.29.29v17.49c0,.08.04.12.12.12h6.5c.19,0,.29.1.29.29v1.83c0,.19-.1.29-.29.29h-9.11c-.19,0-.29-.1-.29-.29Z" style="fill: #0071bc; stroke-width: 0px;"/>
    <path d="M390.56,24.21c-.97-.97-1.45-2.25-1.45-3.86v-10.12c0-1.6.48-2.9,1.45-3.87.97-.98,2.24-1.46,3.83-1.46s2.9.49,3.87,1.46c.98.98,1.46,2.27,1.46,3.87v10.12c0,1.61-.49,2.89-1.46,3.86-.98.97-2.27,1.45-3.87,1.45s-2.86-.48-3.83-1.45ZM396.25,22.48c.46-.51.7-1.18.7-2.02v-10.38c0-.83-.23-1.5-.7-2.02-.46-.51-1.08-.77-1.86-.77s-1.36.26-1.81.77c-.45.51-.68,1.19-.68,2.02v10.38c0,.83.23,1.5.68,2.02.45.51,1.06.77,1.81.77s1.39-.26,1.86-.77Z" style="fill: #0071bc; stroke-width: 0px;"/>
    <path d="M411.99,23.98c-1,.97-2.31,1.45-3.93,1.45h-4.84c-.19,0-.29-.1-.29-.29V5.41c0-.19.1-.29.29-.29h4.44c1.76,0,3.14.46,4.13,1.38,1,.92,1.49,2.26,1.49,4.02,0,2.09-.74,3.53-2.23,4.32-.1.06-.11.11-.03.14.77.46,1.38,1.11,1.81,1.94.44.83.65,1.82.65,2.96,0,1.76-.5,3.12-1.49,4.09ZM405.71,7.65v6.15c0,.08.04.12.12.12h1.86c.91,0,1.61-.28,2.12-.83.5-.55.75-1.32.75-2.31s-.25-1.82-.75-2.39c-.5-.57-1.21-.86-2.12-.86h-1.86c-.08,0-.12.04-.12.12ZM409.93,22.09c.51-.6.77-1.45.77-2.55s-.25-2-.75-2.63c-.5-.63-1.2-.94-2.09-.94h-2.03c-.08,0-.12.04-.12.12v6.79c0,.08.04.12.12.12h2c.89,0,1.59-.3,2.1-.9Z" style="fill: #0071bc; stroke-width: 0px;"/>
    <path d="M423.17,25.17l-.64-3.34s-.02-.07-.04-.09c-.03-.02-.06-.03-.1-.03h-4.73s-.07.01-.1.03c-.03.02-.04.05-.04.09l-.61,3.34c-.02.17-.13.26-.32.26h-2.2c-.1,0-.17-.03-.22-.09-.05-.06-.06-.13-.04-.23l4.32-19.72c.04-.17.15-.26.32-.26h2.58c.19,0,.3.09.32.26l4.35,19.72v.06c0,.17-.09.26-.26.26h-2.26c-.17,0-.28-.09-.32-.26ZM418.09,19.51h3.86c.06,0,.09-.04.09-.12l-1.97-10.3s-.04-.06-.06-.06-.04.02-.06.06l-1.94,10.3c0,.08.03.12.09.12Z" style="fill: #0071bc; stroke-width: 0px;"/>
    <path d="M428.19,25.14V5.41c0-.19.1-.29.29-.29h2.2c.19,0,.29.1.29.29v17.49c0,.08.04.12.12.12h6.5c.19,0,.29.1.29.29v1.83c0,.19-.1.29-.29.29h-9.11c-.19,0-.29-.1-.29-.29Z" style="fill: #0071bc; stroke-width: 0px;"/>
    <path d="M71.99,54.24c-.96-.93-1.44-2.16-1.44-3.68v-10.62c0-1.53.48-2.76,1.44-3.68.96-.93,2.22-1.39,3.79-1.39s2.83.46,3.8,1.39c.97.93,1.45,2.17,1.45,3.71v1.22c0,.19-.1.29-.29.29h-2.2c-.19,0-.29-.1-.29-.29v-1.28c0-.79-.23-1.43-.68-1.91-.45-.48-1.05-.72-1.78-.72s-1.33.24-1.78.72c-.45.48-.68,1.12-.68,1.91v10.67c0,.79.23,1.43.68,1.91.45.48,1.05.73,1.78.73s1.33-.24,1.78-.73c.45-.48.68-1.12.68-1.91v-3.19c0-.08-.04-.12-.12-.12h-2.2c-.19,0-.29-.1-.29-.29v-1.8c0-.19.1-.29.29-.29h4.82c.19,0,.29.1.29.29v5.37c0,1.53-.48,2.76-1.45,3.68-.97.93-2.23,1.39-3.8,1.39s-2.83-.46-3.79-1.39Z" style="fill: #0071bc; stroke-width: 0px;"/>
    <path d="M85.26,54.18c-.97-.97-1.45-2.25-1.45-3.86v-10.12c0-1.6.48-2.9,1.45-3.87.97-.98,2.24-1.46,3.83-1.46s2.9.49,3.87,1.46c.98.98,1.47,2.27,1.47,3.87v10.12c0,1.61-.49,2.89-1.47,3.86-.98.97-2.27,1.45-3.87,1.45s-2.86-.48-3.83-1.45ZM90.95,52.46c.46-.51.7-1.18.7-2.02v-10.38c0-.83-.23-1.5-.7-2.02-.46-.51-1.08-.77-1.86-.77s-1.36.26-1.81.77c-.45.51-.68,1.19-.68,2.02v10.38c0,.83.23,1.5.68,2.02.45.51,1.06.77,1.81.77s1.39-.26,1.86-.77Z" style="fill: #0071bc; stroke-width: 0px;"/>
    <path d="M105.08,55.14l-.64-3.34s-.01-.07-.04-.09c-.03-.02-.06-.03-.1-.03h-4.73s-.07.01-.1.03c-.03.02-.04.05-.04.09l-.61,3.34c-.02.17-.13.26-.32.26h-2.2c-.1,0-.17-.03-.22-.09-.05-.06-.06-.13-.04-.23l4.32-19.72c.04-.17.15-.26.32-.26h2.58c.19,0,.3.09.32.26l4.35,19.72v.06c0,.17-.09.26-.26.26h-2.26c-.17,0-.28-.09-.32-.26ZM100,49.48h3.86c.06,0,.09-.04.09-.12l-1.97-10.3s-.04-.06-.06-.06-.04.02-.06.06l-1.94,10.3c0,.08.03.12.09.12Z" style="fill: #0071bc; stroke-width: 0px;"/>
    <path d="M110.1,55.11v-19.72c0-.19.1-.29.29-.29h2.2c.19,0,.29.1.29.29v17.49c0,.08.04.12.12.12h6.5c.19,0,.29.1.29.29v1.83c0,.19-.1.29-.29.29h-9.11c-.19,0-.29-.1-.29-.29Z" style="fill: #0071bc; stroke-width: 0px;"/>
    <path d="M122.5,54.2c-.94-.96-1.41-2.21-1.41-3.76v-.75c0-.19.1-.29.29-.29h2.15c.19,0,.29.1.29.29v.61c0,.89.22,1.6.67,2.13.44.53,1.02.8,1.71.8s1.27-.26,1.73-.77c.45-.51.68-1.18.68-2.02,0-.56-.12-1.05-.36-1.48-.24-.43-.56-.81-.96-1.15s-1.04-.84-1.93-1.49c-.99-.73-1.76-1.36-2.32-1.89-.56-.52-1.04-1.15-1.42-1.89-.39-.73-.58-1.6-.58-2.58,0-1.57.46-2.81,1.39-3.73.93-.92,2.14-1.38,3.63-1.38s2.79.49,3.73,1.48c.94.99,1.41,2.28,1.41,3.89v.73c0,.19-.1.29-.29.29h-2.15c-.19,0-.29-.1-.29-.29v-.78c0-.87-.22-1.57-.67-2.1-.44-.53-1.03-.8-1.74-.8-.68,0-1.23.24-1.65.71-.43.47-.64,1.14-.64,1.99,0,.77.21,1.43.64,1.96.43.53,1.25,1.24,2.47,2.13,1.16.87,2.03,1.58,2.62,2.12.59.54,1.04,1.14,1.36,1.78.32.65.48,1.42.48,2.31,0,1.62-.47,2.93-1.42,3.9-.95.98-2.19,1.47-3.71,1.47s-2.76-.48-3.7-1.44Z" style="fill: #0071bc; stroke-width: 0px;"/>
    <path d="M149.34,37.5h-6.5c-.08,0-.12.04-.12.12v6.29c0,.08.04.12.12.12h3.97c.19,0,.29.1.29.29v1.83c0,.19-.1.29-.29.29h-3.97c-.08,0-.12.04-.12.12v8.56c0,.19-.1.29-.29.29h-2.2c-.19,0-.29-.1-.29-.29v-19.72c0-.19.1-.29.29-.29h9.11c.19,0,.29.1.29.29v1.83c0,.19-.1.29-.29.29Z" style="fill: #0071bc; stroke-width: 0px;"/>
    <path d="M152.88,54.18c-.97-.97-1.45-2.25-1.45-3.86v-10.12c0-1.6.48-2.9,1.45-3.87.97-.98,2.24-1.46,3.83-1.46s2.9.49,3.87,1.46c.98.98,1.47,2.27,1.47,3.87v10.12c0,1.61-.49,2.89-1.47,3.86-.98.97-2.27,1.45-3.87,1.45s-2.86-.48-3.83-1.45ZM158.57,52.46c.46-.51.7-1.18.7-2.02v-10.38c0-.83-.23-1.5-.7-2.02-.46-.51-1.08-.77-1.86-.77s-1.36.26-1.81.77c-.45.51-.68,1.19-.68,2.02v10.38c0,.83.23,1.5.68,2.02.45.51,1.06.77,1.81.77s1.39-.26,1.86-.77Z" style="fill: #0071bc; stroke-width: 0px;"/>
    <path d="M172.95,55.17l-2.67-8.64c-.02-.06-.06-.09-.12-.09h-2.03c-.08,0-.12.04-.12.12v8.56c0,.19-.1.29-.29.29h-2.2c-.19,0-.29-.1-.29-.29v-19.72c0-.19.1-.29.29-.29h5.19c.99,0,1.86.24,2.61.73.75.48,1.34,1.17,1.75,2.04.42.88.62,1.88.62,3,0,1.22-.25,2.28-.75,3.18-.5.9-1.19,1.55-2.06,1.96-.06.06-.08.12-.06.17l2.96,8.91.03.12c0,.14-.09.2-.26.2h-2.26c-.17,0-.29-.08-.35-.23ZM168.02,37.62v6.5c0,.08.04.12.12.12h2.15c.79,0,1.43-.3,1.91-.91.48-.61.73-1.42.73-2.42s-.24-1.87-.73-2.48c-.48-.61-1.12-.91-1.91-.91h-2.15c-.08,0-.12.04-.12.12Z" style="fill: #0071bc; stroke-width: 0px;"/>
    <path d="M184.89,54.2c-.94-.96-1.41-2.21-1.41-3.76v-.75c0-.19.1-.29.29-.29h2.15c.19,0,.29.1.29.29v.61c0,.89.22,1.6.67,2.13.44.53,1.02.8,1.71.8s1.27-.26,1.73-.77c.45-.51.68-1.18.68-2.02,0-.56-.12-1.05-.36-1.48-.24-.43-.56-.81-.96-1.15s-1.04-.84-1.93-1.49c-.99-.73-1.76-1.36-2.32-1.89-.56-.52-1.04-1.15-1.42-1.89-.39-.73-.58-1.6-.58-2.58,0-1.57.46-2.81,1.39-3.73.93-.92,2.14-1.38,3.63-1.38s2.79.49,3.73,1.48c.94.99,1.41,2.28,1.41,3.89v.73c0,.19-.1.29-.29.29h-2.15c-.19,0-.29-.1-.29-.29v-.78c0-.87-.22-1.57-.67-2.1-.44-.53-1.03-.8-1.74-.8-.68,0-1.23.24-1.65.71-.43.47-.64,1.14-.64,1.99,0,.77.21,1.43.64,1.96.43.53,1.25,1.24,2.47,2.13,1.16.87,2.03,1.58,2.62,2.12.59.54,1.04,1.14,1.36,1.78.32.65.48,1.42.48,2.31,0,1.62-.47,2.93-1.42,3.9-.95.98-2.19,1.47-3.71,1.47s-2.76-.48-3.7-1.44Z" style="fill: #0071bc; stroke-width: 0px;"/>
    <path d="M197.83,54.05c-.96-1.05-1.44-2.44-1.44-4.16v-14.5c0-.19.1-.29.29-.29h2.2c.19,0,.29.1.29.29v14.79c0,.91.23,1.64.68,2.2.45.56,1.05.84,1.78.84s1.36-.28,1.81-.84c.45-.56.68-1.3.68-2.2v-14.79c0-.19.1-.29.29-.29h2.2c.19,0,.29.1.29.29v14.5c0,1.72-.48,3.11-1.45,4.16s-2.24,1.58-3.83,1.58-2.86-.53-3.81-1.58Z" style="fill: #0071bc; stroke-width: 0px;"/>
    <path d="M211.08,54.2c-.94-.96-1.41-2.21-1.41-3.76v-.75c0-.19.1-.29.29-.29h2.15c.19,0,.29.1.29.29v.61c0,.89.22,1.6.67,2.13.44.53,1.02.8,1.71.8s1.27-.26,1.73-.77c.45-.51.68-1.18.68-2.02,0-.56-.12-1.05-.36-1.48-.24-.43-.56-.81-.96-1.15s-1.04-.84-1.93-1.49c-.99-.73-1.76-1.36-2.32-1.89-.56-.52-1.04-1.15-1.42-1.89-.39-.73-.58-1.6-.58-2.58,0-1.57.46-2.81,1.39-3.73.93-.92,2.14-1.38,3.63-1.38s2.79.49,3.73,1.48c.94.99,1.41,2.28,1.41,3.89v.73c0,.19-.1.29-.29.29h-2.15c-.19,0-.29-.1-.29-.29v-.78c0-.87-.22-1.57-.67-2.1-.44-.53-1.03-.8-1.74-.8-.68,0-1.23.24-1.65.71-.43.47-.64,1.14-.64,1.99,0,.77.21,1.43.64,1.96.43.53,1.25,1.24,2.47,2.13,1.16.87,2.03,1.58,2.62,2.12.59.54,1.04,1.14,1.36,1.78.32.65.48,1.42.48,2.31,0,1.62-.47,2.93-1.42,3.9-.95.98-2.19,1.47-3.71,1.47s-2.76-.48-3.7-1.44Z" style="fill: #0071bc; stroke-width: 0px;"/>
    <path d="M232.48,35.38v1.83c0,.19-.1.29-.29.29h-3.8c-.08,0-.12.04-.12.12v17.49c0,.19-.1.29-.29.29h-2.2c-.19,0-.29-.1-.29-.29v-17.49c0-.08-.04-.12-.12-.12h-3.6c-.19,0-.29-.1-.29-.29v-1.83c0-.19.1-.29.29-.29h10.41c.19,0,.29.1.29.29Z" style="fill: #0071bc; stroke-width: 0px;"/>
    <path d="M241.56,55.14l-.64-3.34s-.02-.07-.04-.09c-.03-.02-.06-.03-.1-.03h-4.73s-.07.01-.1.03c-.03.02-.04.05-.04.09l-.61,3.34c-.02.17-.13.26-.32.26h-2.2c-.1,0-.17-.03-.22-.09-.05-.06-.06-.13-.04-.23l4.32-19.72c.04-.17.15-.26.32-.26h2.58c.19,0,.3.09.32.26l4.35,19.72v.06c0,.17-.09.26-.26.26h-2.26c-.17,0-.28-.09-.32-.26ZM236.48,49.48h3.86c.06,0,.09-.04.09-.12l-1.97-10.3s-.04-.06-.06-.06-.04.02-.06.06l-1.94,10.3c0,.08.03.12.09.12Z" style="fill: #0071bc; stroke-width: 0px;"/>
    <path d="M246.57,55.11v-19.72c0-.19.1-.29.29-.29h2.2c.19,0,.29.1.29.29v19.72c0,.19-.1.29-.29.29h-2.2c-.19,0-.29-.1-.29-.29Z" style="fill: #0071bc; stroke-width: 0px;"/>
    <path d="M261.43,35.09h2.18c.19,0,.29.1.29.29v19.72c0,.19-.1.29-.29.29h-2.49c-.15,0-.26-.08-.32-.23l-4.93-13.26s-.05-.05-.09-.04-.06.03-.06.07l.03,13.17c0,.19-.1.29-.29.29h-2.2c-.19,0-.29-.1-.29-.29v-19.72c0-.19.1-.29.29-.29h2.47c.15,0,.26.08.32.23l4.96,13.26c.02.06.05.08.09.07.04,0,.06-.04.06-.1v-13.17c0-.19.1-.29.29-.29Z" style="fill: #0071bc; stroke-width: 0px;"/>
    <path d="M275.12,55.14l-.64-3.34s-.02-.07-.04-.09c-.03-.02-.06-.03-.1-.03h-4.73s-.07.01-.1.03c-.03.02-.04.05-.04.09l-.61,3.34c-.02.17-.13.26-.32.26h-2.2c-.1,0-.17-.03-.22-.09-.05-.06-.06-.13-.04-.23l4.32-19.72c.04-.17.15-.26.32-.26h2.58c.19,0,.3.09.32.26l4.35,19.72v.06c0,.17-.09.26-.26.26h-2.26c-.17,0-.28-.09-.32-.26ZM270.04,49.48h3.86c.06,0,.09-.04.09-.12l-1.97-10.3s-.04-.06-.06-.06-.04.02-.06.06l-1.94,10.3c0,.08.03.12.09.12Z" style="fill: #0071bc; stroke-width: 0px;"/>
    <path d="M289.2,53.95c-1,.97-2.31,1.45-3.93,1.45h-4.84c-.19,0-.29-.1-.29-.29v-19.72c0-.19.1-.29.29-.29h4.44c1.76,0,3.14.46,4.13,1.38,1,.92,1.49,2.26,1.49,4.02,0,2.09-.74,3.53-2.23,4.32-.1.06-.11.11-.03.14.77.46,1.38,1.11,1.81,1.94.44.83.65,1.82.65,2.96,0,1.76-.5,3.12-1.49,4.09ZM282.92,37.62v6.15c0,.08.04.12.12.12h1.86c.91,0,1.61-.28,2.12-.83.5-.55.75-1.32.75-2.31s-.25-1.82-.75-2.39c-.5-.57-1.21-.86-2.12-.86h-1.86c-.08,0-.12.04-.12.12ZM287.14,52.06c.51-.6.77-1.45.77-2.55s-.25-2-.75-2.63c-.5-.63-1.2-.94-2.09-.94h-2.03c-.08,0-.12.04-.12.12v6.79c0,.08.04.12.12.12h2c.89,0,1.59-.3,2.1-.9Z" style="fill: #0071bc; stroke-width: 0px;"/>
    <path d="M293.36,55.11v-19.72c0-.19.1-.29.29-.29h2.2c.19,0,.29.1.29.29v17.49c0,.08.04.12.12.12h6.5c.19,0,.29.1.29.29v1.83c0,.19-.1.29-.29.29h-9.11c-.19,0-.29-.1-.29-.29Z" style="fill: #0071bc; stroke-width: 0px;"/>
    <path d="M314.6,37.5h-6.53c-.08,0-.12.04-.12.12v6.29c0,.08.04.12.12.12h4c.19,0,.29.1.29.29v1.83c0,.19-.1.29-.29.29h-4c-.08,0-.12.04-.12.12v6.32c0,.08.04.12.12.12h6.53c.19,0,.29.1.29.29v1.83c0,.19-.1.29-.29.29h-9.14c-.19,0-.29-.1-.29-.29v-19.72c0-.19.1-.29.29-.29h9.14c.19,0,.29.1.29.29v1.83c0,.19-.1.29-.29.29Z" style="fill: #0071bc; stroke-width: 0px;"/>
    <path d="M323.5,55.11v-19.72c0-.19.1-.29.29-.29h4.76c1.6,0,2.88.49,3.83,1.48.95.99,1.42,2.32,1.42,4v9.34c0,1.68-.47,3.02-1.42,4-.95.99-2.22,1.48-3.83,1.48h-4.76c-.19,0-.29-.1-.29-.29ZM326.4,52.99l2.12-.03c.74,0,1.32-.29,1.77-.86.44-.57.68-1.35.7-2.34v-9.05c0-.99-.22-1.77-.67-2.35-.44-.58-1.04-.87-1.8-.87h-2.12c-.08,0-.12.04-.12.12v15.26c0,.08.04.12.12.12Z" style="fill: #0071bc; stroke-width: 0px;"/>
    <path d="M346.36,37.5h-6.53c-.08,0-.12.04-.12.12v6.29c0,.08.04.12.12.12h4c.19,0,.29.1.29.29v1.83c0,.19-.1.29-.29.29h-4c-.08,0-.12.04-.12.12v6.32c0,.08.04.12.12.12h6.53c.19,0,.29.1.29.29v1.83c0,.19-.1.29-.29.29h-9.14c-.19,0-.29-.1-.29-.29v-19.72c0-.19.1-.29.29-.29h9.14c.19,0,.29.1.29.29v1.83c0,.19-.1.29-.29.29Z" style="fill: #0071bc; stroke-width: 0px;"/>
    <path d="M352.74,55.14l-4.18-19.72v-.06c0-.17.09-.26.26-.26h2.41c.19,0,.3.09.32.26l2.76,15.05s.04.06.06.06.04-.02.06-.06l2.7-15.05c.04-.17.15-.26.32-.26h2.32c.21,0,.3.11.26.32l-4.18,19.72c-.02.17-.13.26-.32.26h-2.47c-.17,0-.28-.09-.32-.26Z" style="fill: #0071bc; stroke-width: 0px;"/>
    <path d="M372.15,37.5h-6.53c-.08,0-.12.04-.12.12v6.29c0,.08.04.12.12.12h4c.19,0,.29.1.29.29v1.83c0,.19-.1.29-.29.29h-4c-.08,0-.12.04-.12.12v6.32c0,.08.04.12.12.12h6.53c.19,0,.29.1.29.29v1.83c0,.19-.1.29-.29.29h-9.14c-.19,0-.29-.1-.29-.29v-19.72c0-.19.1-.29.29-.29h9.14c.19,0,.29.1.29.29v1.83c0,.19-.1.29-.29.29Z" style="fill: #0071bc; stroke-width: 0px;"/>
    <path d="M375.25,55.11v-19.72c0-.19.1-.29.29-.29h2.2c.19,0,.29.1.29.29v17.49c0,.08.04.12.12.12h6.5c.19,0,.29.1.29.29v1.83c0,.19-.1.29-.29.29h-9.11c-.19,0-.29-.1-.29-.29Z" style="fill: #0071bc; stroke-width: 0px;"/>
    <path d="M388.04,54.18c-.97-.97-1.45-2.25-1.45-3.86v-10.12c0-1.6.48-2.9,1.45-3.87.97-.98,2.24-1.46,3.83-1.46s2.9.49,3.87,1.46c.98.98,1.46,2.27,1.46,3.87v10.12c0,1.61-.49,2.89-1.46,3.86-.98.97-2.27,1.45-3.87,1.45s-2.86-.48-3.83-1.45ZM393.73,52.46c.46-.51.7-1.18.7-2.02v-10.38c0-.83-.23-1.5-.7-2.02-.46-.51-1.08-.77-1.86-.77s-1.36.26-1.81.77c-.45.51-.68,1.19-.68,2.02v10.38c0,.83.23,1.5.68,2.02.45.51,1.06.77,1.81.77s1.39-.26,1.86-.77Z" style="fill: #0071bc; stroke-width: 0px;"/>
    <path d="M409.46,36.68c.92,1.07,1.38,2.48,1.38,4.22s-.44,3.07-1.33,4.12c-.89,1.04-2.06,1.57-3.51,1.57h-2.73c-.08,0-.12.04-.12.12v8.41c0,.19-.1.29-.29.29h-2.2c-.19,0-.29-.1-.29-.29v-19.75c0-.19.1-.29.29-.29h5.19c1.49,0,2.69.54,3.61,1.61ZM407.33,43.43c.48-.61.73-1.44.73-2.48s-.24-1.91-.73-2.54c-.48-.63-1.12-.94-1.91-.94h-2.15c-.08,0-.12.04-.12.12v6.64c0,.08.04.12.12.12h2.15c.79,0,1.43-.3,1.91-.91Z" style="fill: #0071bc; stroke-width: 0px;"/>
    <path d="M422.85,35.09h2.2c.19,0,.29.1.29.29v19.72c0,.19-.1.29-.29.29h-2.2c-.19,0-.29-.1-.29-.29v-14.39c0-.06-.02-.09-.04-.09s-.06.02-.1.06l-2.78,5.19c-.06.14-.15.2-.26.2s-.2-.07-.26-.2l-2.76-5.16s-.07-.06-.1-.06-.04.03-.04.09v14.36c0,.19-.1.29-.29.29h-2.2c-.19,0-.29-.1-.29-.29v-19.72c0-.19.1-.29.29-.29h2.2c.14,0,.25.07.35.2l3.05,5.45s.05.03.09.03.07,0,.09-.03l3.02-5.45c.08-.13.19-.2.35-.2Z" style="fill: #0071bc; stroke-width: 0px;"/>
    <path d="M438.28,37.5h-6.53c-.08,0-.12.04-.12.12v6.29c0,.08.04.12.12.12h4c.19,0,.29.1.29.29v1.83c0,.19-.1.29-.29.29h-4c-.08,0-.12.04-.12.12v6.32c0,.08.04.12.12.12h6.53c.19,0,.29.1.29.29v1.83c0,.19-.1.29-.29.29h-9.14c-.19,0-.29-.1-.29-.29v-19.72c0-.19.1-.29.29-.29h9.14c.19,0,.29.1.29.29v1.83c0,.19-.1.29-.29.29Z" style="fill: #0071bc; stroke-width: 0px;"/>
    <path d="M449.85,35.09h2.18c.19,0,.29.1.29.29v19.72c0,.19-.1.29-.29.29h-2.49c-.15,0-.26-.08-.32-.23l-4.93-13.26s-.05-.05-.09-.04-.06.03-.06.07l.03,13.17c0,.19-.1.29-.29.29h-2.2c-.19,0-.29-.1-.29-.29v-19.72c0-.19.1-.29.29-.29h2.47c.15,0,.26.08.32.23l4.96,13.26c.02.06.05.08.09.07.04,0,.06-.04.06-.1v-13.17c0-.19.1-.29.29-.29Z" style="fill: #0071bc; stroke-width: 0px;"/>
    <path d="M465.98,35.38v1.83c0,.19-.1.29-.29.29h-3.8c-.08,0-.12.04-.12.12v17.49c0,.19-.1.29-.29.29h-2.2c-.19,0-.29-.1-.29-.29v-17.49c0-.08-.04-.12-.12-.12h-3.6c-.19,0-.29-.1-.29-.29v-1.83c0-.19.1-.29.29-.29h10.41c.19,0,.29.1.29.29Z" style="fill: #0071bc; stroke-width: 0px;"/>
  </g>
  <g>
    <path d="M15.99,22.24c.77-1.32,1.71-2.52,2.79-3.59l-9.15-10.03c-2.3,2.2-4.26,4.75-5.81,7.56l12.16,6.06Z" style="fill: #3ead49; stroke-width: 0px;"/>
    <path d="M38.41,15.15c1.39.64,2.67,1.45,3.84,2.4l9.17-10.01c-2.42-2.08-5.16-3.8-8.13-5.07l-4.88,12.68Z" style="fill: #d19e2a; stroke-width: 0px;"/>
    <path d="M59.42,18.17l-12.16,6.06c.58,1.36.99,2.79,1.22,4.3l13.52-1.28c-.4-3.2-1.28-6.25-2.58-9.08" style="fill: #c22033; stroke-width: 0px;"/>
    <path d="M46.39,22.47l12.16-6.06c-1.51-2.8-3.43-5.34-5.68-7.54l-9.17,10.01c1.04,1.07,1.95,2.28,2.7,3.59" style="fill: #2c9947; stroke-width: 0px;"/>
    <path d="M13.57,31.11c0-.27,0-.55.02-.82L.07,29.08c-.04.67-.07,1.35-.07,2.03,0,2.59.32,5.12.92,7.52l13.07-3.75c-.27-1.22-.41-2.48-.41-3.78" style="fill: #48773c; stroke-width: 0px;"/>
    <path d="M44.69,42.23c-.96,1.17-2.07,2.21-3.3,3.1l7.14,11.56c2.65-1.8,5.01-3.99,6.99-6.5l-10.84-8.17Z" style="fill: #fcb614; stroke-width: 0px;"/>
    <path d="M48.67,31.11c0,1.28-.14,2.53-.4,3.73l13.06,3.75c.6-2.4.91-4.91.91-7.49,0-.64-.02-1.28-.06-1.91l-13.53,1.28c0,.21.01.42.01.63" style="fill: #ee402a; stroke-width: 0px;"/>
    <path d="M17.77,42.49l-10.81,8.22c2.01,2.48,4.39,4.63,7.06,6.4l7.14-11.55c-1.26-.87-2.4-1.9-3.39-3.06" style="fill: #f89c25; stroke-width: 0px;"/>
    <path d="M13.79,28.34c.24-1.53.68-2.99,1.3-4.36l-12.15-6.05c-1.34,2.86-2.26,5.95-2.68,9.2l13.54,1.21Z" style="fill: #007dba; stroke-width: 0px;"/>
    <path d="M46.87,57.94l-7.13-11.55c-1.3.73-2.69,1.31-4.16,1.69l2.52,13.36c3.13-.72,6.09-1.91,8.78-3.5" style="fill: #8e1837; stroke-width: 0px;"/>
    <path d="M47.75,36.74c-.47,1.39-1.11,2.7-1.9,3.91l10.85,8.18c1.76-2.53,3.15-5.34,4.11-8.34l-13.05-3.75Z" style="fill: #00acd7; stroke-width: 0px;"/>
    <path d="M33.65,48.48c-.83.12-1.67.18-2.53.18-.69,0-1.37-.04-2.04-.12l-2.51,13.36c1.49.22,3.01.33,4.56.33,1.72,0,3.4-.14,5.05-.41l-2.51-13.35Z" style="fill: #f26e24; stroke-width: 0px;"/>
    <path d="M32.24,13.6c1.51.1,2.96.38,4.34.84l4.88-12.68C38.56.73,35.47.12,32.24.01v13.59Z" style="fill: #ea1c2d; stroke-width: 0px;"/>
    <path d="M27.15,48.2c-1.52-.35-2.97-.91-4.31-1.63l-7.15,11.56c2.75,1.57,5.75,2.74,8.94,3.42l2.51-13.35Z" style="fill: #df1a82; stroke-width: 0px;"/>
    <path d="M25.85,14.37c1.41-.45,2.9-.72,4.43-.79V0c-3.27.09-6.4.68-9.35,1.7l4.91,12.67Z" style="fill: #1b3668; stroke-width: 0px;"/>
    <path d="M16.58,40.93c-.86-1.27-1.57-2.67-2.07-4.15l-13.06,3.75c.99,3.11,2.45,6.01,4.31,8.62l10.81-8.22Z" style="fill: #cc8b2a; stroke-width: 0px;"/>
    <path d="M20.25,17.35c1.15-.91,2.41-1.67,3.76-2.28l-4.91-12.66c-2.92,1.23-5.62,2.89-8.01,4.9l9.15,10.04Z" style="fill: #005589; stroke-width: 0px;"/>
  </g>
</svg>