<svg xmlns="http://www.w3.org/2000/svg" viewBox="0 0 36 36" width="36" height="36"><path fill="#EFEFEF" d="M27.623 31.833c-6.917 0-11.667 3.583-15 3.583S2.29 33.5 2.29 18.167 11.707.583 15.373.583c17.167 0 24.5 31.25 12.25 31.25z"/><path fill="#A4AFC1" d="m3.26 3.79.706-.708 1.415 1.414-.707.707zM2.906 8.387l1.415-1.415.707.707-1.415 1.415zM6.972 4.32l1.415-1.414.707.707-1.415 1.415z"/><path fill="#2FDF84" d="m19.25 11.75-4.5 6.5h2.75l-.75 6 4.5-7.5H18.5z"/><path fill="#00B871" d="m18.628 15.899.622-4.149-4.5 6.5H17zM19.75 18.25H17.5l-.75 6 2.842-4.737z"/><path d="M16.75 25a.751.751 0 0 1-.745-.843L16.65 19h-1.9a.749.749 0 0 1-.617-1.176l4.5-6.5a.75.75 0 0 1 1.358.538L19.371 16h1.879a.751.751 0 0 1 .643 1.136l-4.5 7.5a.75.75 0 0 1-.643.364zm-.568-7.5H17.5a.754.754 0 0 1 .745.843l-.309 2.475 1.99-3.317H18.5a.748.748 0 0 1-.741-.862l.271-1.809-1.848 2.67zM8.059 30.009 8 24.759A.75.75 0 0 1 8.75 24H14v1.5H9.508l.05 4.491-1.499.018zM27.25 12H22v-1.5h4.5V6H28v5.25a.75.75 0 0 1-.75.75z"/><path d="M6.512 21.466A12.001 12.001 0 0 1 6 18c0-6.617 5.383-12 12-12 3.69 0 7.108 1.653 9.379 4.536l-1.179.928C24.216 8.945 21.228 7.5 18 7.5 12.21 7.5 7.5 12.21 7.5 18c0 1.025.151 2.046.448 3.034l-1.436.432zM18 30c-3.69 0-7.108-1.653-9.379-4.536l1.179-.928c1.984 2.519 4.972 3.964 8.2 3.964 5.79 0 10.5-4.71 10.5-10.5 0-1.025-.151-2.046-.448-3.034l1.437-.432C29.828 15.662 30 16.828 30 18c0 6.617-5.383 12-12 12z"/></svg>