<svg xmlns="http://www.w3.org/2000/svg" viewBox="0 0 36 36" width="36" height="36"><path fill="#EFEFEF" d="M20.276 3.995C10.613 1.02 5.984 5.425 4.602 7.913c-3.919 7.053.119 18.62 3.918 21.16 5.862 3.919 12.821 4.975 19.165 1.793 6.698-3.36 6.398-11.377 2.78-13.548-7.838-4.703 0-10.189-10.19-13.323Z"/><path fill="#A4AFC1" fill-rule="evenodd" d="M29.393 6a.5.5 0 1 0 0-1 .5.5 0 0 0 0 1Zm0 1a1.5 1.5 0 1 0 0-3 1.5 1.5 0 0 0 0 3Z"/><g fill="#2EDF84" fill-rule="evenodd"><path d="M12.52 12.535c3.547-3.547 8.767-4.397 13.116-2.555a.75.75 0 0 1 .398.398c1.843 4.35.993 9.57-2.554 13.117-3.547 3.547-8.768 4.397-13.116 2.555a.75.75 0 0 1-.398-.398c-1.843-4.35-.993-9.57 2.554-13.117Z"/><path fill="#00B872" d="M22.22 9.1a11.926 11.926 0 0 0-9.7 3.435c-3.547 3.547-4.397 8.768-2.554 13.117a.75.75 0 0 0 .398.398 11.983 11.983 0 0 0 5.916.88 11.94 11.94 0 0 1-3.416-.88.75.75 0 0 1-.398-.398c-1.843-4.35-.993-9.57 2.554-13.117a11.899 11.899 0 0 1 7.2-3.435Z"/><path d="M21.692 14.324a.75.75 0 0 0-1.06 0l-6.323 6.322a.75.75 0 1 0 1.06 1.06l6.323-6.322a.75.75 0 0 0 0-1.06Z"/><path d="M21.692 18.545a.75.75 0 0 0 0-1.06l-3.161-3.161a.75.75 0 0 0-1.06 1.06l3.16 3.161a.75.75 0 0 0 1.061 0zm-1.58 1.58a.75.75 0 0 0 0-1.06l-3.162-3.16a.75.75 0 0 0-1.06 1.06l3.16 3.16a.75.75 0 0 0 1.061 0zm-1.581 1.581a.75.75 0 0 0 0-1.06l-3.161-3.161a.75.75 0 1 0-1.06 1.06l3.16 3.161a.75.75 0 0 0 1.06 0zm-1.69 5.152-7.684-7.684c-.1.657-.145 1.322-.136 1.985l5.835 5.835c.664.01 1.328-.036 1.985-.136zm10.002-10.004c.1-.658.145-1.322.136-1.986l-5.832-5.832a12.02 12.02 0 0 0-1.986.136l7.682 7.682z"/><path fill="#000" d="M24.768 11.246a10.453 10.453 0 0 1-2.349 11.188 10.452 10.452 0 0 1-11.187 2.35 10.452 10.452 0 0 1 2.349-11.188 10.453 10.453 0 0 1 11.187-2.35Zm.868-1.266c-4.348-1.842-9.569-.992-13.116 2.555-3.547 3.547-4.397 8.768-2.554 13.117a.75.75 0 0 0 .398.398c4.349 1.842 9.57.992 13.116-2.555 3.547-3.547 4.397-8.768 2.554-13.117a.75.75 0 0 0-.398-.398Z"/><path fill="#000" d="m21.162 13.793-7.383 7.383 1.06 1.06 7.383-7.382-1.06-1.06Z"/><path fill="#000" d="m22.222 18.015-4.221-4.222-1.06 1.06 4.22 4.223 1.061-1.061zm-1.58 1.58-4.222-4.221-1.06 1.06 4.22 4.222 1.062-1.06zm-1.58 1.581-4.223-4.222-1.06 1.061L18 22.237l1.061-1.061zm7.902-6.322L21.162 9.05l-1.06 1.061 5.801 5.802 1.06-1.06zM15.9 25.916l-5.802-5.802-1.06 1.06 5.802 5.803 1.06-1.061z"/></g></svg>