<svg xmlns="http://www.w3.org/2000/svg" viewBox="0 0 32 32" width="150" height="150">
    <path fill="#00c91e"
        d="M30 16a2.041 2.041 0 0 0-.76-1.592l-1.803-1.502.826-2.148a2.059 2.059 0 0 0-1.592-2.756l-2.313-.4-.36-2.273a2.06 2.06 0 0 0-2.756-1.592l-2.202.812-1.448-1.79a2.11 2.11 0 0 0-3.184 0l-1.502 1.804-2.148-.826A2.06 2.06 0 0 0 8.001 5.33l-.398 2.314L5.33 8a2.06 2.06 0 0 0-1.593 2.757l.812 2.203-1.79 1.447a2.06 2.06 0 0 0 0 3.184l1.804 1.502-.826 2.148a2.06 2.06 0 0 0 1.592 2.756l2.313.4.36 2.273a2.06 2.06 0 0 0 2.756 1.592l2.202-.812 1.448 1.79a2.06 2.06 0 0 0 3.184 0l1.502-1.804 2.148.826a2.06 2.06 0 0 0 2.757-1.592l.399-2.314L26.67 24a2.06 2.06 0 0 0 1.593-2.757l-.812-2.203 1.79-1.447A2.043 2.043 0 0 0 30 16Z" />
    <path fill="#fff"
        d="M14.12 20.716a2.973 2.973 0 0 1-1.792-.595L9.9 18.3a1 1 0 1 1 1.2-1.6l2.428 1.821a1.007 1.007 0 0 0 1.39-.186l5.792-7.45a1 1 0 0 1 1.58 1.23l-5.794 7.448a3.008 3.008 0 0 1-2.376 1.153Z" />
</svg>