<?xml version="1.0" encoding="UTF-8"?>
<svg id="Layer_1" data-name="Layer 1" xmlns="http://www.w3.org/2000/svg" viewBox="0 0 1095 282.84">
  <defs>
    <style>
      .cls-1 {
        opacity: .76;
      }

      .cls-1, .cls-2 {
        fill: #55b5bf;
      }

      .cls-3 {
        fill: #8dc63f;
      }

      .cls-4 {
        fill: #2e4e59;
      }
    </style>
  </defs>
  <g>
    <g>
      <path class="cls-4" d="M341.88,256.99v-40.03h26.02v2.99h-22.75v15.36h18.2v2.84h-18.2v16.07h23.39v2.77h-26.66Z"/>
      <path class="cls-4" d="M426.88,249.2c-1.97,2.91-4.72,4.94-8.25,6.08-3.53,1.14-7.69,1.71-12.48,1.71h-10.38v-40.03h10.38c4.79,0,8.95.75,12.48,2.24,3.53,1.5,6.28,3.71,8.25,6.65,1.97,2.94,2.95,6.64,2.95,11.09,0,5.26-.98,9.35-2.95,12.26ZM404.09,254.14h2.63c2.94,0,5.62-.24,8.03-.71,2.42-.48,4.5-1.34,6.26-2.6,1.75-1.26,3.08-3.01,3.98-5.26.9-2.25,1.35-5.13,1.35-8.64,0-3.89-.81-7.09-2.42-9.6-1.61-2.51-3.89-4.38-6.83-5.62-2.94-1.23-6.4-1.85-10.38-1.85h-7.68v34.27h5.05Z"/>
      <path class="cls-4" d="M471.85,257.98c-5.17,0-9.17-1.58-12.02-4.73-2.84-3.15-4.27-7.6-4.27-13.33v-22.97h3.27v22.97c0,2.51.31,4.7.92,6.58.61,1.87,1.49,3.44,2.63,4.69,1.14,1.26,2.51,2.19,4.12,2.81,1.61.62,3.39.92,5.33.92,2.84,0,5.23-.54,7.14-1.64,1.92-1.09,3.39-2.75,4.41-4.98,1.02-2.23,1.53-5.03,1.53-8.39v-22.97h3.2v22.97c0,5.83-1.39,10.3-4.16,13.4-2.77,3.1-6.82,4.66-12.12,4.66Z"/>
      <path class="cls-4" d="M557.96,256.99h-3.27v-40.03h27.31v2.99h-24.03v14.22h19.2v2.84h-19.2v19.98Z"/>
      <path class="cls-4" d="M624.51,257.98c-6.26,0-11.02-1.89-14.29-5.66-3.27-3.77-4.91-8.85-4.91-15.25,0-4.22.71-7.88,2.13-10.99s3.55-5.52,6.4-7.25c2.84-1.73,6.4-2.6,10.66-2.6,6.26,0,11.01,1.89,14.26,5.66,3.25,3.77,4.87,8.83,4.87,15.18,0,4.12-.72,7.76-2.17,10.91-1.45,3.15-3.58,5.61-6.4,7.36-2.82,1.75-6.34,2.63-10.56,2.63ZM624.51,254.92c3.55,0,6.51-.75,8.85-2.24,2.35-1.5,4.12-3.58,5.33-6.26,1.21-2.68,1.81-5.79,1.81-9.35s-.58-6.73-1.74-9.39c-1.16-2.65-2.94-4.71-5.33-6.19-2.39-1.47-5.37-2.2-8.92-2.2-5.26,0-9.24,1.56-11.95,4.69-2.7,3.13-4.05,7.49-4.05,13.08,0,3.51.57,6.6,1.71,9.28,1.14,2.68,2.9,4.77,5.29,6.29,2.39,1.52,5.39,2.28,9,2.28Z"/>
      <path class="cls-4" d="M686.37,257.98c-5.17,0-9.17-1.58-12.02-4.73-2.84-3.15-4.26-7.6-4.26-13.33v-22.97h3.27v22.97c0,2.51.3,4.7.92,6.58.61,1.87,1.49,3.44,2.63,4.69,1.14,1.26,2.51,2.19,4.12,2.81,1.61.62,3.39.92,5.33.92,2.84,0,5.23-.54,7.14-1.64,1.92-1.09,3.39-2.75,4.41-4.98,1.02-2.23,1.53-5.03,1.53-8.39v-22.97h3.2v22.97c0,5.83-1.39,10.3-4.16,13.4-2.77,3.1-6.82,4.66-12.12,4.66Z"/>
      <path class="cls-4" d="M759.75,216.95h3.2v40.03h-5.97l-23.04-38.54h-.14v38.54h-3.2v-40.03h5.62l23.4,38.54h.14v-38.54Z"/>
      <path class="cls-4" d="M823,249.2c-1.97,2.91-4.72,4.94-8.25,6.08-3.53,1.14-7.69,1.71-12.48,1.71h-10.38v-40.03h10.38c4.79,0,8.95.75,12.48,2.24,3.53,1.5,6.28,3.71,8.25,6.65,1.97,2.94,2.95,6.64,2.95,11.09,0,5.26-.98,9.35-2.95,12.26ZM800.21,254.14h2.63c2.94,0,5.62-.24,8.04-.71,2.42-.48,4.5-1.34,6.26-2.6,1.75-1.26,3.08-3.01,3.98-5.26.9-2.25,1.35-5.13,1.35-8.64,0-3.89-.81-7.09-2.42-9.6-1.61-2.51-3.89-4.38-6.83-5.62-2.94-1.23-6.4-1.85-10.38-1.85h-7.68v34.27h5.05Z"/>
      <path class="cls-4" d="M849.48,256.99l14.72-40.03h5.33l14.86,40.03h-3.41l-14.08-38.54-14.15,38.54h-3.27ZM856.66,243.83l.64-2.85h19.2l.57,2.85h-20.41Z"/>
      <path class="cls-4" d="M902.59,219.87v-2.91h29.86v2.91h-29.86ZM919.16,218.24v38.75h-3.2v-38.75h3.2Z"/>
      <path class="cls-4" d="M957.2,219.87v-2.91h14.36v2.91h-14.36ZM957.2,256.99v-2.85h14.36v2.85h-14.36ZM962.82,255.71v-37.47h3.2v37.47h-3.2Z"/>
      <path class="cls-4" d="M1016.93,257.98c-6.26,0-11.02-1.89-14.29-5.66-3.27-3.77-4.91-8.85-4.91-15.25,0-4.22.71-7.88,2.13-10.99,1.42-3.1,3.55-5.52,6.4-7.25,2.84-1.73,6.4-2.6,10.66-2.6,6.26,0,11.01,1.89,14.25,5.66,3.25,3.77,4.87,8.83,4.87,15.18,0,4.12-.73,7.76-2.17,10.91-1.45,3.15-3.58,5.61-6.4,7.36-2.82,1.75-6.34,2.63-10.56,2.63ZM1016.93,254.92c3.55,0,6.51-.75,8.85-2.24,2.35-1.5,4.12-3.58,5.33-6.26,1.21-2.68,1.81-5.79,1.81-9.35s-.58-6.73-1.74-9.39c-1.16-2.65-2.94-4.71-5.33-6.19-2.39-1.47-5.37-2.2-8.92-2.2-5.26,0-9.24,1.56-11.95,4.69-2.7,3.13-4.05,7.49-4.05,13.08,0,3.51.57,6.6,1.71,9.28,1.14,2.68,2.9,4.77,5.29,6.29,2.39,1.52,5.39,2.28,9,2.28Z"/>
      <path class="cls-4" d="M1091.8,216.95h3.2v40.03h-5.97l-23.04-38.54h-.14v38.54h-3.2v-40.03h5.62l23.4,38.54h.14v-38.54Z"/>
    </g>
    <g>
      <path class="cls-4" d="M454.56,139.27c-.17,8.07-2.76,15.03-7.73,20.72-4.84,5.56-11.25,9.89-18.94,12.87-7.64,2.93-16.26,4.46-25.6,4.46-7.39,0-14.69-.93-21.65-2.76-7.05-1.78-13.5-4.67-19.28-8.49-5.82-3.91-10.49-8.92-13.97-14.9-3.44-6.03-5.26-13.25-5.48-21.53l-.04-2.17h11.17v2.12c0,.38.13,1.87.34,4.5.25,2.55,1.1,5.73,2.55,9.43,1.4,3.61,3.82,7.18,7.26,10.66,3.4,3.48,8.28,6.5,14.56,8.87,6.33,2.46,14.65,3.69,24.8,3.69s17.58-1.23,23.1-3.65c5.48-2.38,9.6-5.22,12.23-8.49,2.67-3.31,4.42-6.45,5.18-9.34,1.02-3.95,1.19-5.48,1.19-6.03.17-6.62-1.32-11.97-4.37-15.92-3.14-4.12-7.51-7.43-12.99-9.89-5.65-2.55-11.97-4.71-18.77-6.45-6.96-1.78-13.88-3.65-20.8-5.56-7.01-2-13.59-4.46-19.49-7.39-6.16-3.01-11.04-7.18-14.61-12.36-3.61-5.22-5.39-12.02-5.18-20.21.34-7.81,3.1-14.56,8.11-20.13,4.97-5.48,11.55-9.72,19.62-12.61,7.94-2.84,16.64-4.29,25.77-4.29,9.72,0,18.6,1.74,26.45,5.22,7.94,3.52,14.27,8.79,18.89,15.58,4.59,6.84,6.79,15.5,6.41,25.69l-.04,2.04h-11.12l.08-2.21c.34-7.3-.93-13.25-3.74-17.75-2.84-4.59-6.45-8.24-10.78-10.83-4.42-2.67-9.04-4.54-13.8-5.6-4.84-1.06-9.04-1.57-12.61-1.57-12.31,0-22.55,2.63-30.32,7.85-7.68,5.14-11.55,11.25-11.85,18.72-.17,6.33,1.27,11.51,4.33,15.29,3.14,3.95,7.47,7.13,12.87,9.51,5.6,2.5,11.89,4.59,18.64,6.2,6.88,1.7,13.84,3.52,20.72,5.48,6.92,2,13.42,4.5,19.28,7.51,6.03,3.1,10.91,7.39,14.44,12.74,3.61,5.39,5.35,12.44,5.18,20.97Z"/>
      <path class="cls-4" d="M583.72,24.42v86.45c0,21.19-5.1,37.7-15.12,49.12-10.06,11.46-24.8,17.32-43.73,17.32s-33.08-5.9-43.39-17.58c-10.28-11.55-15.45-28.02-15.45-48.87V24.42h10.57v86.45c0,9,1.1,17.11,3.31,24.03,2.17,6.88,5.35,12.78,9.47,17.49,4.03,4.71,9.09,8.28,15.03,10.7,5.94,2.42,12.82,3.65,20.47,3.65,10.87,0,19.96-2.12,27-6.33,7.01-4.12,12.4-10.4,16.01-18.64,3.65-8.36,5.52-18.77,5.52-30.91V24.42h10.32Z"/>
      <polygon class="cls-4" points="674.37 168.56 674.37 173.74 662.95 173.74 594.84 94.56 594.93 94.47 591.45 90.48 659.55 26.92 671.35 26.92 671.35 32.27 606.9 91.71 674.37 168.56"/>
      <path class="cls-4" d="M799.07,45.31c-11.76-13.88-29.21-20.89-51.88-20.89-15.37,0-28.32,3.23-38.59,9.55-10.28,6.37-18.09,15.37-23.22,26.75-5.1,11.29-7.64,24.75-7.64,40,0,23.22,5.94,41.95,17.71,55.71,11.85,13.84,29.25,20.89,51.76,20.89,15.2,0,28.11-3.27,38.34-9.72,10.27-6.41,18.13-15.54,23.35-27.13,5.18-11.42,7.77-24.8,7.77-39.74,0-23.01-5.9-41.69-17.58-55.41ZM747.19,166.74c-13.2,0-24.29-2.76-32.95-8.19-8.62-5.39-15.12-13.08-19.28-22.84-4.29-9.89-6.41-21.65-6.41-34.99,0-20.97,5.01-37.36,14.9-48.74,9.85-11.25,24.54-16.98,43.73-16.98,13.2,0,24.29,2.72,32.95,8.02,8.62,5.31,15.12,12.91,19.28,22.59,4.29,9.81,6.41,21.65,6.41,35.11s-2.21,25.35-6.62,35.24c-4.37,9.77-10.91,17.41-19.45,22.72-8.58,5.35-19.53,8.07-32.57,8.07Z"/>
      <path class="cls-4" d="M948.96,45.31c-11.76-13.88-29.21-20.89-51.88-20.89-15.33,0-28.32,3.23-38.59,9.55-10.27,6.37-18.09,15.37-23.22,26.75-5.05,11.29-7.64,24.75-7.64,40,0,23.22,5.94,41.95,17.71,55.71,11.85,13.84,29.3,20.89,51.76,20.89,15.2,0,28.11-3.27,38.38-9.72,10.27-6.41,18.13-15.54,23.31-27.13,5.18-11.42,7.81-24.8,7.81-39.74,0-23.01-5.94-41.69-17.62-55.41ZM897.08,166.74c-13.2,0-24.29-2.76-32.91-8.19-8.62-5.39-15.12-13.08-19.32-22.84-4.25-9.89-6.41-21.65-6.41-34.99,0-20.97,5.01-37.36,14.9-48.74,9.85-11.25,24.54-16.98,43.73-16.98,13.2,0,24.29,2.72,32.95,8.02,8.62,5.31,15.12,12.91,19.32,22.59,4.25,9.81,6.41,21.65,6.41,35.11s-2.25,25.35-6.67,35.24c-4.37,9.77-10.91,17.41-19.45,22.72-8.58,5.35-19.53,8.07-32.57,8.07Z"/>
      <polygon class="cls-4" points="1095 24.42 1095 173.74 1079.88 173.74 1079.25 172.81 989.41 38.6 989.41 177.31 978.83 177.31 978.83 26.92 993.48 26.92 1084.43 162.11 1084.43 24.42 1095 24.42"/>
    </g>
  </g>
  <g>
    <g>
      <path class="cls-3" d="M18.18,94.47c-.29,8.25-1.59,14.04-3.08,18.76-.73,2.29-1.53,4.32-2.26,6.28-1.56,4.08-2.97,7.75-3.64,13.27v.03c-3.08.88-6.14,1.97-9.19,3.2.18-4.79.59-9.48,1.23-14.12.18-1.29.35-2.53.59-3.79.03-.32.09-.65.15-.97.03-.21.06-.38.12-.59,2.56-14.36,7.28-27.98,13.83-40.52.21-.44.47-.88.7-1.32,1.17,5.55,1.88,11.86,1.56,19.76Z"/>
      <path class="cls-3" d="M49.01,94.47c-.26,7.43-1.32,12.86-2.64,17.33v.03c-.85,2.88-1.79,5.32-2.7,7.69-1.15,3.05-2.23,5.9-2.99,9.48-1.53-.09-3.11-.15-4.82-.15h-.35c-4.29.03-8.57.35-12.86,1,.97-7.25,2.82-12.16,4.55-16.62.21-.59.44-1.15.65-1.7,1.76-4.76,3.26-9.37,3.55-17.74.47-11.33-1.64-18.29-4.11-26.34-.68-2.17-1.35-4.43-2-6.84.44-.73.97-1.44,1.5-2.14,3.7-5.17,7.75-10.04,12.13-14.62.32-.32.62-.62.97-.94.68,7.69,2.38,13.42,4.26,19.41,2.67,8.78,5.43,17.85,4.87,32.15Z"/>
      <path class="cls-3" d="M79.87,94.47c-.44,11.63-2.79,18.32-4.99,24.11-.12.32-.23.62-.35.94-1.82,4.73-3.41,8.93-3.93,16.15-2.85-.7-5.52-1.5-8.19-2.29-2.97-.91-5.93-1.79-9.04-2.53.91-7.46,2.73-12.51,4.46-17.03.06-.21.12-.38.21-.59,2.08-5.43,3.91-10.1,4.23-19.44.47-11.33-1.67-18.29-4.11-26.34-2.47-7.93-5.17-16.91-5.37-30.33-.03-2.03,0-4.05.12-6.08.65-.53,1.29-1.06,1.97-1.56,5.08-3.93,10.45-7.55,16.09-10.81.47-.26.88-.5,1.38-.73-1.38,6.34-2,12.69-1.94,18.97.12,10.89,2.29,17.94,4.58,25.4,2.67,8.78,5.46,17.85,4.9,32.15Z"/>
      <path class="cls-3" d="M110.7,94.47c-.44,12.25-3.05,19.03-5.34,25.05-2,5.2-3.73,9.75-4.05,18.41-1.79.18-3.73.29-5.78.38-4.4.18-8.31.03-11.86-.32.24-7.52,1.32-12.98,2.67-17.47.82-2.7,1.7-5.05,2.58-7.28,2.03-5.43,3.85-10.1,4.17-19.44.47-11.33-1.64-18.29-4.11-26.34-2.47-7.93-5.17-16.91-5.34-30.33-.09-8.72.94-17.44,3.02-26.16.65-.29,1.32-.59,2-.85,5.52-2.2,11.16-4.08,16.94-5.58.53-.12,1-.26,1.47-.35-3.96,10.92-5.93,21.91-5.81,32.74.15,10.89,2.26,17.94,4.58,25.4,2.64,8.78,5.43,17.85,4.87,32.15Z"/>
      <path class="cls-3" d="M141.54,94.47c-.26,7.19-1.26,12.48-2.5,16.86-.88,3.08-1.91,5.7-2.82,8.19-1.23,3.2-2.38,6.17-3.11,10.01-4.17.7-7.4,1.94-11.1,3.29-2.26.82-4.64,1.7-7.34,2.5.53-9.19,2.44-15.09,4.35-20.14.24-.68.5-1.32.73-1.94,2.06-5.43,3.88-10.1,4.2-19.44.47-11.33-1.67-18.29-4.14-26.34-2.44-7.93-5.17-16.91-5.34-30.33-.15-11.83,1.79-23.76,5.73-35.56.62-.09,1.26-.18,1.88-.26,5.29-.73,10.63-1.17,16.12-1.26.41-.03.91-.03,1.32-.03-5.02,12.3-7.58,24.7-7.43,36.91.15,10.89,2.29,17.94,4.58,25.4,2.67,8.78,5.43,17.85,4.87,32.15Z"/>
      <path class="cls-3" d="M172.4,94.47c-.35,9.9-2.14,16.21-4.02,21.47-.44,1.23-.88,2.41-1.32,3.58-1.59,4.08-2.97,7.75-3.67,13.33-4.93-1.88-9.31-3.49-17.27-3.88,1.06-6.75,2.82-11.45,4.49-15.74.21-.53.38-1.03.56-1.56,1.79-4.82,3.32-9.46,3.61-17.88.47-11.33-1.67-18.29-4.11-26.34-2.47-7.93-5.17-16.91-5.34-30.33-.15-12.25,1.91-24.58,6.14-36.76.59.03,1.12.06,1.7.12,5.05.41,10.01,1.09,14.86,2.03.44.09.85.15,1.29.26-4.4,11.39-6.52,22.88-6.37,34.15.15,10.89,2.26,17.94,4.58,25.4,2.64,8.78,5.4,17.85,4.87,32.15Z"/>
      <path class="cls-3" d="M203.23,94.47c-.44,12.25-3.02,19.03-5.34,25.05-.12.35-.26.68-.38,1.03-1.82,4.87-3.38,9.43-3.67,17.8-.53.03-1.06.03-1.62.03-1.14,0-2.35-.03-3.58-.06-4.9-.18-8.96-.7-12.39-1.44.32-7.49,1.53-12.89,2.97-17.38v-.03c.7-2.26,1.5-4.29,2.23-6.23,2.06-5.43,3.85-10.1,4.2-19.44.44-11.33-1.7-18.29-4.14-26.34-2.44-7.93-5.17-16.91-5.34-30.33-.12-10.51,1.38-21.08,4.46-31.6.56.18,1.12.32,1.67.5,4.7,1.41,9.31,3.08,13.86,4.99.38.15.76.32,1.12.47-2.41,8.52-3.58,17-3.49,25.43.15,10.89,2.32,17.94,4.58,25.4,2.64,8.78,5.46,17.85,4.87,32.15Z"/>
      <path class="cls-3" d="M234.1,94.47c-.29,7.9-1.47,13.51-2.88,18.12-.79,2.55-1.67,4.79-2.5,6.93-1.47,3.88-2.82,7.4-3.52,12.57-1.47.41-2.94.88-4.4,1.32-4.29,1.32-8.66,2.64-13.71,3.58.38-8.37,1.79-14.12,3.41-18.91.62-1.73,1.23-3.32,1.82-4.85,2.03-5.43,3.85-10.1,4.17-19.44.47-11.33-1.64-18.29-4.11-26.34-2.47-7.93-5.17-16.91-5.37-30.33-.09-6.67.5-13.36,1.76-20.06.56.29,1.09.59,1.67.91,4.7,2.64,9.28,5.55,13.63,8.72.32.26.7.5,1,.76-.29,3.17-.47,6.31-.44,9.46.18,10.89,2.32,17.94,4.61,25.4,2.64,8.78,5.43,17.85,4.87,32.15Z"/>
      <path class="cls-3" d="M264.93,94.47c-.26,7.75-1.44,13.33-2.82,17.88-.79,2.64-1.7,4.93-2.55,7.16-1.17,3.14-2.29,6.05-3.05,9.78-3.44-.35-6.87-.53-10.31-.44-2.73.03-5.23.18-7.55.44,1-6.93,2.79-11.69,4.49-16.06.23-.65.5-1.29.73-1.94,1.7-4.67,3.14-9.28,3.44-17.5.47-11.33-1.64-18.29-4.11-26.34-2.38-7.72-5.02-16.47-5.32-29.34.68.62,1.32,1.23,1.97,1.85,7.34,7.14,13.89,15.06,19.62,23.64.65.97,1.29,1.97,1.82,2.97,2.23,7.58,4.14,15.89,3.64,27.9Z"/>
      <path class="cls-3" d="M282.64,136.08c-4.46-1.82-8.96-3.32-13.45-4.46.82-7.46,2.58-12.54,4.29-17.03.15-.47.32-.91.5-1.35,1.29-3.44,2.53-6.55,3.32-10.75.35,1.15.68,2.32.94,3.49.91,3.49,1.67,7.02,2.32,10.6.15.79.26,1.56.41,2.35.44,2.79.79,5.58,1.09,8.4.03.06.03.12.03.18.09,1.06.18,2.11.26,3.17.03.23.03.5.03.73.12,1.35.18,2.7.23,4.05,0,.21.03.41.03.62Z"/>
    </g>
    <g>
      <path class="cls-2" d="M282.61,148.15c0,.15,0,.26-.03.41-.06,1.17-.12,2.35-.23,3.52-.06.73-.12,1.47-.18,2.17-.06,1-.18,1.97-.29,2.94v.06c-.15,1.32-.29,2.64-.5,3.96-.24,1.64-.47,3.29-.76,4.9-2.73-1.06-5.49-1.97-8.22-2.79-4.38-1.29-8.78-2.23-13.16-2.85-4.35-.62-8.69-.88-13.04-.79-2.03.03-3.94.12-5.73.26h-.03c-4.32.38-8.02,1.09-11.51,1.97-2.79.7-5.43,1.5-8.13,2.32-2.88.88-5.78,1.76-8.9,2.53-3.49.91-7.25,1.64-11.51,2.06-2.53.26-5.2.41-8.13.41-1.17,0-2.38-.03-3.61-.09-2.53-.09-4.82-.29-6.9-.53-5.43-.68-9.6-1.79-13.21-3.02-1.76-.59-3.38-1.2-4.93-1.79-4.61-1.76-8.72-3.32-15.68-3.88v-.03c-1.35-.09-2.82-.15-4.4-.18-3.02-.06-5.58.03-7.84.29-5.49.59-9.22,2-13.65,3.64-1.09.38-2.17.79-3.32,1.2-3.17,1.12-6.72,2.23-11.1,3.02-3.44.65-7.4,1.12-12.07,1.26-2.14.09-4.17.09-6.11.03-4.76-.12-8.9-.62-12.69-1.29-5.29-.97-9.84-2.32-14.33-3.67-2.08-.62-4.11-1.23-6.23-1.79-3.96-1.06-8.13-1.94-13.04-2.41-2.23-.21-4.64-.32-7.28-.32h-.35c-3.61.03-7.19.26-10.81.73-3.82.44-7.66,1.15-11.45,2.11-3.76.94-7.49,2.11-11.19,3.52h-.03c-.06-.26-.09-.5-.12-.76-.06-.23-.09-.5-.12-.73-.09-.5-.18-1-.24-1.5-.15-.85-.29-1.76-.38-2.61-.09-.47-.15-.91-.18-1.38-.09-.7-.18-1.38-.24-2.08-.06-.21-.09-.44-.09-.68-.12-.88-.18-1.76-.26-2.64-.03-.35-.06-.7-.09-1.06-.12-1.5-.24-3.02-.29-4.55,2.94-1,5.9-1.85,8.87-2.61,4.32-1.09,8.69-1.91,13.07-2.47,4.46-.59,8.96-.88,13.48-.91h.41c1.29,0,2.53.03,3.73.06,4.99.21,9.34.73,13.27,1.47,5.52,1.03,10.19,2.44,14.56,3.73,1.18.35,2.29.68,3.44,1v.03c4.32,1.23,8.52,2.29,13.48,2.85,3.17.35,6.61.5,10.57.35,2.73-.09,5.11-.32,7.22-.62,5.2-.76,8.93-2.03,12.66-3.41.38-.15.76-.26,1.14-.41,4.49-1.64,9.34-3.44,16.21-4.38,3.35-.44,7.16-.7,11.66-.65.53,0,1.06.03,1.56.03,7.69.23,13.18,1.41,17.74,2.79,2.47.76,4.67,1.62,6.78,2.41,2.26.88,4.4,1.67,6.81,2.35,3.35.97,7.19,1.67,12.63,1.88,1.94.09,3.76.09,5.49,0,4.84-.18,8.9-.88,12.74-1.85,2.7-.65,5.34-1.47,8.1-2.32,2.85-.85,5.81-1.76,9.1-2.58,3.88-.97,8.16-1.82,13.13-2.29,2.53-.23,5.2-.41,8.1-.44,3.14-.03,6.31.12,9.51.38,4.43.35,8.87,1,13.3,1.91,4.61.97,9.19,2.2,13.77,3.79h.03Z"/>
      <path class="cls-2" d="M278.08,177.54c-.03.09-.06.18-.09.26-.18.73-.38,1.44-.59,2.17-1.35,4.85-3,9.6-4.84,14.24-2.53-.73-5.08-1.38-7.61-1.88v-.03c-5.87-1.2-11.78-1.82-17.62-1.79-.38,0-.76.03-1.14.03-4.58.06-8.49.44-12.04,1.09-4.87.85-9.04,2.14-13.36,3.47-1.47.44-2.91.88-4.43,1.32-4.08,1.17-8.43,2.29-13.45,2.94-3.23.44-6.75.7-10.69.7-1.14,0-2.35-.03-3.58-.06-1.2-.06-2.35-.12-3.46-.21-5.26-.41-9.4-1.23-12.95-2.2-3.26-.91-6.05-1.97-8.63-2.97-2.85-1.09-5.49-2.11-8.75-2.85-3.05-.7-6.61-1.17-11.33-1.23-.68,0-1.32-.03-1.91-.03-8.05.06-12.63,1.44-17.65,3.29-.62.21-1.26.47-1.94.7-3.38,1.23-6.96,2.55-11.51,3.58v.03c-4.05.94-8.9,1.64-14.98,1.88-1,.06-1.97.06-2.94.06-4.9.06-9.16-.29-13.04-.88-6.49-.97-11.86-2.55-17.15-4.14-.06-.03-.12-.03-.18-.06-4.26-1.26-8.4-2.47-13.16-3.32-3.88-.7-8.13-1.12-13.21-1.12h-.35c-1.35,0-2.7.03-4.05.12-4.4.21-8.81.73-13.18,1.62-2.73.5-5.46,1.17-8.16,1.94-2.2-5.43-4.05-11.01-5.55-16.74,4.05-1.17,8.1-2.14,12.19-2.88,4.08-.7,8.19-1.2,12.3-1.44,2.11-.15,4.26-.23,6.4-.23h.41c4.26,0,8.08.26,11.54.7,5.02.59,9.37,1.56,13.33,2.61,2.35.62,4.55,1.26,6.7,1.91,4.05,1.2,7.84,2.35,12.01,3.14,3.91.73,8.13,1.2,13.24,1.12.73,0,1.47,0,2.23-.03,6.64-.23,11.22-1.17,15.21-2.38v-.03c2.03-.59,3.91-1.29,5.81-2,2-.73,4.08-1.5,6.4-2.2,4.58-1.41,10.04-2.55,17.44-2.79,1.29-.06,2.61-.09,4.02-.06,3.29.06,6.17.26,8.78.62,7.61.94,12.69,2.88,17.3,4.64.62.23,1.23.47,1.82.7,3.88,1.41,7.66,2.64,13.48,3.2,1.26.15,2.64.23,4.14.29,5.26.21,9.57-.12,13.51-.82,4.43-.76,8.4-1.97,12.6-3.23v-.03c.09,0,.15-.03.23-.06,4.93-1.53,10.28-3.14,16.88-4.23,3.67-.56,7.75-.97,12.33-1.06.35-.03.73-.03,1.12-.03,5.78-.06,11.6.35,17.44,1.29,4.46.68,8.96,1.67,13.42,2.97.41.12.79.23,1.2.35h.03Z"/>
      <path class="cls-2" d="M267.31,205.76c-1.85,3.58-3.85,7.08-5.99,10.45v.03s-.03.03-.03.06c-.18.26-.35.56-.53.82-.21.32-.38.62-.59.91-.38.59-.76,1.17-1.18,1.76-.47.73-.97,1.44-1.47,2.17-3.79-.47-7.58-.65-11.33-.59-1.67.03-3.26.09-4.79.21-5.05.35-9.25,1.17-13.18,2.2-2.55.65-4.96,1.38-7.43,2.14-3.82,1.17-7.69,2.38-12.07,3.29-3.91.82-8.19,1.44-13.18,1.64-1.06.03-2.17.06-3.29.06-1.17,0-2.38-.03-3.61-.09-4.2-.15-7.75-.56-10.84-1.15-4.85-.85-8.57-2.08-11.95-3.35-.76-.29-1.53-.56-2.26-.85-4.4-1.67-8.34-3.2-14.74-3.79-1.61-.15-3.38-.26-5.34-.29-2.73-.06-5.05.03-7.14.21v.03c-5.87.53-9.75,2-14.36,3.7-1.7.62-3.47,1.26-5.37,1.91-3.7,1.2-7.99,2.32-13.48,3-2.32.26-4.85.5-7.63.59-3.82.15-7.25.06-10.42-.18-4.61-.38-8.66-1.06-12.42-1.94-3.61-.85-6.96-1.82-10.28-2.82-2.23-.68-4.43-1.32-6.7-1.94-3.67-.94-7.49-1.73-11.95-2.2-2.41-.23-5.02-.38-7.9-.38h-.35c-3.38.03-6.72.23-10.1.62-.09,0-.18.03-.26.03-3.14-4.49-5.99-9.16-8.55-14.01-.15-.26-.29-.53-.44-.79-.29-.5-.56-1-.82-1.5h.06c.56-.12,1.12-.23,1.67-.29,4.4-.79,8.81-1.29,13.21-1.53,1.73-.09,3.44-.15,5.17-.15h.41c4.52,0,8.55.29,12.19.79,4.64.59,8.69,1.47,12.39,2.47,2.47.65,4.76,1.32,6.99,2,3.38,1.03,6.61,1.97,9.98,2.73,3.7.79,7.58,1.38,12.19,1.5,1.67.09,3.44.06,5.32,0,5.7-.21,9.9-.94,13.48-1.94,2.73-.7,5.08-1.59,7.55-2.5,2-.73,4.05-1.5,6.31-2.2,4.76-1.44,10.48-2.64,18.44-2.79,1-.03,2.03-.03,3.11-.03,3.67.06,6.87.29,9.72.7,7.08,1,11.92,2.85,16.36,4.52.21.09.44.18.65.23v.03c3.64,1.38,7.02,2.58,11.8,3.32,2.03.29,4.32.53,6.99.65,4.26.18,7.93-.03,11.25-.47,4.9-.68,9.07-1.85,13.48-3.2v-.03c.53-.15,1.09-.29,1.61-.47,5.08-1.53,10.57-3.23,17.41-4.26,3.85-.62,8.1-1.03,12.92-1.06h.24c5.84-.03,11.75.41,17.65,1.38,1.14.18,2.29.38,3.44.62Z"/>
      <path class="cls-2" d="M247.69,234.59c-1.41,1.59-2.85,3.17-4.29,4.7-1.06,1.09-2.11,2.14-3.2,3.2l-.56.56c-.62.53-1.18,1.09-1.76,1.62v-.03c-4.08,3.82-8.37,7.46-12.86,10.75-.09.06-.21.15-.29.21,0,0-.03,0-.03.03-1.32.38-2.61.76-3.91,1.17-4.08,1.23-8.25,2.53-12.98,3.47-3.82.76-8.02,1.29-12.83,1.44-.91.06-1.82.06-2.76.06-1.14,0-2.35-.03-3.58-.06-4.58-.18-8.4-.65-11.66-1.29-5.55-1.09-9.6-2.64-13.39-4.08-.06-.03-.15-.06-.21-.09-5.05-1.94-9.54-3.61-17.94-3.93-.62-.03-1.26-.06-1.94-.06-4.61-.09-8.16.23-11.22.82-3.79.73-6.84,1.85-10.28,3.14-2.14.79-4.4,1.62-6.93,2.38-3.52,1.09-7.61,2.03-12.71,2.61-2.11.23-4.38.41-6.84.5-4.02.15-7.64.03-10.95-.23-5.02-.44-9.34-1.26-13.33-2.26-3.08-.76-5.99-1.62-8.84-2.47-1.64-.5-3.26-1-4.93-1.47h-.03c-1.56-1.15-3.05-2.29-4.55-3.52-4.73-3.73-9.16-7.78-13.33-12.13l-.18-.18c-1.5-1.59-2.97-3.2-4.4-4.85h.88c1.64,0,3.23.03,4.73.12,4.82.23,9.01.79,12.83,1.53,5.29,1,9.78,2.35,14.01,3.61,1.09.32,2.17.65,3.23.97,4.2,1.2,8.28,2.26,13.04,2.82,3.32.41,6.99.59,11.22.44,2.38-.09,4.52-.26,6.43-.53,5.55-.7,9.46-2,13.36-3.44.41-.18.82-.32,1.23-.47,4.64-1.7,9.78-3.55,17.09-4.46,3.14-.38,6.7-.62,10.78-.56.79,0,1.59.03,2.35.06,7.52.32,12.92,1.5,17.38,2.91,2.29.73,4.35,1.53,6.34,2.29,2.14.82,4.17,1.59,6.4,2.23,3.44,1.03,7.4,1.76,13.04,1.97,1.59.06,3.11.06,4.52.03,5.11-.12,9.31-.79,13.27-1.73,2.88-.7,5.64-1.56,8.54-2.44,3-.94,6.14-1.88,9.6-2.76,3.94-.94,8.31-1.76,13.39-2.2,2.29-.21,4.73-.35,7.34-.38h1.7Z"/>
      <path class="cls-2" d="M188.23,274.85c-2.58.91-5.2,1.76-7.84,2.5-3.73,1.09-7.55,2.03-11.39,2.76-2.32.47-4.67.88-7.02,1.23-.82.12-1.64.23-2.47.32-.97.15-1.97.26-2.97.35-1.82.21-3.64.35-5.46.47-3.23.23-6.49.35-9.78.35-.7,0-1.44,0-2.14-.03-.32,0-.68,0-1-.03-1.29-.03-2.58-.06-3.88-.12-.91-.03-1.82-.09-2.73-.18-.79-.03-1.59-.09-2.38-.18-1.06-.09-2.11-.18-3.14-.29-1.32-.15-2.64-.32-3.96-.5-.62-.09-1.23-.18-1.82-.23-.12-.03-.23-.03-.35-.06-4.46-.68-8.87-1.59-13.18-2.67-2.23-.56-4.43-1.17-6.61-1.85-1.85-.56-3.64-1.17-5.46-1.79h.26c4.11-.15,7.43-.56,10.28-1.15,4.17-.85,7.4-2.03,10.75-3.26.35-.12.68-.26,1.03-.35,4.61-1.73,9.75-3.47,17.09-4.26,2.88-.32,6.11-.47,9.75-.44,1.06,0,2.08.06,3.05.09,8.34.44,14.04,1.94,18.76,3.58,1.5.53,2.88,1.06,4.26,1.59,3.11,1.17,5.96,2.26,9.57,3.02,2.47.56,5.29.94,8.78,1.12Z"/>
      <path class="cls-1" d="M188.23,274.85c-2.58.91-5.2,1.76-7.84,2.5-3.73,1.09-7.55,2.03-11.39,2.76-2.32.47-4.67.88-7.02,1.23-.82.12-1.64.23-2.47.32-.97.15-1.97.26-2.97.35-1.82.21-3.64.35-5.46.47-3.23.23-6.49.35-9.78.35-.7,0-1.44,0-2.14-.03-.32,0-.68,0-1-.03-1.29-.03-2.58-.06-3.88-.12-.91-.03-1.82-.09-2.73-.18-.79-.03-1.59-.09-2.38-.18-1.06-.09-2.11-.18-3.14-.29-1.32-.15-2.64-.32-3.96-.5-.62-.09-1.23-.18-1.82-.23-.12-.03-.23-.03-.35-.06-4.46-.68-8.87-1.59-13.18-2.67-2.23-.56-4.43-1.17-6.61-1.85-1.85-.56-3.64-1.17-5.46-1.79h.26c4.11-.15,7.43-.56,10.28-1.15,4.17-.85,7.4-2.03,10.75-3.26.35-.12.68-.26,1.03-.35,4.61-1.73,9.75-3.47,17.09-4.26,2.88-.32,6.11-.47,9.75-.44,1.06,0,2.08.06,3.05.09,8.34.44,14.04,1.94,18.76,3.58,1.5.53,2.88,1.06,4.26,1.59,3.11,1.17,5.96,2.26,9.57,3.02,2.47.56,5.29.94,8.78,1.12Z"/>
      <path class="cls-1" d="M247.69,234.59c-1.41,1.59-2.85,3.17-4.29,4.7-1.06,1.09-2.11,2.14-3.2,3.2l-.56.56c-.62.53-1.18,1.09-1.76,1.62v-.03c-4.08,3.82-8.37,7.46-12.86,10.75-.09.06-.21.15-.29.21,0,0-.03,0-.03.03-1.32.38-2.61.76-3.91,1.17-4.08,1.23-8.25,2.53-12.98,3.47-3.82.76-8.02,1.29-12.83,1.44-.91.06-1.82.06-2.76.06-1.14,0-2.35-.03-3.58-.06-4.58-.18-8.4-.65-11.66-1.29-5.55-1.09-9.6-2.64-13.39-4.08-.06-.03-.15-.06-.21-.09-5.05-1.94-9.54-3.61-17.94-3.93-.62-.03-1.26-.06-1.94-.06-4.61-.09-8.16.23-11.22.82-3.79.73-6.84,1.85-10.28,3.14-2.14.79-4.4,1.62-6.93,2.38-3.52,1.09-7.61,2.03-12.71,2.61-2.11.23-4.38.41-6.84.5-4.02.15-7.64.03-10.95-.23-5.02-.44-9.34-1.26-13.33-2.26-3.08-.76-5.99-1.62-8.84-2.47-1.64-.5-3.26-1-4.93-1.47h-.03c-1.56-1.15-3.05-2.29-4.55-3.52-4.73-3.73-9.16-7.78-13.33-12.13l-.18-.18c-1.5-1.59-2.97-3.2-4.4-4.85h.88c1.64,0,3.23.03,4.73.12,4.82.23,9.01.79,12.83,1.53,5.29,1,9.78,2.35,14.01,3.61,1.09.32,2.17.65,3.23.97,4.2,1.2,8.28,2.26,13.04,2.82,3.32.41,6.99.59,11.22.44,2.38-.09,4.52-.26,6.43-.53,5.55-.7,9.46-2,13.36-3.44.41-.18.82-.32,1.23-.47,4.64-1.7,9.78-3.55,17.09-4.46,3.14-.38,6.7-.62,10.78-.56.79,0,1.59.03,2.35.06,7.52.32,12.92,1.5,17.38,2.91,2.29.73,4.35,1.53,6.34,2.29,2.14.82,4.17,1.59,6.4,2.23,3.44,1.03,7.4,1.76,13.04,1.97,1.59.06,3.11.06,4.52.03,5.11-.12,9.31-.79,13.27-1.73,2.88-.7,5.64-1.56,8.54-2.44,3-.94,6.14-1.88,9.6-2.76,3.94-.94,8.31-1.76,13.39-2.2,2.29-.21,4.73-.35,7.34-.38h1.7Z"/>
      <path class="cls-1" d="M267.31,205.76c-1.85,3.58-3.85,7.08-5.99,10.45v.03s-.03.03-.03.06c-.18.26-.35.56-.53.82-.21.32-.38.62-.59.91-.38.59-.76,1.17-1.18,1.76-.47.73-.97,1.44-1.47,2.17-3.79-.47-7.58-.65-11.33-.59-1.67.03-3.26.09-4.79.21-5.05.35-9.25,1.17-13.18,2.2-2.55.65-4.96,1.38-7.43,2.14-3.82,1.17-7.69,2.38-12.07,3.29-3.91.82-8.19,1.44-13.18,1.64-1.06.03-2.17.06-3.29.06-1.17,0-2.38-.03-3.61-.09-4.2-.15-7.75-.56-10.84-1.15-4.85-.85-8.57-2.08-11.95-3.35-.76-.29-1.53-.56-2.26-.85-4.4-1.67-8.34-3.2-14.74-3.79-1.61-.15-3.38-.26-5.34-.29-2.73-.06-5.05.03-7.14.21v.03c-5.87.53-9.75,2-14.36,3.7-1.7.62-3.47,1.26-5.37,1.91-3.7,1.2-7.99,2.32-13.48,3-2.32.26-4.85.5-7.63.59-3.82.15-7.25.06-10.42-.18-4.61-.38-8.66-1.06-12.42-1.94-3.61-.85-6.96-1.82-10.28-2.82-2.23-.68-4.43-1.32-6.7-1.94-3.67-.94-7.49-1.73-11.95-2.2-2.41-.23-5.02-.38-7.9-.38h-.35c-3.38.03-6.72.23-10.1.62-.09,0-.18.03-.26.03-3.14-4.49-5.99-9.16-8.55-14.01-.15-.26-.29-.53-.44-.79-.29-.5-.56-1-.82-1.5h.06c.56-.12,1.12-.23,1.67-.29,4.4-.79,8.81-1.29,13.21-1.53,1.73-.09,3.44-.15,5.17-.15h.41c4.52,0,8.55.29,12.19.79,4.64.59,8.69,1.47,12.39,2.47,2.47.65,4.76,1.32,6.99,2,3.38,1.03,6.61,1.97,9.98,2.73,3.7.79,7.58,1.38,12.19,1.5,1.67.09,3.44.06,5.32,0,5.7-.21,9.9-.94,13.48-1.94,2.73-.7,5.08-1.59,7.55-2.5,2-.73,4.05-1.5,6.31-2.2,4.76-1.44,10.48-2.64,18.44-2.79,1-.03,2.03-.03,3.11-.03,3.67.06,6.87.29,9.72.7,7.08,1,11.92,2.85,16.36,4.52.21.09.44.18.65.23v.03c3.64,1.38,7.02,2.58,11.8,3.32,2.03.29,4.32.53,6.99.65,4.26.18,7.93-.03,11.25-.47,4.9-.68,9.07-1.85,13.48-3.2v-.03c.53-.15,1.09-.29,1.61-.47,5.08-1.53,10.57-3.23,17.41-4.26,3.85-.62,8.1-1.03,12.92-1.06h.24c5.84-.03,11.75.41,17.65,1.38,1.14.18,2.29.38,3.44.62Z"/>
      <path class="cls-1" d="M278.08,177.54c-.03.09-.06.18-.09.26-.18.73-.38,1.44-.59,2.17-1.35,4.85-3,9.6-4.84,14.24-2.53-.73-5.08-1.38-7.61-1.88v-.03c-5.87-1.2-11.78-1.82-17.62-1.79-.38,0-.76.03-1.14.03-4.58.06-8.49.44-12.04,1.09-4.87.85-9.04,2.14-13.36,3.47-1.47.44-2.91.88-4.43,1.32-4.08,1.17-8.43,2.29-13.45,2.94-3.23.44-6.75.7-10.69.7-1.14,0-2.35-.03-3.58-.06-1.2-.06-2.35-.12-3.46-.21-5.26-.41-9.4-1.23-12.95-2.2-3.26-.91-6.05-1.97-8.63-2.97-2.85-1.09-5.49-2.11-8.75-2.85-3.05-.7-6.61-1.17-11.33-1.23-.68,0-1.32-.03-1.91-.03-8.05.06-12.63,1.44-17.65,3.29-.62.21-1.26.47-1.94.7-3.38,1.23-6.96,2.55-11.51,3.58v.03c-4.05.94-8.9,1.64-14.98,1.88-1,.06-1.97.06-2.94.06-4.9.06-9.16-.29-13.04-.88-6.49-.97-11.86-2.55-17.15-4.14-.06-.03-.12-.03-.18-.06-4.26-1.26-8.4-2.47-13.16-3.32-3.88-.7-8.13-1.12-13.21-1.12h-.35c-1.35,0-2.7.03-4.05.12-4.4.21-8.81.73-13.18,1.62-2.73.5-5.46,1.17-8.16,1.94-2.2-5.43-4.05-11.01-5.55-16.74,4.05-1.17,8.1-2.14,12.19-2.88,4.08-.7,8.19-1.2,12.3-1.44,2.11-.15,4.26-.23,6.4-.23h.41c4.26,0,8.08.26,11.54.7,5.02.59,9.37,1.56,13.33,2.61,2.35.62,4.55,1.26,6.7,1.91,4.05,1.2,7.84,2.35,12.01,3.14,3.91.73,8.13,1.2,13.24,1.12.73,0,1.47,0,2.23-.03,6.64-.23,11.22-1.17,15.21-2.38v-.03c2.03-.59,3.91-1.29,5.81-2,2-.73,4.08-1.5,6.4-2.2,4.58-1.41,10.04-2.55,17.44-2.79,1.29-.06,2.61-.09,4.02-.06,3.29.06,6.17.26,8.78.62,7.61.94,12.69,2.88,17.3,4.64.62.23,1.23.47,1.82.7,3.88,1.41,7.66,2.64,13.48,3.2,1.26.15,2.64.23,4.14.29,5.26.21,9.57-.12,13.51-.82,4.43-.76,8.4-1.97,12.6-3.23v-.03c.09,0,.15-.03.23-.06,4.93-1.53,10.28-3.14,16.88-4.23,3.67-.56,7.75-.97,12.33-1.06.35-.03.73-.03,1.12-.03,5.78-.06,11.6.35,17.44,1.29,4.46.68,8.96,1.67,13.42,2.97.41.12.79.23,1.2.35h.03Z"/>
      <path class="cls-1" d="M282.61,148.15c0,.15,0,.26-.03.41-.06,1.17-.12,2.35-.23,3.52-.06.73-.12,1.47-.18,2.17-.06,1-.18,1.97-.29,2.94v.06c-.15,1.32-.29,2.64-.5,3.96-.24,1.64-.47,3.29-.76,4.9-2.73-1.06-5.49-1.97-8.22-2.79-4.38-1.29-8.78-2.23-13.16-2.85-4.35-.62-8.69-.88-13.04-.79-2.03.03-3.94.12-5.73.26h-.03c-4.32.38-8.02,1.09-11.51,1.97-2.79.7-5.43,1.5-8.13,2.32-2.88.88-5.78,1.76-8.9,2.53-3.49.91-7.25,1.64-11.51,2.06-2.53.26-5.2.41-8.13.41-1.17,0-2.38-.03-3.61-.09-2.53-.09-4.82-.29-6.9-.53-5.43-.68-9.6-1.79-13.21-3.02-1.76-.59-3.38-1.2-4.93-1.79-4.61-1.76-8.72-3.32-15.68-3.88v-.03c-1.35-.09-2.82-.15-4.4-.18-3.02-.06-5.58.03-7.84.29-5.49.59-9.22,2-13.65,3.64-1.09.38-2.17.79-3.32,1.2-3.17,1.12-6.72,2.23-11.1,3.02-3.44.65-7.4,1.12-12.07,1.26-2.14.09-4.17.09-6.11.03-4.76-.12-8.9-.62-12.69-1.29-5.29-.97-9.84-2.32-14.33-3.67-2.08-.62-4.11-1.23-6.23-1.79-3.96-1.06-8.13-1.94-13.04-2.41-2.23-.21-4.64-.32-7.28-.32h-.35c-3.61.03-7.19.26-10.81.73-3.82.44-7.66,1.15-11.45,2.11-3.76.94-7.49,2.11-11.19,3.52h-.03c-.06-.26-.09-.5-.12-.76-.06-.23-.09-.5-.12-.73-.09-.5-.18-1-.24-1.5-.15-.85-.29-1.76-.38-2.61-.09-.47-.15-.91-.18-1.38-.09-.7-.18-1.38-.24-2.08-.06-.21-.09-.44-.09-.68-.12-.88-.18-1.76-.26-2.64-.03-.35-.06-.7-.09-1.06-.12-1.5-.24-3.02-.29-4.55,2.94-1,5.9-1.85,8.87-2.61,4.32-1.09,8.69-1.91,13.07-2.47,4.46-.59,8.96-.88,13.48-.91h.41c1.29,0,2.53.03,3.73.06,4.99.21,9.34.73,13.27,1.47,5.52,1.03,10.19,2.44,14.56,3.73,1.18.35,2.29.68,3.44,1v.03c4.32,1.23,8.52,2.29,13.48,2.85,3.17.35,6.61.5,10.57.35,2.73-.09,5.11-.32,7.22-.62,5.2-.76,8.93-2.03,12.66-3.41.38-.15.76-.26,1.14-.41,4.49-1.64,9.34-3.44,16.21-4.38,3.35-.44,7.16-.7,11.66-.65.53,0,1.06.03,1.56.03,7.69.23,13.18,1.41,17.74,2.79,2.47.76,4.67,1.62,6.78,2.41,2.26.88,4.4,1.67,6.81,2.35,3.35.97,7.19,1.67,12.63,1.88,1.94.09,3.76.09,5.49,0,4.84-.18,8.9-.88,12.74-1.85,2.7-.65,5.34-1.47,8.1-2.32,2.85-.85,5.81-1.76,9.1-2.58,3.88-.97,8.16-1.82,13.13-2.29,2.53-.23,5.2-.41,8.1-.44,3.14-.03,6.31.12,9.51.38,4.43.35,8.87,1,13.3,1.91,4.61.97,9.19,2.2,13.77,3.79h.03Z"/>
    </g>
  </g>
</svg>