<svg xmlns="http://www.w3.org/2000/svg" viewBox="0 0 36 36" width="36" height="36"><path fill="#EFEFEF" d="M8.377 4.167c6.917 0 11.667-3.583 15-3.583S33.71 2.5 33.71 17.833s-9.417 17.583-13.083 17.583C3.46 35.417-3.873 4.167 8.377 4.167z"/><path fill="#A4AFC1" d="M31.5 5c-.827 0-1.5-.673-1.5-1.5S30.673 2 31.5 2s1.5.673 1.5 1.5S32.327 5 31.5 5zm0-2a.5.5 0 1 0 .002 1.002A.5.5 0 0 0 31.5 3z"/><path fill="#F3F3F1" d="M24.25 29.25h-12.5a2 2 0 0 1-2-2v-13.5h16.5v13.5a2 2 0 0 1-2 2z"/><path fill="#2FDF84" d="M28.25 13.75H7.75v-2a2 2 0 0 1 2-2h16.5a2 2 0 0 1 2 2v2z"/><path fill="#00B871" d="M12 9.75H9.75a2 2 0 0 0-2 2v2H10v-2a2 2 0 0 1 2-2z"/><path fill="#D5DBE1" d="M12 27.25v-13.5H9.75v13.5a2 2 0 0 0 2 2H14a2 2 0 0 1-2-2z"/><path d="M22.25 20.129h-2.639v-1.5H21.5v-1.753H23v2.503a.75.75 0 0 1-.75.75z"/><path d="m14.495 20.33-1.49-.17C13.276 17.789 15.4 16 17.947 16c1.129 0 2.222.356 3.077 1.004a4.565 4.565 0 0 1 1.588 2.072l-1.402.53a3.091 3.091 0 0 0-1.08-1.398 3.622 3.622 0 0 0-2.183-.708c-1.783 0-3.267 1.217-3.452 2.83zM18.053 26c-1.129 0-2.222-.356-3.077-1.004a4.565 4.565 0 0 1-1.588-2.072l1.402-.53a3.091 3.091 0 0 0 1.08 1.398 3.622 3.622 0 0 0 2.183.708c1.783 0 3.268-1.217 3.452-2.83l1.49.17C22.724 24.211 20.6 26 18.053 26z"/><path d="M14.5 25.124H13v-2.503a.75.75 0 0 1 .75-.75h2.639v1.5H14.5v1.753z"/><path d="M24.25 30h-12.5A2.752 2.752 0 0 1 9 27.25v-13.5a.75.75 0 0 1 .75-.75h16.5a.75.75 0 0 1 .75.75v13.5A2.752 2.752 0 0 1 24.25 30zM10.5 14.5v12.75c0 .689.561 1.25 1.25 1.25h12.5c.689 0 1.25-.561 1.25-1.25V14.5h-15z"/><path d="M28.25 14.5H7.75a.75.75 0 0 1-.75-.75v-2A2.752 2.752 0 0 1 9.75 9h16.5A2.752 2.752 0 0 1 29 11.75v2a.75.75 0 0 1-.75.75zM8.5 13h19v-1.25c0-.689-.561-1.25-1.25-1.25H9.75c-.689 0-1.25.561-1.25 1.25V13z"/><path d="M21.25 10.5h-6.5a.75.75 0 0 1-.75-.75v-2c0-.965.785-1.75 1.75-1.75h4.5c.965 0 1.75.785 1.75 1.75v2a.75.75 0 0 1-.75.75zM15.5 9h5V7.75a.25.25 0 0 0-.25-.25h-4.5a.25.25 0 0 0-.25.25V9zM2 28.5h32V30H2z"/></svg>