<svg xmlns="http://www.w3.org/2000/svg" viewBox="0 0 36 36" width="36" height="36"><path fill="#EFEFEF" d="M8.377 31.833c6.917 0 11.667 3.583 15 3.583S33.71 33.5 33.71 18.167 24.293.583 20.627.583c-17.167 0-24.5 31.25-12.25 31.25z"/><path fill="#A4AFC1" d="M3.25 14.167h1v2h-1zM3.25 19.917h1v2h-1zM0 17.417h2v1H0z"/><path fill="#F3F3F1" d="M18 6.75 6.9 17.39c-.09.09-.15.22-.15.36 0 .28.22.5.5.5h2.5v9.5c0 .825.675 1.5 1.5 1.5h13.5c.825 0 1.5-.675 1.5-1.5v-9.5h2.5c.28 0 .5-.22.5-.5 0-.14-.06-.27-.15-.36l-2.85-2.8V7.75h-3.5v3.38L18 6.75z"/><path fill="#2FDF84" d="M22.25 20.938c0-3.551-4.25-7.188-4.25-7.188s-4.25 3.636-4.25 7.188c0 2.382 1.903 4.312 4.25 4.312s4.25-1.931 4.25-4.312z"/><path fill="#D5DBE1" d="M25 11.13V7.75h-2.25v1.305zM12 27.75v-9.5H9.75v9.5c0 .825.675 1.5 1.5 1.5h2.25c-.825 0-1.5-.675-1.5-1.5zm-3-10c0-.14.06-.27.15-.36l9.997-9.583L18 6.75 6.9 17.39c-.09.09-.15.22-.15.36 0 .28.22.5.5.5H9.5c-.28 0-.5-.22-.5-.5z"/><path fill="#00B871" d="M16 20.938c0-2.356 1.866-4.742 3.125-6.086C18.486 14.169 18 13.75 18 13.75s-4.25 3.636-4.25 7.188c0 2.382 1.903 4.312 4.25 4.312a4.15 4.15 0 0 0 1.125-.172A4.291 4.291 0 0 1 16 20.938z"/><path d="M18 26c-2.757 0-5-2.271-5-5.062 0-3.853 4.328-7.6 4.512-7.757a.752.752 0 0 1 .976 0c.184.157 4.512 3.904 4.512 7.757C23 23.729 20.757 26 18 26zm0-11.226c-1.064 1.037-3.5 3.682-3.5 6.164 0 1.964 1.57 3.562 3.5 3.562s3.5-1.598 3.5-3.562c0-2.482-2.436-5.127-3.5-6.164z"/><path d="M24.75 30h-13.5A2.252 2.252 0 0 1 9 27.75V19H7.25a1.252 1.252 0 0 1-.88-2.14L17.481 6.208a.75.75 0 0 1 1.027-.01L22 9.418V7.75a.75.75 0 0 1 .75-.75h3.5a.75.75 0 0 1 .75.75v6.525l2.625 2.58A1.252 1.252 0 0 1 28.75 19H27v8.75A2.252 2.252 0 0 1 24.75 30zM7.869 17.5H9.75a.75.75 0 0 1 .75.75v9.5c0 .414.336.75.75.75h13.5a.75.75 0 0 0 .75-.75v-9.5a.75.75 0 0 1 .75-.75h1.892l-2.417-2.375a.752.752 0 0 1-.224-.535V8.5h-2v2.63a.75.75 0 0 1-1.258.551L18.01 7.779 7.869 17.5z"/></svg>