<svg xmlns="http://www.w3.org/2000/svg" viewBox="0 0 36 36" width="36" height="36"><path fill="#EFEFEF" d="M15.41 5.634c6.556-2.384 14.528.745 16.39 4.47 2.98 5.96 0 14.156-4.47 17.88-4.47 3.726-10.43 3.726-11.175 1.49-.745-2.234-3.725-2.234-9.685-3.724-5.96-1.49-2.886-10.533-.745-11.176 7.45-2.235 1.49-5.96 9.685-8.94Z"/><path fill="#90A4AD" fill-rule="evenodd" d="m8.803 29.093.398 1.96-.98.2-.398-1.96.98-.2Z"/><g fill="#90A4AD" fill-rule="evenodd"><path d="m6.645 28.511-1.96.398-.2-.98 1.96-.398.2.98Z"/><path fill="#2EDF84" d="M18 9.75a3.75 3.75 0 1 0 0 7.5 3.75 3.75 0 0 0 0-7.5Z"/><path fill="#00B872" d="M14.25 13.5a3.75 3.75 0 0 1 5-3.537 3.752 3.752 0 0 0 0 7.074 3.75 3.75 0 0 1-5-3.537Z"/><path fill="#2EDF84" d="M18 18.25c-1.532 0-2.861.83-3.782 2.057-.92 1.228-1.468 2.89-1.468 4.693 0 .414.336.75.75.75h9a.75.75 0 0 0 .75-.75c0-1.803-.547-3.465-1.468-4.693-.92-1.227-2.25-2.057-3.782-2.057Z"/><path fill="#00B872" d="M14.218 20.307c.92-1.227 2.25-2.057 3.782-2.057.434 0 .853.067 1.25.19-1.003.313-1.872.988-2.532 1.867-.92 1.228-1.468 2.89-1.468 4.693 0 .414.336.75.75.75h-2.5a.75.75 0 0 1-.75-.75c0-1.803.547-3.465 1.468-4.693Z"/><path fill="#F3F3F1" d="M12.74 16.627a.75.75 0 0 1-.74.623 3.75 3.75 0 1 1 1.25-7.286.75.75 0 0 1 .49.833l-1 5.83Zm10.01-6.663A3.75 3.75 0 1 1 24 17.25a.75.75 0 0 1-.74-.623l-1-5.83a.75.75 0 0 1 .49-.833Zm.75 8.286a.75.75 0 0 0-.728.932l1.5 6a.75.75 0 0 0 .728.568h3a.75.75 0 0 0 .75-.75c0-1.803-.547-3.465-1.468-4.693-.92-1.227-2.25-2.057-3.782-2.057Zm-10.409.288a.75.75 0 0 0-.591-.288c-1.532 0-2.861.83-3.782 2.057-.92 1.228-1.468 2.89-1.468 4.693 0 .414.336.75.75.75h3a.75.75 0 0 0 .728-.568l1.5-6a.75.75 0 0 0-.137-.644Z"/><path fill="#D6DBE1" d="M13.25 9.963a3.752 3.752 0 0 0-.557 6.824.75.75 0 0 1-.693.463 3.75 3.75 0 1 1 1.25-7.287ZM24 9.75c-.437 0-.858.075-1.25.214a.75.75 0 0 0-.49.833l1 5.83a.75.75 0 0 0 .74.623c.655 0 1.27-.168 1.807-.463a.752.752 0 0 1-.046-.16l-1-5.83a.75.75 0 0 1 .489-.833A3.744 3.744 0 0 0 24 9.75Zm-1.091 8.788a.75.75 0 0 1 .591-.288c.651 0 1.266.15 1.828.417a.75.75 0 0 0-.056.515l1.5 6a.75.75 0 0 0 .728.568H25a.75.75 0 0 1-.728-.568l-1.5-6a.75.75 0 0 1 .137-.644ZM12.5 18.25a.75.75 0 0 1 .672.417c-.76.36-1.425.935-1.954 1.64-.92 1.228-1.468 2.89-1.468 4.693 0 .414.336.75.75.75H8a.75.75 0 0 1-.75-.75c0-1.803.547-3.465 1.468-4.693.92-1.228 2.25-2.057 3.782-2.057Z"/><path fill="#000" d="M18 11.25a2.25 2.25 0 1 0 0 4.5 2.25 2.25 0 0 0 0-4.5zm-3.75 2.25a3.75 3.75 0 1 1 7.5 0 3.75 3.75 0 0 1-7.5 0zM24 11.25c-.264 0-.516.045-.75.128l-.707.25-.5-1.414.707-.25A3.75 3.75 0 1 1 24 17.25h-.75v-1.5H24a2.25 2.25 0 1 0 0-4.5zm-11.25 6H12a3.75 3.75 0 1 1 1.25-7.286l.707.25-.5 1.414-.707-.25A2.25 2.25 0 1 0 12 15.75h.75v1.5zm1.468 3.057c.92-1.227 2.25-2.057 3.782-2.057s2.861.83 3.782 2.057c.92 1.228 1.468 2.89 1.468 4.693a.75.75 0 0 1-.75.75h-9a.75.75 0 0 1-.75-.75c0-1.803.547-3.465 1.468-4.693zm.07 3.943h7.424c-.125-1.201-.542-2.258-1.13-3.043-.708-.943-1.628-1.457-2.582-1.457s-1.874.514-2.582 1.457c-.588.785-1.005 1.842-1.13 3.043zm8.462-6h.75c1.532 0 2.861.83 3.782 2.057.92 1.228 1.468 2.89 1.468 4.693a.75.75 0 0 1-.75.75h-3.75v-1.5h2.962c-.125-1.201-.542-2.258-1.13-3.043-.708-.943-1.628-1.457-2.582-1.457h-.75v-1.5zm-9.5 0h-.75c-1.532 0-2.861.83-3.782 2.057-.92 1.228-1.468 2.89-1.468 4.693 0 .414.336.75.75.75h3.75v-1.5H8.788c.125-1.201.542-2.258 1.13-3.043.708-.943 1.628-1.457 2.582-1.457h.75v-1.5z"/></g></svg>